/* XPM */
static char *result[] = {
/* columns rows colors chars-per-pixel */
"70 70 102 2 ",
"   c #351F2E",
".  c #37212E",
"X  c #3A222F",
"o  c #3E2531",
"O  c #412731",
"+  c #442931",
"@  c #4B2D33",
"#  c #522F34",
"$  c #4F3136",
"%  c #533336",
"&  c #5B3436",
"*  c #533538",
"=  c #5B3738",
"-  c #5C3939",
";  c #613535",
":  c #643937",
">  c #6C3936",
",  c #673C38",
"<  c #6A3E39",
"1  c #773E37",
"2  c #783E37",
"3  c #67433E",
"4  c #6C433D",
"5  c #73423B",
"6  c #7E4139",
"7  c #7D4A3F",
"8  c #744D43",
"9  c #7E4D41",
"0  c #795044",
"q  c #83443A",
"w  c #854D3F",
"e  c #8B4A3C",
"r  c #904E3E",
"t  c #8E503F",
"y  c #95503E",
"u  c #844F40",
"i  c #845344",
"p  c #8C5342",
"a  c #8F5946",
"s  c #8A5C49",
"d  c #915341",
"f  c #9C5540",
"g  c #945C47",
"h  c #9D5B44",
"j  c #945E49",
"k  c #A25D44",
"l  c #AA5F45",
"z  c #8F614C",
"x  c #95624C",
"c  c #9A654C",
"v  c #9B684F",
"b  c #9F6D52",
"n  c #A66247",
"m  c #AC6246",
"M  c #A1644A",
"N  c #AC6549",
"B  c #A56C4F",
"V  c #AD6B4C",
"C  c #B36546",
"Z  c #B36748",
"A  c #B66848",
"S  c #BD6C4A",
"D  c #BB714E",
"F  c #A06D51",
"G  c #A96E50",
"H  c #B47452",
"J  c #BC7551",
"K  c #B27856",
"L  c #B97955",
"P  c #B77E5A",
"I  c #BB7E59",
"U  c #C16E4A",
"Y  c #C2724D",
"T  c #C57650",
"R  c #C97750",
"E  c #C67A52",
"W  c #CB7C53",
"Q  c #B8805A",
"!  c #CD8156",
"~  c #C3855C",
"^  c #CC855A",
"/  c #C68A5F",
"(  c #D18357",
")  c #D28659",
"_  c #D48A5B",
"`  c #D98D5D",
"'  c #D9905F",
"]  c #C78B60",
"[  c #D38F60",
"{  c #D69363",
"}  c #DD9462",
"|  c #DA9966",
" . c #E19763",
".. c #E39B65",
"X. c #E39F68",
"o. c #E89F68",
"O. c #E5A069",
"+. c #EBA66C",
"@. c #EEA86D",
"#. c #F0AA6E",
"$. c #F2AD70",
"%. c None",
/* pixels */
"%.%.%.%.%.%.%.%.%.%.%.%.%.%.%.%.%.%.%.%.%.%.o o o o . o + 8 s Q | +.@.@.+.+.@.@.@.X.] b 8 * o X X o o O %.%.%.%.%.%.%.%.%.%.%.%.%.%.%.%.%.%.",
"%.%.%.%.%.%.%.%.%.%.%.%.%.%.%.%.%.%.%.%.%.%.O o o o . o @ 3 s Q | +.@.@.+.+.@.@.@.| ] b 8 $ o X X o o o %.%.%.%.%.%.%.%.%.%.%.%.%.%.%.%.%.%.",
"%.%.%.%.%.%.%.%.%.%.%.%.%.%.%.%.%.%.%.%.%.%.O O o o . o @ 3 z P | +.@.@.+.+.@.@.@.X.] b 8 * o X X o O o %.%.%.%.%.%.%.%.%.%.%.%.%.%.%.%.%.%.",
"%.%.%.%.%.%.%.%.%.%.%.%.%.%.%.%.%.%.%.%.%.%.o o o o . o o 8 z Q | O.@.@.+.+.@.@.+.X.] b 8 * O X X o o O %.%.%.%.%.%.%.%.%.%.%.%.%.%.%.%.%.%.",
"%.%.%.%.%.%.%.%.%.%.%.%.%.%.%.%.%.%.%.%.%.%.O o o .   o @ 3 z Q | +.#.@.+.+.+.@.@.| ] F 8 * O . X o o O %.%.%.%.%.%.%.%.%.%.%.%.%.%.%.%.%.%.",
"%.%.%.%.%.%.%.%.%.%.%.%.%.%.%.%.%.%.%.%.%.%.o O o o X X @ 3 z Q | +.@.@.+.+.@.#.@.X.] F 8 * O . X o o O %.%.%.%.%.%.%.%.%.%.%.%.%.%.%.%.%.%.",
"%.%.%.%.%.%.%.%.%.%.%.%.%.%.%.%.%.%.%.%.%.%.o o o X X o + - z Q | O.#.@.+.+.@.@.+.X.] b 8 * o . X o o o %.%.%.%.%.%.%.%.%.%.%.%.%.%.%.%.%.%.",
"%.%.%.%.%.%.%.%.%.%.%.%.%.%.%.%.%.%.%.%.%.o O o X X X X @ 8 z Q | +.@.@.+.+.@.#.+.X.] b 8 * o . X o O o %.%.%.%.%.%.%.%.%.%.%.%.%.%.%.%.%.%.",
"%.%.%.%.%.%.%.%.%.%.%.%.%.%.%.%.%.%.%.%.O o o o o o   o O - z Q | @.$.@.+.@.@.$.@.O.] b 8 * o o o o O o %.%.%.%.%.%.%.%.%.%.%.%.%.%.%.%.%.%.",
"%.%.%.%.%.%.%.%.%.%.%.%.%.%.%.%.%.%.%.o O o O o o .   . @ 8 z Q | @.$.@.+.+.@.$.@.X.] b 8 * o o o o o O %.%.%.%.%.%.%.%.%.%.%.%.%.%.%.%.%.%.",
"%.%.%.%.%.%.%.%.%.%.%.%.%.%.%.%.%.%.O o o o o o o o . o @ 8 s Q | O.@.@.+.+.+.@.+.X.] b 8 $ o o . o o o %.%.%.%.%.%.%.%.%.%.%.%.%.%.%.%.%.%.",
"%.%.%.%.%.%.%.%.%.%.%.%.%.%.%.%.%.%.o O o o o O o o O O $ 8 x P [ o.o.o.....o.o.X.| ~ v 8 * o . . o O o %.%.%.%.%.%.%.%.%.%.%.%.%.%.%.%.%.%.",
"%.%.%.%.%.%.%.%.%.%.%.%.%.%.%.%.%.%.o o o o o o O @ # ; 4 u M L ] } } } [ }  . .} ) L x 8 # o o X o o o %.%.%.%.%.%.%.%.%.%.%.%.%.%.%.%.%.%.",
"%.%.%.%.%.%.%.%.%.%.%.%.%.%.%.%.%.%.O o o o o o + % , 5 u h N J W W ) W W W W ( ( E G a 4 @ o . o o o o %.%.%.%.%.%.%.%.%.%.%.%.%.%.%.%.%.%.",
"%.%.%.%.%.%.%.%.%.%.%.%.%.%.%.%.%.%.o o X o o o @ = 6 p k Z A U T T T T R T R R E D N p < @ O o o o o o %.%.%.%.%.%.%.%.%.%.%.%.%.%.%.%.%.%.",
"%.%.%.%.%.%.%.%.%.%.%.%.%.%.%.%.%.%.O o X o o O @ , u k A U Y R Y Y U Y Y Y T Y T S n u < @ o o o o o O %.%.%.%.%.%.%.%.%.%.%.%.%.%.%.%.%.%.",
"%.%.%.%.%.%.%.%.%.%.%.%.%.%.%.%.%.%.o o o o . o % < a A E W W W R R T T R W R W W J V p 4 $ o X o o o o %.%.%.%.%.%.%.%.%.%.%.%.%.%.%.%.%.%.",
"%.%.%.%.%.%.%.%.%.%.%.%.%.%.%.%.%.%.O o o o o o @ 4 j H ^ ` ` _ ) ) ) [ ) W [ [ [ W H a 4 $ o X . o o o %.%.%.%.%.%.%.%.%.%.%.%.%.%.%.%.%.%.",
"%.%.%.%.%.%.%.%.%.%.%.%.%.%.%.%.%.%.O o o . . o % 8 c Q }  ... .} } } }  .} ....} [ L c 8 $ O X o o o o %.%.%.%.%.%.%.%.%.%.%.%.%.%.%.%.%.%.",
"%.%.%.%.%.%.%.%.%.%.%.%.%.%.%.%.%.o o O o o o o * 8 F ~ | +.+.o.X.o.O.O.o.o.O.+.+. .] b 8 $ o X o o o O %.%.%.%.%.%.%.%.%.%.%.%.%.%.%.%.%.%.",
"%.%.%.%.%.%.%.%.%.%.%.%.%.%.%.%.%.O O o o o . o * 8 b ] X.@.$.+.@.+.+.+.+.+.@.@.@.X.] F 8 * O X . o o O %.%.%.%.%.%.%.%.%.%.%.%.%.%.%.%.%.%.",
"%.%.%.%.%.%.%.%.%.%.%.%.%.%.%.%.o o o o o . o o * 8 b ] X.@.$.#.+.+.+.+.+.+.@.$.@.X.] b 8 * o X X o o O %.%.%.%.%.%.%.%.%.%.%.%.%.%.%.%.%.%.",
"O o o o O o o O O o o O O o o o O o o o o o   o * 8 b ] X.@.#.@.+.+.+.+.+.+.@.#.@.X.] F 8 * o X X o o o %.%.%.%.%.%.%.%.%.%.%.%.%.%.%.%.%.%.",
"o O O o o O o o o o O o o O O o O o o o o . o o * 8 b ] X.@.$.+.+.+.+.+.+.+.+.@.@.X.] F 8 * o X X o o o %.%.%.%.%.%.%.%.%.%.%.%.%.%.%.%.%.%.",
"o o o o o o o o o o o X o o o o o o o o o   X o * 8 b ] X.+.#.+.+.+.+.+.+.+.+.$.@.X.] b 8 * o X o o O o %.%.%.%.%.%.%.%.%.%.%.%.%.%.%.%.%.%.",
"o o X o o o o . o X X X X o X X o o X X .     o % 8 b ] X.#.#.+.+.+.+.+.+.+.+.$.@.X.] b 8 * o X o o o O %.%.%.%.%.%.%.%.%.%.%.%.%.%.%.%.%.%.",
". . . . . . . . . X X X   X . .   X . X       o @ 8 b ] X.#.#.@.+.+.+.+.+.+.+.$.@.O.] F 8 * o X . o o o %.%.%.%.%.%.%.%.%.%.%.%.%.%.%.%.%.%.",
"o X o o . o o X X o X o o o o . X X X o o     o $ 8 b ] X.@.@.@.+.+.+.+.+.+.+.$.@.X.] F 8 * o X . o O o %.%.%.%.%.%.%.%.%.%.%.%.%.%.%.%.%.%.",
"@ + @ @ @ @ + @ @ @ @ @ @ @ @ @ @ @ @ + @ o O @ * 0 F / | +.+.+.o.+.o.o.+.+.+.+.+. .] v 8 * o X X X o o %.%.%.%.%.%.%.%.%.%.%.%.%.%.%.%.%.%.",
"3 3 3 3 - 8 - 8 3 3 3 3 3 3 3 3 3 8 - 8 8 - = - 8 i F ~ } ....| | |  .| | |  ... .[ I c 8 * o . o o O o %.%.%.%.%.%.%.%.%.%.%.%.%.%.%.%.%.%.",
"x z z z z z z z z z z z z z z z s z z z s 0 9 9 9 g V E ^ ` ` ` _ _ ` ) _ ` ` ` [ [ H j 8 @ o o o o o o %.%.%.%.%.%.%.%.%.%.%.%.%.%.%.%.%.%.",
"Q Q Q Q P Q P Q Q Q Q Q P Q Q Q Q Q Q Q K b M h h n A J R W W W W W W W W W W W W T V p 3 @ o . o o o O %.%.%.%.%.%.%.%.%.%.%.%.%.%.%.%.%.%.",
"| | | | | | | | | | | | | | | | | | | | [ ^ T A A C A U U U U U U T U U U U Y R U U l u < # o X o o o o %.%.%.%.%.%.%.%.%.%.%.%.%.%.%.%.%.%.",
"+.+.+.+.+.+.+.+.+.+.+.+.+.+.+.+.@.+.@.o.X.[ W R U U A A S S S U S S U U S S S U U C k u : @ o o o o o o %.%.%.%.%.%.%.%.%.%.%.%.%.%.%.%.%.%.",
"@.#.$.#.@.$.#.#.+.$.#.$.#.$.#.#.$.$.$.@.o.} ( R U U A U A S U A A A A A A S S U S C k u > @ o X o o o O %.%.%.%.%.%.%.%.%.%.%.%.%.%.%.%.%.%.",
"#.@.#.#.@.@.@.@.#.@.#.#.@.@.#.#.#.$.#.+.o.} ) T U U U A S S A U S S U A A A S U U C k u : $ O X o o o o %.%.%.%.%.%.%.%.%.%.%.%.%.%.%.%.%.%.",
"+.+.+.+.+.+.+.+.+.+.+.+.+.+.+.+.@.@.@.+. .[ W T U U A U U A U A U A U A U A U U U Z k u : $ o X o o o o %.%.%.%.%.%.%.%.%.%.%.%.%.%.%.%.%.%.",
"O.O.O.O.o.X.o.o.X.X.X.o.X.X.o.X.X.X...X.} [ W S C C A A A S S S S S S S U S U U U A k u 3 @ O X . o o o %.%.%.%.%.%.%.%.%.%.%.%.%.%.%.%.%.%.",
"} } } } } } } } } } } }  .} } | } } } } [ E S C l l C A U S S U S S S S S S U U U Z k u > $ O X o o o o %.%.%.%.%.%.%.%.%.%.%.%.%.%.%.%.%.%.",
") ) ) ) ) ) ) ) ) ) ) ) ) ) ( ) _ _ ) ) E S l k f k l C A S S U S S S S S S U U U C k u : @ o X o o o o %.%.%.%.%.%.%.%.%.%.%.%.%.%.%.%.%.%.",
"T E R T R T R E E E E R T W R T R W W T D l f p e y l C S U U A S S S S S S U U U Z k u 3 @ O o o o o + %.%.%.%.%.%.%.%.%.%.%.%.%.%.%.%.%.%.",
"U D S U D Y D Y U S U S D S S S S Y U U Z k d q q e f l C U U U S S S S S S S U U Z k u : $ o X o o o o %.%.%.%.%.%.%.%.%.%.%.%.%.%.%.%.%.%.",
"S S S S S S S S S S S S S S S S S U S A C f e 6 6 e y m A U U A S S S S S D U U U A k u , @ o X o o o o %.%.%.%.%.%.%.%.%.%.%.%.%.%.%.%.%.%.",
"U S U S S U S U U S U S U U S U U U U S C f e 6 6 e f m A U U U S S S S S S S U U A k u , $ o X . o + o %.%.%.%.%.%.%.%.%.%.%.%.%.%.%.%.%.%.",
"U U U U U U U U S U U U U U U U U U U U l k e 6 6 e y m A S U S S S S S S S S U U A k u > @ o o o o o o %.%.%.%.%.%.%.%.%.%.%.%.%.%.%.%.%.%.",
"A A S S A S S A S S A S S A S S S S U A l f e 6 6 e y A S S S U S S S S S S U U U A k u > @ O X X o o o %.%.%.%.%.%.%.%.%.%.%.%.%.%.%.%.%.%.",
"N m n N n n l l N l m m l l m m l l l l k r q 2 6 q y l A U S S S S S S S S S U U A k u > $ o X o o o o %.%.%.%.%.%.%.%.%.%.%.%.%.%.%.%.%.%.",
"y y d d y y y y d d d d d d d d d d d d e 6 > > < 6 y m A U Y S S S S S S S S S S C k u : $ o X o o + o %.%.%.%.%.%.%.%.%.%.%.%.%.%.%.%.%.%.",
"5 5 5 5 5 5 5 5 5 5 5 5 5 5 5 5 5 5 5 5 < : & # ; 5 e m A U U S S S S S S S S U U A k w < @ o . o o o o %.%.%.%.%.%.%.%.%.%.%.%.%.%.%.%.%.%.",
"% % % % % % % & % % % & % & % % * * * = % @ @ @ & > e k A S U U S S S S S S U U S A k w , @ o o o X o o %.%.%.%.%.%.%.%.%.%.%.%.%.%.%.%.%.%.",
"+ + + + o O + O + + + + + O O O o o + o O X o O @ , w n A U U U S S S S S S U U U A k u , @ o o o o o o %.%.%.%.%.%.%.%.%.%.%.%.%.%.%.%.%.%.",
"X X X X o o o . X X X X X O X X o o o o X X X o @ , w k A S U S S S S S S S U U S A k u < @ o . o o o o %.%.%.%.%.%.%.%.%.%.%.%.%.%.%.%.%.%.",
"X o o o o . o o o . o o X X X o X o . . X . X o @ , w k A U U U S S S S S S S U U A k w , @ O o o o o o %.%.%.%.%.%.%.%.%.%.%.%.%.%.%.%.%.%.",
"X o X o o o X o o o X o X O o X o o o o o X X o @ , w k A U U S S D S S S S S U S A k w < @ o o o o o o %.%.%.%.%.%.%.%.%.%.%.%.%.%.%.%.%.%.",
"O o o o o o o o o o o o o o o X o o o o o X X o @ , w k A U U U S S S S S S S U S A k w , @ o . o o o o %.%.%.%.%.%.%.%.%.%.%.%.%.%.%.%.%.%.",
"O o O o o o o o o o o O o O O O o o o o o o o o @ , w k A S U S S S S S S S U U U A k w , @ o o . o o o %.%.%.%.%.%.%.%.%.%.%.%.%.%.%.%.%.%.",
"O o O o O o o O o o o O o o O o O o o O o o X o @ > u k A S U S S S S S S A S U U A k u : # o o o o o + %.%.%.%.%.%.%.%.%.%.%.%.%.%.%.%.%.%.",
"%.%.%.%.%.%.%.%.%.%.%.%.%.%.%.%.o o O o o o o o @ > u k A U U U S D S S S D U U S A k u > @ o . o o o o %.%.%.%.%.%.%.%.%.%.%.%.%.%.%.%.%.%.",
"%.%.%.%.%.%.%.%.%.%.%.%.%.%.%.%.%.O O o o o . o @ < u k A U U S S S S S S S S U U A k u , @ O o o o o o %.%.%.%.%.%.%.%.%.%.%.%.%.%.%.%.%.%.",
"%.%.%.%.%.%.%.%.%.%.%.%.%.%.%.%.%.%.o o o . o o @ , u k A S U U S S S S S S U U U A k u , @ o o o o + o %.%.%.%.%.%.%.%.%.%.%.%.%.%.%.%.%.%.",
"%.%.%.%.%.%.%.%.%.%.%.%.%.%.%.%.%.%.o O o o o o @ < u k S S U S S S S S S S D U S A k u 3 * o o o o o o %.%.%.%.%.%.%.%.%.%.%.%.%.%.%.%.%.%.",
"%.%.%.%.%.%.%.%.%.%.%.%.%.%.%.%.%.%.%.%.%.%.%.%.%.%.%.%.%.%.%.%.%.%.%.%.%.%.%.%.%.%.%.%.%.%.%.%.%.%.%.%.%.%.%.%.%.%.%.%.%.%.%.%.%.%.%.%.%.%.",
"%.%.%.%.%.%.%.%.%.%.%.%.%.%.%.%.%.%.%.%.%.%.%.%.%.%.%.%.%.%.%.%.%.%.%.%.%.%.%.%.%.%.%.%.%.%.%.%.%.%.%.%.%.%.%.%.%.%.%.%.%.%.%.%.%.%.%.%.%.%.",
"%.%.%.%.%.%.%.%.%.%.%.%.%.%.%.%.%.%.%.%.%.%.%.%.%.%.%.%.%.%.%.%.%.%.%.%.%.%.%.%.%.%.%.%.%.%.%.%.%.%.%.%.%.%.%.%.%.%.%.%.%.%.%.%.%.%.%.%.%.%.",
"%.%.%.%.%.%.%.%.%.%.%.%.%.%.%.%.%.%.%.%.%.%.%.%.%.%.%.%.%.%.%.%.%.%.%.%.%.%.%.%.%.%.%.%.%.%.%.%.%.%.%.%.%.%.%.%.%.%.%.%.%.%.%.%.%.%.%.%.%.%.",
"%.%.%.%.%.%.%.%.%.%.%.%.%.%.%.%.%.%.%.%.%.%.%.%.%.%.%.%.%.%.%.%.%.%.%.%.%.%.%.%.%.%.%.%.%.%.%.%.%.%.%.%.%.%.%.%.%.%.%.%.%.%.%.%.%.%.%.%.%.%.",
"%.%.%.%.%.%.%.%.%.%.%.%.%.%.%.%.%.%.%.%.%.%.%.%.%.%.%.%.%.%.%.%.%.%.%.%.%.%.%.%.%.%.%.%.%.%.%.%.%.%.%.%.%.%.%.%.%.%.%.%.%.%.%.%.%.%.%.%.%.%.",
"%.%.%.%.%.%.%.%.%.%.%.%.%.%.%.%.%.%.%.%.%.%.%.%.%.%.%.%.%.%.%.%.%.%.%.%.%.%.%.%.%.%.%.%.%.%.%.%.%.%.%.%.%.%.%.%.%.%.%.%.%.%.%.%.%.%.%.%.%.%.",
"%.%.%.%.%.%.%.%.%.%.%.%.%.%.%.%.%.%.%.%.%.%.%.%.%.%.%.%.%.%.%.%.%.%.%.%.%.%.%.%.%.%.%.%.%.%.%.%.%.%.%.%.%.%.%.%.%.%.%.%.%.%.%.%.%.%.%.%.%.%.",
"%.%.%.%.%.%.%.%.%.%.%.%.%.%.%.%.%.%.%.%.%.%.%.%.%.%.%.%.%.%.%.%.%.%.%.%.%.%.%.%.%.%.%.%.%.%.%.%.%.%.%.%.%.%.%.%.%.%.%.%.%.%.%.%.%.%.%.%.%.%."
};
