/* XPM */
static char *result[] = {
/* columns rows colors chars-per-pixel */
"70 70 102 2 ",
"   c #351F2E",
".  c #37212E",
"X  c #3A222F",
"o  c #3E2531",
"O  c #412731",
"+  c #442931",
"@  c #4B2D33",
"#  c #522F34",
"$  c #4F3136",
"%  c #533336",
"&  c #5B3436",
"*  c #533538",
"=  c #5B3738",
"-  c #5C3939",
";  c #613535",
":  c #643937",
">  c #6C3936",
",  c #673C38",
"<  c #6A3E39",
"1  c #773E37",
"2  c #783E37",
"3  c #67433E",
"4  c #6C433D",
"5  c #73423B",
"6  c #7E4139",
"7  c #7D4A3F",
"8  c #744D43",
"9  c #7E4D41",
"0  c #795044",
"q  c #83443A",
"w  c #854D3F",
"e  c #8B4A3C",
"r  c #904E3E",
"t  c #8E503F",
"y  c #95503E",
"u  c #844F40",
"i  c #845344",
"p  c #8C5342",
"a  c #8F5946",
"s  c #8A5C49",
"d  c #915341",
"f  c #9C5540",
"g  c #945C47",
"h  c #9D5B44",
"j  c #945E49",
"k  c #A25D44",
"l  c #AA5F45",
"z  c #8F614C",
"x  c #95624C",
"c  c #9A654C",
"v  c #9B684F",
"b  c #9F6D52",
"n  c #A66247",
"m  c #AC6246",
"M  c #A1644A",
"N  c #AC6549",
"B  c #A56C4F",
"V  c #AD6B4C",
"C  c #B36546",
"Z  c #B36748",
"A  c #B66848",
"S  c #BD6C4A",
"D  c #BB714E",
"F  c #A06D51",
"G  c #A96E50",
"H  c #B47452",
"J  c #BC7551",
"K  c #B27856",
"L  c #B97955",
"P  c #B77E5A",
"I  c #BB7E59",
"U  c #C16E4A",
"Y  c #C2724D",
"T  c #C57650",
"R  c #C97750",
"E  c #C67A52",
"W  c #CB7C53",
"Q  c #B8805A",
"!  c #CD8156",
"~  c #C3855C",
"^  c #CC855A",
"/  c #C68A5F",
"(  c #D18357",
")  c #D28659",
"_  c #D48A5B",
"`  c #D98D5D",
"'  c #D9905F",
"]  c #C78B60",
"[  c #D38F60",
"{  c #D69363",
"}  c #DD9462",
"|  c #DA9966",
" . c #E19763",
".. c #E39B65",
"X. c #E39F68",
"o. c #E89F68",
"O. c #E5A069",
"+. c #EBA66C",
"@. c #EEA86D",
"#. c #F0AA6E",
"$. c #F2AD70",
"%. c None",
/* pixels */
"%.%.%.%.%.%.%.%.%.%.%.%.%.%.%.%.%.%.O O o o . o * 8 b ] X.+.@.+.+.+.#.#.+.| P z - @ X X X o o O %.%.%.%.%.%.%.%.%.%.%.%.%.%.%.%.%.%.%.%.%.%.",
"%.%.%.%.%.%.%.%.%.%.%.%.%.%.%.%.%.%.o o o o o o * 8 b ] X.+.@.@.+.+.@.@.+.| P z 8 @ X . o o o o %.%.%.%.%.%.%.%.%.%.%.%.%.%.%.%.%.%.%.%.%.%.",
"%.%.%.%.%.%.%.%.%.%.%.%.%.%.%.%.%.%.O o o . . o % 8 b ] X.+.#.#.+.+.+.#.+.| P z , O o . X o o o %.%.%.%.%.%.%.%.%.%.%.%.%.%.%.%.%.%.%.%.%.%.",
"%.%.%.%.%.%.%.%.%.%.%.%.%.%.%.%.%.%.o o o . . O * 8 b ] X.+.#.+.+.+.@.@.+.| P z 8 + o . o o o o %.%.%.%.%.%.%.%.%.%.%.%.%.%.%.%.%.%.%.%.%.%.",
"%.%.%.%.%.%.%.%.%.%.%.%.%.%.%.%.%.%.O O O . o o % 8 b ] | +.@.+.+.+.@.#.+.| P z - @ o . o o o O %.%.%.%.%.%.%.%.%.%.%.%.%.%.%.%.%.%.%.%.%.%.",
"%.%.%.%.%.%.%.%.%.%.%.%.%.%.%.%.%.%.o o o . . O * 8 b ] X.#.#.@.+.+.@.#.+.| P z 8 + o   o o o o %.%.%.%.%.%.%.%.%.%.%.%.%.%.%.%.%.%.%.%.%.%.",
"%.%.%.%.%.%.%.%.%.%.%.%.%.%.%.%.%.%.O o o . . o * 8 b ] X.@.@.+.+.+.@.#.+.| P z 8 O o X X o o O %.%.%.%.%.%.%.%.%.%.%.%.%.%.%.%.%.%.%.%.%.%.",
"%.%.%.%.%.%.%.%.%.%.%.%.%.%.%.%.%.%.o O o X o o * 8 b ] X.+.#.@.+.+.@.@.@.| P z 4 + X   X o o o o %.%.%.%.%.%.%.%.%.%.%.%.%.%.%.%.%.%.%.%.%.",
"%.%.%.%.%.%.%.%.%.%.%.%.%.%.%.%.%.%.o o o o   o * 8 F / O.#.#.@.+.+.@.$.+.| Q z 8 + X . o o o o o o %.%.%.%.%.%.%.%.%.%.%.%.%.%.%.%.%.%.%.%.",
"%.%.%.%.%.%.%.%.%.%.%.%.%.%.%.%.%.%.O o o o o O * 8 F / O.#.#.#.+.+.#.$.+.| Q z - + . . . o o o o o + %.%.%.%.%.%.%.%.%.%.%.%.%.%.%.%.%.%.%.",
"%.%.%.%.%.%.%.%.%.%.%.%.%.%.%.%.%.%.O o o o   o * 8 F / | @.+.+.o.+.+.#.+.| P z 8 @ o X o o o o o o o o %.%.%.%.%.%.%.%.%.%.%.%.%.%.%.%.%.%.",
"%.%.%.%.%.%.%.%.%.%.%.%.%.%.%.%.%.%.o O o . . o * 8 v ~ | O.o.o.X.X.o.o.X.{ P x 8 * @ O O O o o O o o + %.%.%.%.%.%.%.%.%.%.%.%.%.%.%.%.%.%.",
"%.%.%.%.%.%.%.%.%.%.%.%.%.%.%.%.%.%.o o o . o o % 8 j L _ } } } { [  .} [ ) L M 9 < ; # @ + o o o o o o %.%.%.%.%.%.%.%.%.%.%.%.%.%.%.%.%.%.",
"%.%.%.%.%.%.%.%.%.%.%.%.%.%.%.%.%.%.O o o o X o @ 4 a V E ( ( ! W W ( W W W H N h u 5 < % + o o o o o O %.%.%.%.%.%.%.%.%.%.%.%.%.%.%.%.%.%.",
"%.%.%.%.%.%.%.%.%.%.%.%.%.%.%.%.%.%.o o o X X o @ 4 p n D R R R R T T T T T S A N k p 5 ; + O o o o o + %.%.%.%.%.%.%.%.%.%.%.%.%.%.%.%.%.%.",
"%.%.%.%.%.%.%.%.%.%.%.%.%.%.%.%.%.%.o o o o o O @ < i n S Y R R T Y U T T U T U S A k u < @ O o o o o o %.%.%.%.%.%.%.%.%.%.%.%.%.%.%.%.%.%.",
"%.%.%.%.%.%.%.%.%.%.%.%.%.%.%.%.%.%.O o o o . o @ 4 p N J W W R R E R E R R W W W T V p 8 $ o o o o o o %.%.%.%.%.%.%.%.%.%.%.%.%.%.%.%.%.%.",
"%.%.%.%.%.%.%.%.%.%.%.%.%.%.%.%.%.%.o O o o o o @ 4 g H ! _ _ _ _ ^ _ _ ) ( ` ` } ) H j 8 * o . X o o o %.%.%.%.%.%.%.%.%.%.%.%.%.%.%.%.%.%.",
"%.%.%.%.%.%.%.%.%.%.%.%.%.%.%.%.%.%.o o o X . o @ 8 c I [  ... .} } } } }  .| .. .} P c 8 + o o o o o o %.%.%.%.%.%.%.%.%.%.%.%.%.%.%.%.%.%.",
"%.%.%.%.%.%.%.%.%.%.%.%.%.%.%.%.%.%.O o o X o o * 8 b ~ | +.+.o.X.X.o.X.o.X.+.@.o.} ] v 8 $ o . X o + o o %.%.%.%.%.%.%.%.%.%.%.%.%.%.%.%.%.",
"%.%.%.%.%.%.%.%.%.%.%.%.%.%.%.%.%.%.o O o X X o * 8 b ] X.#.$.+.+.+.+.+.+.+.+.@.#.X.] b 8 * o . X o o O o %.%.%.%.%.%.%.%.%.%.%.%.%.%.%.%.%.",
"%.%.%.%.%.%.%.%.%.%.%.%.%.%.%.%.%.%.O o o . X o * 8 b ] X.+.$.@.+.@.+.+.+.+.@.$.#.X.] b 8 * o . . o o o + o %.%.%.%.%.%.%.%.%.%.%.%.%.%.%.%.",
"%.%.%.%.%.%.%.%.%.%.%.%.%.%.%.%.%.%.O o o X X o * 8 b ] X.@.$.@.+.+.+.+.+.+.@.$.@.X.] b 0 * o . . o o o o + o + o + o o o + + o O o o O O o ",
"%.%.%.%.%.%.%.%.%.%.%.%.%.%.%.%.%.%.o o o o   O * 8 b ] X.@.#.+.+.+.+.+.+.+.+.@.@.X.] F 0 * o . o o o o o o o o o o + o o o o o o O o o o O ",
"%.%.%.%.%.%.%.%.%.%.%.%.%.%.%.%.%.%.o O o . . O * 8 F ] X.@.@.@.+.+.+.+.+.+.+.$.@.X.] b 8 $ o . . o o o o o o o o o o o o o o o O o o O o o ",
"%.%.%.%.%.%.%.%.%.%.%.%.%.%.%.%.%.%.o o o . . O % 8 b ] X.@.$.+.+.+.+.+.+.+.@.@.@.X.] b 8 * . . . . o o X o o . o o . o o . . o X X X X X X ",
"%.%.%.%.%.%.%.%.%.%.%.%.%.%.%.%.%.%.O o o . o O * 8 F ] X.#.#.#.+.+.+.+.+.+.@.$.@.O.] b 8 $ . .   . . . X X . . . . . . . . . . X . . . X X ",
"%.%.%.%.%.%.%.%.%.%.%.%.%.%.%.%.%.%.o O o o . o * 8 b ] ..#.#.#.+.+.+.+.+.@.@.@.@.X.] b 8 $ o . . . X o X o o o o o o o X o X O o X X . X o ",
"%.%.%.%.%.%.%.%.%.%.%.%.%.%.%.%.%.%.O o o o . o * 8 b ] | +.@.o.+.O.O.O.O.O.+.+.+. .] b 8 * + O O o @ @ + @ + o @ @ + + @ + @ + + $ @ @ @ $ ",
"%.%.%.%.%.%.%.%.%.%.%.%.%.%.%.%.%.%.o O o o o o * 8 c I {  .....}  . . .| | .... .{ W F i 8 : = - 8 - 8 - 8 8 3 8 - 8 8 8 , 3 8 3 3 3 3 3 3 ",
"%.%.%.%.%.%.%.%.%.%.%.%.%.%.%.%.%.%.o o o . o o $ 8 g H ! { ` ` _ _ _ _ _ ` _ _ [ ) T G g u 9 9 0 s s z z z z z s s z z z z s z z z z z z z ",
"%.%.%.%.%.%.%.%.%.%.%.%.%.%.%.%.%.%.O o o . . o @ < p G T W W W W W W W W W W W W E T V l k h F G K Q Q Q Q Q Q Q P Q P Q P P P Q Q Q Q Q Q ",
"%.%.%.%.%.%.%.%.%.%.%.%.%.%.%.%.%.%.o o o o o o # , w n S Y Y U T D U U U U Y U U U U A C A U T W [ | | | | | | | | | | | | | | | | | | | { ",
"%.%.%.%.%.%.%.%.%.%.%.%.%.%.%.%.%.%.+ o o X X o @ 4 w k A U U U S S S S S S S S S S S A S U R W { X.+.+.#.+.+.+.+.+.+.+.+.+.+.+.+.+.+.+.+.+.",
"%.%.%.%.%.%.%.%.%.%.%.%.%.%.%.%.%.%.o o o X o o @ , q k A S S S S A S S S A S A S S S A U U R W } +.+.$.$.$.#.$.@.$.#.$.$.$.@.@.#.#.#.#.#.#.",
"%.%.%.%.%.%.%.%.%.%.%.%.%.%.%.%.%.%.o o o X o o @ , w k A U U S A S S A S S A S C S S S S U R W } o.+.$.$.#.#.@.@.@.@.#.#.@.@.@.#.#.#.#.@.#.",
"%.%.%.%.%.%.%.%.%.%.%.%.%.%.%.%.%.%.o + o o . o @ , w k A S U U S S S A S A S S S S A S S U R W [  .+.+.+.+.+.+.+.+.+.+.+.+.+.+.+.+.+.+.+.+.",
"%.%.%.%.%.%.%.%.%.%.%.%.%.%.%.%.%.%.o o o o X o @ , w k A U U U S S S S S S S S S S S C C A U R [ } ..o.O.+.o.o.o.X.o.X.o.X.X.o.O.+.O.O.O...",
"%.%.%.%.%.%.%.%.%.%.%.%.%.%.%.%.%.%.o + o X X O @ , w k A S U S S S S S S S S S S S A C l l C U R [ } } }  . .} } } } } }  .} } ' ' ' ' ' ' ",
"%.%.%.%.%.%.%.%.%.%.%.%.%.%.%.%.%.%.o o o o X X # , w k A U U U S S S S S S S S S S A l k f f l S E W [ [ W [ W ) ) ) ) ) ) W [ ( _ _ _ _ _ ",
"%.%.%.%.%.%.%.%.%.%.%.%.%.%.%.%.%.%.o o o o o o @ , w k A U U S S S S S S S S S S S l k y e y y N S T W W E E T R T T W T R E W E R E E E E ",
"%.%.%.%.%.%.%.%.%.%.%.%.%.%.%.%.%.%.+ o o o o o # , w k A S U U S S S S S S S U D S m f e q q y k Z S U U U U U D U U S D U D S S S Y S D U ",
"%.%.%.%.%.%.%.%.%.%.%.%.%.%.%.%.%.%.o o o X X o @ , w k A S U S S S S S S S S U S S m f e 6 6 e f l A U U S S S S S S S S S S S S S S S S S ",
"%.%.%.%.%.%.%.%.%.%.%.%.%.%.%.%.%.%.+ o o o o o @ , w k A U U U S S S S S S S S S S l f e 6 6 e f C S U U U S S U U S U S S U U U S U U U U ",
"%.%.%.%.%.%.%.%.%.%.%.%.%.%.%.%.%.%.o o o o X o # , w k A S Y S S S S S S S S U U A l f u 6 6 e k C S U U U U U S U U U U U U U U U S U U U ",
"%.%.%.%.%.%.%.%.%.%.%.%.%.%.%.%.%.%.o o o X X o @ , w k A U U U S S S S S S S S U A l f e 6 6 u f l A S S S S S S S S A S A S A S A S A A A ",
"%.%.%.%.%.%.%.%.%.%.%.%.%.%.%.%.%.%.o o o o X o @ , w k A U U S S S S S S S S S U A l f q 2 2 q d k l l N N l N l l l N C l l l Z N N N N N ",
"%.%.%.%.%.%.%.%.%.%.%.%.%.%.%.%.%.%.o o X o o o @ , w k A S U U S S S S S S S D S A l f 6 > > > 6 e d d d d d d d d d d d d d d t t t t y y ",
"%.%.%.%.%.%.%.%.%.%.%.%.%.%.%.%.%.%.o o o o . o $ , 0 k A S U S S S S S S S S U U A l p 2 ; & & ; < 5 5 5 5 5 5 5 5 5 5 5 1 5 5 4 5 5 5 5 5 ",
"%.%.%.%.%.%.%.%.%.%.%.%.%.%.%.%.%.%.+ o o o o o $ , u k A U U U S S S S S S U U S A k e < # @ + @ # % % % % & % % % & & % % % % * - * & & % ",
"%.%.%.%.%.%.%.%.%.%.%.%.%.%.%.%.%.%.+ o o o . o @ , u k A S U U S S S S S S S U U A k w < # O o o o + + o O O o + + + + + + + O o o o o o + ",
"%.%.%.%.%.%.%.%.%.%.%.%.%.%.%.%.%.%.o o o o o o @ < u k A U U S S S S S S S U U S A k w , @ o .   o o o o o o o X X X X X X X X o o o o X o ",
"%.%.%.%.%.%.%.%.%.%.%.%.%.%.%.%.%.%.o o o o o o @ , w k A U U U S S S S S S S U U A k w , + O X X o . o . o o . o . o o o o o X o o o X o o ",
"%.%.%.%.%.%.%.%.%.%.%.%.%.%.%.%.%.%.+ o o o X o # , w k A U U S S S S D S S U U S A k w , @ o X . o o o o o o o o o X o X o o o o o o o o o ",
"%.%.%.%.%.%.%.%.%.%.%.%.%.%.%.%.%.%.o o o X X o @ , w k A U U U S S S S S S U U U A k w < @ o o o o o o o o o o o o o o o o X o o o o o o o ",
"%.%.%.%.%.%.%.%.%.%.%.%.%.%.%.%.%.%.o o o o o o @ , w k A S U S S S S S S S S U S A k w < + o . . o o o o o o o o o o O o O o o o o o o o o ",
"%.%.%.%.%.%.%.%.%.%.%.%.%.%.%.%.%.%.O O o o o o @ : u k A U Y S S S S S S S S S S A k w < @ o o o o o o o O o O o o o O o o O o o @ o o o o ",
"%.%.%.%.%.%.%.%.%.%.%.%.%.%.%.%.%.%.o o o o o o # < u k A S U U S S S S S S U D U A k w , @ o o o o O O o o %.%.%.%.%.%.%.%.%.%.%.%.%.%.%.%.",
"%.%.%.%.%.%.%.%.%.%.%.%.%.%.%.%.%.%.O o o X X o @ < u k A S U S S S S S S S S U S A k u , @ O o o o o o O %.%.%.%.%.%.%.%.%.%.%.%.%.%.%.%.%.",
"%.%.%.%.%.%.%.%.%.%.%.%.%.%.%.%.%.%.o o o X X o @ , u k A U U U S D S S S S U U U A k u , @ O X X o O o %.%.%.%.%.%.%.%.%.%.%.%.%.%.%.%.%.%.",
"%.%.%.%.%.%.%.%.%.%.%.%.%.%.%.%.%.%.o O o o o o @ < w k A S U U S S S S S S S U S A n u , $ o o X o o o %.%.%.%.%.%.%.%.%.%.%.%.%.%.%.%.%.%.",
"%.%.%.%.%.%.%.%.%.%.%.%.%.%.%.%.%.%.%.%.%.%.%.%.%.%.%.%.%.%.%.%.%.%.%.%.%.%.%.%.%.%.%.%.%.%.%.%.%.%.%.%.%.%.%.%.%.%.%.%.%.%.%.%.%.%.%.%.%.%.",
"%.%.%.%.%.%.%.%.%.%.%.%.%.%.%.%.%.%.%.%.%.%.%.%.%.%.%.%.%.%.%.%.%.%.%.%.%.%.%.%.%.%.%.%.%.%.%.%.%.%.%.%.%.%.%.%.%.%.%.%.%.%.%.%.%.%.%.%.%.%.",
"%.%.%.%.%.%.%.%.%.%.%.%.%.%.%.%.%.%.%.%.%.%.%.%.%.%.%.%.%.%.%.%.%.%.%.%.%.%.%.%.%.%.%.%.%.%.%.%.%.%.%.%.%.%.%.%.%.%.%.%.%.%.%.%.%.%.%.%.%.%.",
"%.%.%.%.%.%.%.%.%.%.%.%.%.%.%.%.%.%.%.%.%.%.%.%.%.%.%.%.%.%.%.%.%.%.%.%.%.%.%.%.%.%.%.%.%.%.%.%.%.%.%.%.%.%.%.%.%.%.%.%.%.%.%.%.%.%.%.%.%.%.",
"%.%.%.%.%.%.%.%.%.%.%.%.%.%.%.%.%.%.%.%.%.%.%.%.%.%.%.%.%.%.%.%.%.%.%.%.%.%.%.%.%.%.%.%.%.%.%.%.%.%.%.%.%.%.%.%.%.%.%.%.%.%.%.%.%.%.%.%.%.%.",
"%.%.%.%.%.%.%.%.%.%.%.%.%.%.%.%.%.%.%.%.%.%.%.%.%.%.%.%.%.%.%.%.%.%.%.%.%.%.%.%.%.%.%.%.%.%.%.%.%.%.%.%.%.%.%.%.%.%.%.%.%.%.%.%.%.%.%.%.%.%.",
"%.%.%.%.%.%.%.%.%.%.%.%.%.%.%.%.%.%.%.%.%.%.%.%.%.%.%.%.%.%.%.%.%.%.%.%.%.%.%.%.%.%.%.%.%.%.%.%.%.%.%.%.%.%.%.%.%.%.%.%.%.%.%.%.%.%.%.%.%.%.",
"%.%.%.%.%.%.%.%.%.%.%.%.%.%.%.%.%.%.%.%.%.%.%.%.%.%.%.%.%.%.%.%.%.%.%.%.%.%.%.%.%.%.%.%.%.%.%.%.%.%.%.%.%.%.%.%.%.%.%.%.%.%.%.%.%.%.%.%.%.%.",
"%.%.%.%.%.%.%.%.%.%.%.%.%.%.%.%.%.%.%.%.%.%.%.%.%.%.%.%.%.%.%.%.%.%.%.%.%.%.%.%.%.%.%.%.%.%.%.%.%.%.%.%.%.%.%.%.%.%.%.%.%.%.%.%.%.%.%.%.%.%."
};
