/* XPM */
static char *result[] = {
/* columns rows colors chars-per-pixel */
"50 50 204 2 ",
"   c #32202C",
".  c #33212D",
"X  c #38232E",
"o  c #38232F",
"O  c #39232F",
"+  c #39242F",
"@  c #3A242F",
"#  c #382430",
"$  c #392430",
"%  c #392530",
"&  c #3A2430",
"*  c #3A2530",
"=  c #3B2530",
"-  c #3C2430",
";  c #3C2530",
":  c #3D2530",
">  c #3E2530",
",  c #3F2530",
"<  c #3F2630",
"1  c #3E2631",
"2  c #3F2631",
"3  c #42252F",
"4  c #412630",
"5  c #402631",
"6  c #412631",
"7  c #432630",
"8  c #422631",
"9  c #422732",
"0  c #462731",
"q  c #472731",
"w  c #482731",
"e  c #4A2730",
"r  c #462933",
"t  c #472A35",
"y  c #492831",
"u  c #4B2831",
"i  c #4D2830",
"p  c #4B2B35",
"a  c #502931",
"s  c #522931",
"d  c #552931",
"f  c #562931",
"g  c #552A31",
"h  c #562A31",
"j  c #572A31",
"k  c #502D36",
"l  c #532E37",
"z  c #592A31",
"x  c #5A2A31",
"c  c #5D2A30",
"v  c #5C2A31",
"b  c #5E2B31",
"n  c #5F2B32",
"m  c #522E38",
"M  c #542F38",
"N  c #583039",
"B  c #5A313A",
"V  c #5C323A",
"C  c #5D323A",
"Z  c #5D323B",
"A  c #602C32",
"S  c #6B2E32",
"D  c #6C2D31",
"F  c #6E2E32",
"G  c #6F2E32",
"H  c #702E31",
"J  c #752E31",
"K  c #742F32",
"L  c #772F32",
"P  c #7C2F31",
"I  c #63353E",
"U  c #6B343A",
"Y  c #68363E",
"T  c #733B42",
"R  c #893232",
"E  c #883333",
"W  c #8A3333",
"Q  c #8C3231",
"!  c #8C3433",
"~  c #893536",
"^  c #8F3635",
"/  c #903331",
"(  c #903533",
")  c #973432",
"_  c #983432",
"`  c #9A3532",
"'  c #9B3633",
"]  c #9B3634",
"[  c #9C3734",
"{  c #963C3C",
"}  c #A63834",
"|  c #AE3933",
" . c #AE3A34",
".. c #BA3B33",
"X. c #BB3C35",
"o. c #BD3D35",
"O. c #C03D35",
"+. c #C53E35",
"@. c #CB3F35",
"#. c #D03F34",
"$. c #D23F34",
"%. c #B2413D",
"&. c #BB413B",
"*. c #C14038",
"=. c #C7453E",
"-. c #D04035",
";. c #D24035",
":. c #D14036",
">. c #D24136",
",. c #DF4234",
"<. c #DE4336",
"1. c #DF4336",
"2. c #E04336",
"3. c #E74335",
"4. c #E74436",
"5. c #E84335",
"6. c #E94335",
"7. c #E94435",
"8. c #EB4435",
"9. c #E84436",
"0. c #E94536",
"q. c #E84537",
"w. c #E94537",
"e. c #EA4537",
"r. c #EF4535",
"t. c #ED4537",
"y. c #EE4637",
"u. c #E0463A",
"i. c #E1493E",
"p. c #E74B3F",
"a. c #E9483A",
"s. c #EA483B",
"d. c #F44737",
"f. c #F24D3F",
"g. c #824247",
"h. c #854348",
"j. c #884349",
"k. c #8E464B",
"l. c #93484D",
"z. c #95494D",
"x. c #9A4B4F",
"c. c #9C4C50",
"v. c #A04B4E",
"b. c #AF5457",
"n. c #BF5250",
"m. c #B55658",
"M. c #BE5A5B",
"N. c #D64F47",
"B. c #DA4D45",
"V. c #C85E5E",
"C. c #F44D40",
"Z. c #EF544A",
"A. c #F25549",
"S. c #F2554A",
"D. c #F7564B",
"F. c #F1594F",
"G. c #E05851",
"H. c #EC5C55",
"J. c #F55B51",
"K. c #FD5D52",
"L. c #FE5D52",
"P. c #CC605F",
"I. c #F7655D",
"U. c #F9655D",
"Y. c #F9665E",
"T. c #FC675F",
"R. c #D16261",
"E. c #D46362",
"W. c #D56564",
"Q. c #D86462",
"!. c #DC6665",
"~. c #DC6765",
"^. c #E06866",
"/. c #E56965",
"(. c #ED6D6B",
"). c #ED6E6B",
"_. c #F26A65",
"`. c #F86861",
"'. c #FB6A64",
"]. c #FE6C65",
"[. c #FD6C66",
"{. c #F4736F",
"}. c #F9726F",
"|. c #FA736F",
" X c #FB736F",
".X c #FD716C",
"XX c #FD716D",
"oX c #FE726E",
"OX c #FE736F",
"+X c #FA7470",
"@X c #FC7470",
"#X c #FE7470",
"$X c #FE7571",
"%X c #FF7572",
"&X c #FD7772",
"*X c #FF7672",
"=X c #FF7673",
"-X c #FF7773",
";X c #FF7774",
":X c #FF7874",
">X c #FF7974",
",X c #FF7A75",
"<X c #FF7B76",
"1X c None",
/* pixels */
"1X1X1X1X1X1X1X1X1X1X1X1X1X1X1X1X1X1X1X1X1X1X1X1X1X1X1X1X1X1X1X1X1X1X1X1X1X1X1X1X1X1X1X1X1X1X1X1X1X1X",
"1X1X1X1X1X1X1X1X1X1X1X1X1X1X1X1X1X1X1X1X1X1X1X1X1X1X1X1X1X1X1X1X1X1X1X1X1X1X1X1X1X1X1X1X1X1X1X1X1X1X",
"1X1X1X1X1X1X1X1X1X1X1X1X1X1X1X1X1X1X1X1X1X1X1X1X1X1X1X1X1X1X1X1X1X1X1X1X1X1X1X1X1X1X1X1X1X1X1X1X1X1X",
"1X1X1X1X1X1X1X1X1X1X1X1X1X1X1X1X1X1X1X1X1X1X1X1X1X1X1X1X1X1X1X1X1X1X1X1X1X1X1X1X1X1X1X1X1X1X1X1X1X1X",
"1X1X1X1X1X1X1X1X1X1X1X1X1X1X1X1X1X1X1X1X1X1X1X1X1X1X1X1X1X1X1X1X1X1X1X1X1X1X1X1X1X1X1X1X1X1X1X1X1X1X",
"1X1X1X1X1X1X1X1X1X1X1X1X1X1X1X1X1X1X1X1X1X1X1X1X1X1X1X1X1X1X1X1X1X1X1X1X1X1X1X1X1X1X1X1X1X1X1X1X1X1X",
"1X1X1X1X1X1X1X1X1X1X1X1X1X1X1X1X1X1X1X1X1X1X1X1X1X1X1X1X1X1X1X1X1X1X1X1X1X1X1X1X1X1X1X1X1X1X1X1X1X1X",
"1X1X1X1X1X1X1X1X1X1X1X1X1X1X1X1X1X1X1X1X1X1X1X1X1X1X1X1X1X1X1X1X1X1X1X1X1X1X1X1X1X1X1X1X1X1X1X1X1X1X",
"1X1X1X1X1X1X1X1X1X1X1X1X1X1X1X1X1X1X1X1X1X1X1X1X1X1X1X1X1X1X1X1X1X1X1X1X1X1X1X1X1X1X1X1X1X1X1X1X1X1X",
"1X1X1X1X1X1X1X1X1X1X1X1X1X1X2 2 2 2 2 2 2 2 2 2 2 2 2 2 2 2 2 2 2 2 2 2 1X1X1X1X1X1X1X1X1X1X1X1X1X1X",
"1X1X1X1X1X1X1X1X1X1X1X1X1X2 2 2 2 2 2 2 2 2 2 2 2 2 2 2 2 2 2 2 2 2 2 2 2 1X1X1X1X1X1X1X1X1X1X1X1X1X",
"1X1X1X1X1X1X1X1X1X1X1X1X2 2 > > : : : : : : > > 2 2 > > : : : : : : > > 2 2 1X1X1X1X1X1X1X1X1X1X1X1X",
"1X1X1X1X1X1X1X1X1X1X1X2 2 2 > - O X X X O @ : > 2 2 > : @ O X X X O - > 2 2 2 1X1X1X1X1X1X1X1X1X1X1X",
"1X1X1X1X1X1X1X1X1X1X2 2 2 2 > > : : : : : : > > 2 2 > > : : : : : : > > 2 2 2 2 1X1X1X1X1X1X1X1X1X1X",
"1X1X1X1X1X1X1X1X1X2 2 > : : 9 p M B C V N k r 2 - - 2 r k N V C B M p 9 : : > 2 2 1X1X1X1X1X1X1X1X1X",
"1X1X1X1X1X1X1X1X2 2 1 : + $ t I g.z.c.x.k.T l : . . : l T k.x.c.z.g.I t $ + : 1 2 2 1X1X1X1X1X1X1X1X",
"1X1X1X1X1X1X1X2 2 2 1 : o & m g.m.E.^.!.V.c.Y 9     9 Y c.V.!.^.E.m.g.m & o : 1 2 2 2 1X1X1X1X1X1X1X",
"1X1X1X1X1X1X2 2 > > 2 4 3 i U v.Q.|.:X*X(.M.h.Z p p Z h.M.(.*X:X|.Q.v.U i 3 4 2 > > 2 2 1X1X1X1X1X1X",
"1X1X1X1X1X1X2 2 > ; 2 e c L { n./.&X<X,X{.W.b.l.j.j.l.b.W.{.,X<X&X/.n.{ L c e 2 ; > 2 2 1X1X1X1X1X1X",
"1X1X1X1X1X1X2 2 : * 2 d P } =.G._.$X:X-X+X).~.R.P.P.R.~.).+X-X:X$X_.G.=.} P d 2 * : 2 2 1X1X1X1X1X1X",
"1X1X1X1X1X1X2 2 : $ 2 v / +.p.J.'.#X=X%X#X@X X}.}.}.}. X@X#X%X=X#X'.J.p.+./ v 2 $ : 2 2 1X1X1X1X1X1X",
"1X1X1X1X1X1X2 2 ; # 2 b _ ;.C.L.].$X;X=X*X-X:X:X>X>X:X:X-X*X=X;X$X].L.C.;._ b 2 # ; 2 2 1X1X1X1X1X1X",
"1X1X1X1X1X1X2 2 ; # 2 b ) -.f.K.[.$X:X-X*X-X-X-X:X:X-X-X-X*X-X:X$X[.K.f.-.) b 2 # ; 2 2 1X1X1X1X1X1X",
"1X1X1X1X1X1X2 2 : $ 2 x Q O.i.F.`..XOXoXXXXXXXXXXXXXXXXXXXXXoXOX.X`.F.i.O.Q x 2 $ : 2 2 1X1X1X1X1X1X",
"1X1X1X1X1X1X2 2 : = 2 s J ' &.N.H.U.T.Y.I.I.I.I.I.I.I.I.I.I.Y.T.U.H.N.&.' J s 2 = : 2 2 1X1X1X1X1X1X",
"1X1X1X1X1X1X2 2 > : 2 q f S ~ %.B.A.D.S.Z.Z.Z.Z.Z.Z.Z.Z.Z.Z.S.D.A.B.%.~ S f q 2 : > 2 2 1X1X1X1X1X1X",
"1X1X1X1X1X1X2 2 > > 2 < , 0 A ^ *.u.s.a.a.a.a.a.a.a.a.a.a.a.a.s.u.*.^ A 0 , < 2 > > 2 2 1X1X1X1X1X1X",
"1X1X1X1X1X1X1X2 2 2 1 : # % u H ` ..#.,.5.8.6.3.3.3.3.6.8.5.,.#...` H u % # : 1 2 2 2 1X1X1X1X1X1X1X",
"1X1X1X1X1X1X1X1X2 2 1 : * * 7 d D R | $.7.r.8.3.3.3.3.8.r.7.$.| R D d 7 * * : 1 2 2 1X1X1X1X1X1X1X1X",
"1X1X1X1X1X1X1X1X1X2 2 > > > 5 5 w n ! o.1.e.0.4.9.9.4.0.e.1.o.! n w 5 5 > > > 2 2 1X1X1X1X1X1X1X1X1X",
"1X1X1X1X1X1X1X1X1X1X2 2 2 2 : # $ y G ] o.>.2.q.t.t.q.2.>.o.] G y $ # : 2 2 2 2 1X1X1X1X1X1X1X1X1X1X",
"1X1X1X1X1X1X1X1X1X1X1X2 2 2 : * % 8 g G !  .:.w.d.d.w.:. .! G g 8 % * : 2 2 2 1X1X1X1X1X1X1X1X1X1X1X",
"1X1X1X1X1X1X1X1X1X1X1X1X2 2 > > > 5 8 y n W X.<.y.y.<.X.W n y 8 5 > > > 2 2 1X1X1X1X1X1X1X1X1X1X1X1X",
"1X1X1X1X1X1X1X1X1X1X1X1X1X2 2 2 2 > % $ w F [ o.@.@.o.[ F w $ % > 2 2 2 2 1X1X1X1X1X1X1X1X1X1X1X1X1X",
"1X1X1X1X1X1X1X1X1X1X1X1X1X1X2 2 2 > * # 6 j K E ( ( E K j 6 # * > 2 2 2 1X1X1X1X1X1X1X1X1X1X1X1X1X1X",
"1X1X1X1X1X1X1X1X1X1X1X1X1X1X1X2 2 > : : 5 q a h z z h a q 5 : : > 2 2 1X1X1X1X1X1X1X1X1X1X1X1X1X1X1X",
"1X1X1X1X1X1X1X1X1X1X1X1X1X1X1X1X2 2 2 2 > > : : : : : : > > 2 2 2 2 1X1X1X1X1X1X1X1X1X1X1X1X1X1X1X1X",
"1X1X1X1X1X1X1X1X1X1X1X1X1X1X1X1X1X2 2 2 > ; = % $ $ % = ; > 2 2 2 1X1X1X1X1X1X1X1X1X1X1X1X1X1X1X1X1X",
"1X1X1X1X1X1X1X1X1X1X1X1X1X1X1X1X1X1X2 2 > > > : : : : > > > 2 2 1X1X1X1X1X1X1X1X1X1X1X1X1X1X1X1X1X1X",
"1X1X1X1X1X1X1X1X1X1X1X1X1X1X1X1X1X1X1X2 2 2 2 2 2 2 2 2 2 2 2 1X1X1X1X1X1X1X1X1X1X1X1X1X1X1X1X1X1X1X",
"1X1X1X1X1X1X1X1X1X1X1X1X1X1X1X1X1X1X1X1X2 2 2 2 2 2 2 2 2 2 1X1X1X1X1X1X1X1X1X1X1X1X1X1X1X1X1X1X1X1X",
"1X1X1X1X1X1X1X1X1X1X1X1X1X1X1X1X1X1X1X1X1X1X1X1X1X1X1X1X1X1X1X1X1X1X1X1X1X1X1X1X1X1X1X1X1X1X1X1X1X1X",
"1X1X1X1X1X1X1X1X1X1X1X1X1X1X1X1X1X1X1X1X1X1X1X1X1X1X1X1X1X1X1X1X1X1X1X1X1X1X1X1X1X1X1X1X1X1X1X1X1X1X",
"1X1X1X1X1X1X1X1X1X1X1X1X1X1X1X1X1X1X1X1X1X1X1X1X1X1X1X1X1X1X1X1X1X1X1X1X1X1X1X1X1X1X1X1X1X1X1X1X1X1X",
"1X1X1X1X1X1X1X1X1X1X1X1X1X1X1X1X1X1X1X1X1X1X1X1X1X1X1X1X1X1X1X1X1X1X1X1X1X1X1X1X1X1X1X1X1X1X1X1X1X1X",
"1X1X1X1X1X1X1X1X1X1X1X1X1X1X1X1X1X1X1X1X1X1X1X1X1X1X1X1X1X1X1X1X1X1X1X1X1X1X1X1X1X1X1X1X1X1X1X1X1X1X",
"1X1X1X1X1X1X1X1X1X1X1X1X1X1X1X1X1X1X1X1X1X1X1X1X1X1X1X1X1X1X1X1X1X1X1X1X1X1X1X1X1X1X1X1X1X1X1X1X1X1X",
"1X1X1X1X1X1X1X1X1X1X1X1X1X1X1X1X1X1X1X1X1X1X1X1X1X1X1X1X1X1X1X1X1X1X1X1X1X1X1X1X1X1X1X1X1X1X1X1X1X1X",
"1X1X1X1X1X1X1X1X1X1X1X1X1X1X1X1X1X1X1X1X1X1X1X1X1X1X1X1X1X1X1X1X1X1X1X1X1X1X1X1X1X1X1X1X1X1X1X1X1X1X",
"1X1X1X1X1X1X1X1X1X1X1X1X1X1X1X1X1X1X1X1X1X1X1X1X1X1X1X1X1X1X1X1X1X1X1X1X1X1X1X1X1X1X1X1X1X1X1X1X1X1X"
};
