/* XPM */
static char *result[] = {
/* columns rows colors chars-per-pixel */
"60 60 183 2 ",
"   c #191E38",
".  c #131832",
"X  c #371B25",
"o  c #381D27",
"O  c #3A1E28",
"+  c #1E223C",
"@  c #3C222D",
"#  c #3F2631",
"$  c #3F2834",
"%  c #402732",
"&  c #412A35",
"*  c #442D39",
"=  c #45313E",
"-  c #48323E",
";  c #272C44",
":  c #2C314A",
">  c #31364D",
",  c #393E55",
"<  c #383F58",
"1  c #463544",
"2  c #493643",
"3  c #4C3946",
"4  c #4D3D4B",
"5  c #453A4B",
"6  c #503E4A",
"7  c #3E445C",
"8  c #4F404E",
"9  c #52414E",
"0  c #4C465A",
"q  c #47475D",
"w  c #544553",
"e  c #5B4A57",
"r  c #564A59",
"t  c #5B4D5A",
"y  c #61505C",
"u  c #4A4F65",
"i  c #444B63",
"p  c #534D61",
"a  c #495067",
"s  c #5D5465",
"d  c #53566C",
"f  c #5E5768",
"g  c #5F5A6C",
"h  c #575366",
"j  c #535771",
"k  c #555C73",
"l  c #5A5D73",
"z  c #645562",
"x  c #635B6C",
"c  c #645F71",
"v  c #56607A",
"b  c #5C637B",
"n  c #656173",
"m  c #6C6372",
"M  c #6A6779",
"N  c #6B6A7D",
"B  c #726977",
"V  c #756C7A",
"C  c #786F7C",
"Z  c #DF615A",
"A  c #DC6D68",
"S  c #D9726F",
"D  c #D67B7A",
"F  c #DB7875",
"G  c #566585",
"H  c #5B6784",
"J  c #5C6B8A",
"K  c #626A82",
"L  c #6D6E83",
"P  c #606F8D",
"I  c #686F88",
"U  c #6F7184",
"Y  c #62718F",
"T  c #6B748B",
"R  c #7D7684",
"E  c #7F7887",
"W  c #72768C",
"Q  c #73798D",
"!  c #7B7B8B",
"~  c #737384",
"^  c #667593",
"/  c #6A7996",
"(  c #6D7C99",
")  c #687793",
"_  c #757C91",
"`  c #797F94",
"'  c #707F9C",
"]  c #827B89",
"[  c #798096",
"{  c #72819D",
"}  c #7C859B",
"|  c #7E889F",
" . c #7585A1",
".. c #7C8AA4",
"X. c #7D8EA9",
"o. c #7987A2",
"O. c #7F90AB",
"+. c #86818F",
"@. c #818395",
"#. c #8A8594",
"$. c #8B8D9D",
"%. c #86899B",
"&. c #92909F",
"*. c #828DA4",
"=. c #8A92A6",
"-. c #8493AC",
";. c #8995AC",
":. c #9596A6",
">. c #969BAC",
",. c #9B9CAB",
"<. c #9598A7",
"1. c #8697B1",
"2. c #8897B1",
"3. c #8B9BB4",
"4. c #8D9FB8",
"5. c #8798B2",
"6. c #929FB5",
"7. c #9B9FB0",
"8. c #BB9DA8",
"9. c #8EA1BA",
"0. c #9BA1B3",
"q. c #94A3BB",
"w. c #9BA5BA",
"e. c #9BA5B7",
"r. c #A3A5B3",
"t. c #A4ABBC",
"y. c #ABAEBD",
"u. c #ADA7B8",
"i. c #BBACBA",
"p. c #D48788",
"a. c #D68E90",
"s. c #CC9296",
"d. c #CB9499",
"f. c #CD999F",
"g. c #D59699",
"h. c #D2989D",
"j. c #CE9FA5",
"k. c #C9ACB6",
"l. c #D1AAB1",
"z. c #CAB3BD",
"x. c #9CACC2",
"c. c #95A7C1",
"v. c #9EB1C8",
"b. c #A2AEC3",
"n. c #A3B1C6",
"m. c #ADB4C4",
"M. c #A4B4CA",
"N. c #ABB7CA",
"B. c #ADB9CD",
"V. c #B3BCCD",
"C. c #B9BFCF",
"Z. c #AEBCD0",
"A. c #B2BED2",
"S. c #BABFD0",
"D. c #C6B9C6",
"F. c #C9BECA",
"G. c #C6B7C4",
"H. c #BFC2CA",
"J. c #B4C1D4",
"K. c #B9C3D5",
"L. c #BBC6D8",
"P. c #BEC9DB",
"I. c #B1C5DA",
"U. c #BFCDE0",
"Y. c #BBD0E3",
"T. c #C5C1CF",
"R. c #C4C7D6",
"E. c #C1CCDC",
"W. c #CAC9D4",
"Q. c #C9D1DF",
"!. c #C3CFE0",
"~. c #C5D2E3",
"^. c #C9D4E4",
"/. c #CFD8E6",
"(. c #CBD9EA",
"). c #CBD7E8",
"_. c #D5DCE6",
"`. c #D3E0EC",
"'. c #DBE6F2",
"]. c #E2EAF2",
"[. c #EBF1F8",
"{. c #E4E7EB",
"}. c None",
/* pixels */
"}.}.}.}.}.}.}.}.}.}.}.}.}.}.}.% # % # # # # # # # # # # # % # # # # # # # # # # # # # # # }.}.}.}.}.}.}.}.}.}.}.}.}.}.}.",
"}.}.}.}.}.}.}.}.}.}.}.}.}.}.}.# # # % # # # # % # % # # # # % # # # # # # % % # % # # % # }.}.}.}.}.}.}.}.}.}.}.}.}.}.}.",
"}.}.}.}.}.}.}.}.}.}.}.}.}.}.}.# # # # # # # # # # # # # @ # # @ # # # # # # # # # # # # # }.}.}.}.}.}.}.}.}.}.}.}.}.}.}.",
"}.}.}.}.}.}.}.}.}.}.}.}.}.}.# # # # @ @ @ @ @ @ @ @ @ @ % % @ @ # # O @ O # O % # @ # @ # $ }.}.}.}.}.}.}.}.}.}.}.}.}.}.",
"}.}.}.}.}.# # % # # # # % % % % # @ # # @ # @ @ @ @ @ @ @ @ @ % @ @ @ O @ @ # @ @ # # # # # # # # # # # # # # }.}.}.}.}.",
"}.}.}.}.# # # # # # # # % @ @ @ # # $ $ $ $ & $ & & & & % & % % $ & & * & & $ $ # # # # # # # # # # # # % # # % }.}.}.}.",
"}.}.}.# # # # @ @ @ @ @ @ @ @ @ # # $ $ 1 5 4 8 4 4 4 1 1 1 1 1 2 3 4 4 4 4 1 1 * $ $ # @ # @ $ # @ # @ @ # # # # }.}.}.",
"}.# # # # # # @ @ O @ O @ @ @ O @ $ 1 5 0 0 h x c g h u 0 0 0 0 u h c x l h p 0 5 1 $ O O O O O @ O O @ @ # # # # # # }.",
"% # % # % O % % O O @ @ @ @ @ @ # * 5 q j b I _ _ W K b k j j k b I T _ _ I H d q 5 $ # @ @ @ @ @ @ @ @ % % % % % % % % ",
"# # @ # % % % & - - - - - - - * * 3 0 j G ^  .X.O...( J G G G G J / ..-... .^ H j 0 4 = * * - - 1 * - * * % % O % @ % @ ",
"# # # # % % - 6 e z z z z y t e r p l K ^  .X.5.5.O.{ ^ J G G J Y { O.1.5.X.{ ^ K l p r e t y z z x z e 6 - % % @ % % @ ",
"# # # @ % % 3 z C #.#.#.#.@.E ~ L L T _  .X.1.5.5.O.{ Y J G G G ^ { X.1.5.1.X. ._ T L V ~ E @.#.#.#.] C y 3 % % @ @ % % ",
"# # # @ @ & 9 B &.u.m.m.m.t.0.;.*...*.*.-.1.5.3.1.X.{ Y G G G J ^ ( X.1.3.3.1.-.*.....*.;.7.t.m.V.m.t.&.B w * O O @ # % ",
"# # @ @ @ & e ] 0.K.E.E.E.K.N.x.6.2.2.2.3.3.3.3.1.X.{ ^ Y J J Y ^  .X.1.3.3.3.3.3.5.2.6.x.M.K.R.E.Q.K.r.] e & O @ % # # ",
"# % # O O & t ] t.E.).(.^.P.J.v.c.4.3.3.3.3.3.5.1.X. .{ ( ( / ( {  .-.1.3.3.3.3.3.4.4.q.M.A.P.~./.).E.t.] e & % O @ % % ",
"# # @ @ @ * t ] u.P.).).~.P.J.n.q.4.3.3.3.3.3.5.1.1.O.X. . .o.o...X.-.1.1.3.3.3.3.3.4.q.M.A.U.~.).).R.t.] e * O O # % # ",
"# % @ @ @ & e ] r.K.~.~.P.K.B.x.9.3.3.3.3.3.3.3.3.3.3.-.-.-.-.-.-.1.3.3.3.3.3.3.3.3.3.4.b.B.L.E.~.~.K.r.E e & O @ @ # # ",
"% % @ @ @ & e R 0.B.L.P.L.J.n.q.2.-.2.3.4.q.q.q.q.q.9.3.3.3.3.4.4.4.q.q.q.q.q.q.3.2.-.2.q.n.Z.K.L.P.V.7.R e * @ @ # % # ",
"# # @ @ @ & w V <.n.Z.Z.B.n.q.-.....-.q.x.M.M.v.v.x.c.9.3.3.3.3.4.q.x.n.v.M.v.x.q.;...X.-.q.n.M.Z.Z.n.=.V w * @ @ @ % # ",
"% # @ @ @ & w M %.q.x.v.w.q.-. .'  .-.w.B.A.J.J.Z.M.c.9.3.1.1.3.9.x.M.B.J.J.A.B.w.-.{ ' o.-.q.x.x.x.w.%.M w & @ @ @ # # ",
"# % @ @ @ & 8 n } 3.q.q.9.1.X./ ^ ( -.x.A.R.R.R.S.m.x.w.3.4.1.4.q.b.N.C.L.R.R.A.x.-./ ^ / ..1.4.q.q.3.} n 8 & @ @ # # # ",
"# # # @ @ & 8 n _ 1.3.4.5.-.{ ) P / -.b.K.R.F.G.k.i.u.w.w.q.9.w.w.u.i.k.G.F.R.K.b.-./ Y ^  .-.3.9.4.-._ n 8 & @ @ # # # ",
"% # # @ @ & 9 c [ -.4.4.3.-. .^ J / -.n.K.F.l.g.a.s.8.y.n.M.M.M.y.8.s.a.g.l.F.J.b.-.^ Y ^  .1.3.4.3.-.[ n 8 & @ @ # # # ",
"# # @ @ @ * 4 n [ -.4.9.4.1. .^ P / -.v.S.z.g.F A D d.i.J.I.I.J.i.s.D A F g.z.K.M.-./ J ^  .1.5.4.4.-.} n 9 $ @ @ # # # ",
"# # # @ @ & 8 n [ 2.9.9.3.;. .^ Y / O.v.H.z.a.A Z S d.G.L.Y.Y.L.z.d.S Z A a.z.H.v.1./ Y /  .1.3.q.4.;.` n w * O @ # # # ",
"# % # @ @ & 6 n [ 3.9.9.3.-. .^ Y / -.v.J.z.h.D S D j.F.E.^.).E.F.j.p.S D g.z.V.x.-./ P ^  .-.3.9.9.2.` n 6 * @ @ # # # ",
"# % @ @ O * w n } 3.9.q.4.-. .) P / -.t.J.T.k.f.d.j.z.R.~.).).~.R.z.j.d.f.k.F.K.x.-./ P ^  .-.4.q.9.3.} c w $ O @ @ # # ",
"# # # @ @ * 4 c [ -.9.9.3.-. .) P / -.t.J.R.T.D.G.D.F.L.P.P.!.P.R.H.D.z.D.T.R.K.b.-./ J /  .1.3.4.9.2.} c 4 & # @ # # # ",
"# # % @ @ & 4 x W | ;.2.5.1.o./ ^ { -.x.K.U.Q.Q.Q.P.H.J.B.m.B.B.J.H.L.Q.~.^.!.K.b.;.( ^ / o.1.5.2.;...W x 4 * O @ # # # ",
"# % # @ # $ 1 r c U [ *.-.1.X. .{  .3.n.L.Q.`.'.`.E.M.>.=.*.%.=.6.N.E.`.'._.^.L.M.3.o.'  .X.1.-.*.` L c r 1 & # @ # # # ",
"% # # @ @ % * 2 w s M Q *.5.1.X.X.-.w.N.P./.'.[.{.E.e.[ b j k b [ 0.W.].[.'./.L.B.6.-.X.X.1.2.*._ M s w 2 * # # @ # # # ",
"# # @ # # % % & * 4 s U | 3.3.5.-.9.w.B.P._.{.[.{.H.$.d 7 : : 7 d $.T.{.[.]./.L.B.x.3.1.5.3.5.%.L s 4 * & # # # # # % # ",
"% # % # # @ # @ @ & r N } 3.3.3.3.q.n.Z.L.Q._._.W.r.C q + + + + 7 ~ r.W._._.Q.P.J.t.q.3.3.4.3.} N w * @ @ @ # # # # # # ",
"# # # # % # @ @ @ & w N ..3.9.9.4.q.M.A.L.K.C.y.&.[ h > + . . + 7 u ! <.y.H.H.K.J.v.q.4.4.9.3...M w $ @ @ @ # # # # # # ",
"}.}.}.# % @ @ @ @ & w N | 4.9.4.3.w.M.J.K.m.>.! n u 7 + + + + + + 7 u n [ <.M.H.J.v.e.4.3.4.4...M r * @ @ @ @ # # }.}.}.",
"}.}.}.}.% % @ @ @ * w M } -.3.3.3.q.M.J.K.t.} v 7 > > > : ; : : > + 7 7 v } t.J.J.v.q.3.3.3.;.} M w - @ @ @ # # }.}.}.}.",
"}.}.}.}.% # @ @ @ * 4 g U } ..-.3.q.M.J.J.t.| k 7 7 7 i a a i i u 7 7 7 k } t.I.I.v.q.3.O.| } ~ f 8 * @ @ @ # # }.}.}.}.",
"}.}.}.}.# # # @ @ & 2 w s M W | 3.c.M.L.K.n.-.T v v b T [ [ [ [ ~ b v v T O.m.J.J.J.w.3.| [ M s w 2 % @ @ # % # }.}.}.}.",
"}.}.}.}.% # # # # & & = 4 r n Q -.w.M.J.K.B.e.*.{ } =.>.e.e.t.e.e.O.| } X.e.J.K.J.J.e.O.[ n r 3 = * % # # # % # }.}.}.}.",
"}.}.}.}.# # @ # # # # @ & 3 t N } 6.n.A.K.J.M.q.6.q.v.J.J.K.P.J.J.t.q.4.e.v.J.J.J.w.3.} N t 2 $ # # # @ # # # # }.}.}.}.",
"}.}.}.}.}.# % # # # @ @ @ * 4 g L %.6.N.K.L.A.M.n.M.A.P.!.^.!.!.I.J.J.t.v.J.K.K.m.6.} C g w $ # @ @ @ # % # # }.}.}.}.}.",
"}.}.}.}.}.}.# # # @ @ @ @ # 1 4 s V =.u.K.P.L.A.Z.A.L.E.!.!.~.!.P.J.J.J.J.P.P.K.t.$.V s 8 $ $ # @ @ # # # # }.}.}.}.}.}.",
"}.}.}.}.}.}.}.# # # # @ # # % * 6 y ] 7.A.E.E.L.L.L.L.P.E.E.E.E.P.L.P.K.K.P.P.J.e.E z 3 $ $ $ # @ # # # % }.}.}.}.}.}.}.",
"}.}.}.}.}.}.}.}.% # # # # @ @ @ & 6 B :.V.L.U.P.P.P.E.P.E.E.E.E.P.P.P.P.P.Y.K.J.<.B 9 $ @ @ # @ # # # # }.}.}.}.}.}.}.}.",
"}.}.}.}.}.}.}.}.}.% # # # # @ o @ 3 c =.b.J.P.E.E.!.!.!.!.!.!.!.Q.Q.Y.E.P.K.J.t.$.m 3 # @ @ @ @ # % # }.}.}.}.}.}.}.}.}.",
"}.}.}.}.}.}.}.}.}.}.# # # # @ O # 3 x #.w.M.A.P.E.!.!.!.!.!.!.~.Y.Q.Q.E.I.J.J.6.} x 3 @ @ @ @ # # # }.}.}.}.}.}.}.}.}.}.",
"}.}.}.}.}.}.}.}.}.}.}.# # # @ @ $ 3 x _ 3.b.B.A.L.E.E.L.L.L.R.R.P.Q.P.P.J.J.t.;.[ z 3 $ @ @ # $ % }.}.}.}.}.}.}.}.}.}.}.",
"}.}.}.}.}.}.}.}.}.}.}.# # @ @ @ # 3 z Q -.q.n.A.A.S.N.m.m.y.y.m.y.y.J.J.J.M.q.X.[ s 3 # @ @ @ # # }.}.}.}.}.}.}.}.}.}.}.",
"}.}.}.}.}.}.}.}.}.}.}.# # # @ @ # 3 s W -.9.x.n.b.t.>.$.#.] ] #.$.>.e.n.M.v.9.-.W h 3 # @ @ @ % % }.}.}.}.}.}.}.}.}.}.}.",
"}.}.}.}.}.}.}.}.}.}.}.% # # @ @ % 3 f Q -.9.x.w.e.=.! m z y y z m [ =.e.w.c.9.-.Q g 3 % @ @ # # # }.}.}.}.}.}.}.}.}.}.}.",
"}.}.}.}.}.}.}.}.}.}.}.# # # @ @ % 3 f Q -.9.q.9.;._ x w 2 & & - 9 m [ ;.9.9.9.=.Q z 3 % @ @ # % # }.}.}.}.}.}.}.}.}.}.}.",
"}.}.}.}.}.}.}.}.}.}.}.# # # @ @ % 3 f Q *.4.9.9.-.Q s 2 % X o @ - f ~ -.9.9.9.-.W g 3 % @ @ @ % # }.}.}.}.}.}.}.}.}.}.}.",
"}.}.}.}.}.}.}.}.}.}.}.# # @ @ @ % 3 s Q -.9.9.3.*.W s 1 O X X O - s W *.5.9.5.-.Q g 3 # @ @ # # % }.}.}.}.}.}.}.}.}.}.}.",
"}.}.}.}.}.}.}.}.}.}.}.# # # @ @ % 2 x Q *.3.9.4.-.Q s 2 # o X # 3 f Q *.9.9.3.-.Q z 3 # @ @ # # # }.}.}.}.}.}.}.}.}.}.}.",
"}.}.}.}.}.}.}.}.}.}.}.# # # @ O % 3 x _ ;.9.c.9.;._ x 3 # O O $ 3 g ! 2.q.q.9.;._ x 3 % @ @ @ % # }.}.}.}.}.}.}.}.}.}.}.",
"}.}.}.}.}.}.}.}.}.}.}.# # # @ @ % 4 x @.q.v.v.x.6.@.x 4 # O O # 4 c [ 9.v.v.x.0.@.x 4 # @ @ # # # }.}.}.}.}.}.}.}.}.}.}.",
"}.}.}.}.}.}.}.}.}.}.}.# # # @ @ % 6 m $.b.B.J.Z.b.$.m 4 & X O % 9 m $.t.Z.J.Z.x.$.m 4 % @ @ @ # # }.}.}.}.}.}.}.}.}.}.}.",
"}.}.}.}.}.}.}.}.}.}.}.# # # @ O % 9 B :.N.L.!.L.N.:.B 9 # X X % 9 B <.m.P.P.P.N.:.B 9 & O @ @ # % }.}.}.}.}.}.}.}.}.}.}.",
"}.}.}.}.}.}.}.}.}.}.}.% # # @ O % 9 V ,.V.!.^.~.C.,.V 9 & X o # 9 V ,.V.~.^.~.V.,.V 9 % O @ @ % # }.}.}.}.}.}.}.}.}.}.}.",
"}.}.}.}.}.}.}.}.}.}.}.# # @ @ @ % 9 C ,.K.^.(.^.H.,.C 9 $ X X # 9 C >.H.~.(.^.K.,.C 9 % @ @ % % # }.}.}.}.}.}.}.}.}.}.}."
};
