/* XPM */
static char *result[] = {
/* columns rows colors chars-per-pixel */
"60 60 186 2 ",
"   c #361B25",
".  c #391E29",
"X  c #341721",
"o  c #3C222D",
"O  c #3F2631",
"+  c #3F2834",
"@  c #402732",
"#  c #412A35",
"$  c #442D39",
"%  c #46313D",
"&  c #48323E",
"*  c #2E344D",
"=  c #333A52",
"-  c #463442",
";  c #493542",
":  c #4D3946",
">  c #453A4B",
",  c #4D3C4A",
"<  c #513E4A",
"1  c #3C4159",
"2  c #4F404E",
"3  c #53414E",
"4  c #4C465A",
"5  c #46475E",
"6  c #544452",
"7  c #554857",
"8  c #5B4A56",
"9  c #574B5A",
"0  c #5A4E5D",
"q  c #584652",
"w  c #61515D",
"e  c #514C61",
"r  c #4E556D",
"t  c #575366",
"y  c #5B5363",
"u  c #5D5668",
"i  c #5E5A6D",
"p  c #52566F",
"a  c #535771",
"s  c #5C5E73",
"d  c #545A74",
"f  c #645663",
"g  c #625B6C",
"h  c #695D6B",
"j  c #675966",
"k  c #645F71",
"l  c #5B6277",
"z  c #5B617A",
"x  c #6B616F",
"c  c #656173",
"v  c #6D6473",
"b  c #69687B",
"n  c #696679",
"m  c #716673",
"M  c #766D7B",
"N  c #786F7C",
"B  c #726977",
"V  c #DF615A",
"C  c #DC6D68",
"Z  c #D9726F",
"A  c #D67A79",
"S  c #DA7775",
"D  c #566585",
"F  c #5B6784",
"G  c #5B6A89",
"H  c #646A82",
"J  c #6D6E82",
"K  c #616F8C",
"L  c #686F88",
"P  c #6F7084",
"I  c #61708F",
"U  c #707286",
"Y  c #7C7584",
"T  c #7F7886",
"R  c #71768C",
"E  c #75798E",
"W  c #7A7A8C",
"Q  c #657592",
"!  c #687691",
"~  c #6B7A97",
"^  c #6D7D99",
"/  c #757B91",
"(  c #797F94",
")  c #737F99",
"_  c #827C8A",
"`  c #807987",
"'  c #7A8096",
"]  c #71819D",
"[  c #7B8399",
"{  c #7E889F",
"}  c #7585A1",
"|  c #7B8AA4",
" . c #7D8EA9",
".. c #7887A2",
"X. c #7F90AB",
"o. c #86818F",
"O. c #818395",
"+. c #898493",
"@. c #82899D",
"#. c #8C8B9B",
"$. c #84879A",
"%. c #8C909E",
"&. c #92909F",
"*. c #928F9D",
"=. c #828DA4",
"-. c #868FA5",
";. c #8D92A3",
":. c #8493AC",
">. c #8996AD",
",. c #8B98AF",
"<. c #9494A4",
"1. c #949BAC",
"2. c #9B9DAC",
"3. c #9597A8",
"4. c #8697B1",
"5. c #8897B1",
"6. c #8B9BB4",
"7. c #8D9FB8",
"8. c #939FB5",
"9. c #9A9FB0",
"0. c #BB9DA8",
"q. c #9FA0AF",
"w. c #8FA1BA",
"e. c #9DA2B4",
"r. c #93A3BB",
"t. c #9BA5BB",
"y. c #9BA8BE",
"u. c #95A0B6",
"i. c #A2A5B5",
"p. c #A3AABB",
"a. c #ABADBD",
"s. c #ADA7B8",
"d. c #BBACBA",
"f. c #D38C8E",
"g. c #D68282",
"h. c #CC9296",
"j. c #CB9499",
"k. c #CD999F",
"l. c #D39599",
"z. c #CE9FA5",
"x. c #C8ACB6",
"c. c #D0A8B0",
"v. c #CAB3BD",
"b. c #C7B3BF",
"n. c #9DACC3",
"m. c #95A7C1",
"M. c #9EB1C8",
"N. c #A2AEC3",
"B. c #A3B1C6",
"V. c #ACB3C4",
"C. c #A3B4CB",
"Z. c #ABB7CA",
"A. c #ADBACE",
"S. c #B3BBCC",
"D. c #B0B7C7",
"F. c #AEBDD1",
"G. c #B2BED1",
"H. c #BABFD0",
"J. c #C5B5C2",
"K. c #C5B9C6",
"L. c #C5BECC",
"P. c #C8BDC9",
"I. c #B4C2D5",
"U. c #BAC4D5",
"Y. c #B3C4D9",
"T. c #BBC7D8",
"R. c #BECADB",
"E. c #BBD0E3",
"W. c #BFCDE0",
"Q. c #C2C3CD",
"!. c #C3C6D4",
"~. c #C1C9D5",
"^. c #C2CCDD",
"/. c #C4C6D6",
"(. c #C3CFE0",
"). c #C6D2E3",
"_. c #CCD6E4",
"`. c #CFD8E5",
"'. c #CDDBEB",
"]. c #D1DBE8",
"[. c #DCE3ED",
"{. c #D3E0EC",
"}. c #E6E9ED",
"|. c #E3EAF2",
" X c #EEF2F7",
".X c None",
/* pixels */
".X.X.X.X.X.X.X.X.X.X.X.X.X.X.XO @ O @ O O O O O O @ @ O O O O O O O O O # O O @ O @ O O O .X.X.X.X.X.X.X.X.X.X.X.X.X.X.X",
".X.X.X.X.X.X.X.X.X.X.X.X.X.X.XO O O O O @ O @ O O O O @ O @ O @ O O O O O O O O O O @ O @ .X.X.X.X.X.X.X.X.X.X.X.X.X.X.X",
".X.X.X.X.X.X.X.X.X.X.X.X.X.X.X@ O O O O O O O O O O o O o O O o O O O O O O o # O O o O O .X.X.X.X.X.X.X.X.X.X.X.X.X.X.X",
".X.X.X.X.X.X.X.X.X.X.X.X.X.XO O O O o o o o o o o o o o @ o @ o o o o o o o o o o o O O O @ .X.X.X.X.X.X.X.X.X.X.X.X.X.X",
".X.X.X.X.X.X.X.X.X.X.X.XO @ @ @ O o O O O o o o o o o o o o o o o o o o o o o o o # . @ @ @ @ @ .X.X.X.X.X.X.X.X.X.X.X.X",
".X.X.X.X.X.X.X.X.X.X.XO O O o @ O @ + + + + # # # # # + # # # # O # # # # # # # O O @ @ . @ o @ @ .X.X.X.X.X.X.X.X.X.X.X",
".X.X.X.X.X.X.X.X.X.X.XO O O o o O O + + - > > , , , , > - - - - > : , 2 , , > % % # @ @ @ @ o o O .X.X.X.X.X.X.X.X.X.X.X",
".X.X.X.X.X.X.X.X.X@ O O O O o o o + - > 4 e t g k i t e 5 4 4 4 e t i s i u e 4 > * @ @ . @ @ @ O O O .X.X.X.X.X.X.X.X.X",
".X.X.X.X.X.X.X.XO O O O @ O o o o $ > 4 a z P ~ / R L z d a a d z L R / ~ L z a 4 > + o o o O O @ O @ O .X.X.X.X.X.X.X.X",
".X.X.X.X.X.X.X.XO O O O o O @ # $ > 4 a F Q ]  .:.| ^ I D D D D G ~ | :.=.] Q F d 4 > $ # O O O O o O O .X.X.X.X.X.X.X.X",
".X.X.X.X.X.X.X.X@ o O o O # % : 6 t s H ! } X.4.4.X.] I G D D G I ] X.4.4. .} Q H s y 6 : % # O o O O O .X.X.X.X.X.X.X.X",
".X.X.X.X.X.X.X.XO O O o O $ , 0 c J R ] }  .4.6.4.X.] I G D D D Q ] X.6.6.4. .} ) / J c 0 , $ o o o O O .X.X.X.X.X.X.X.X",
".X.X.X.X.X.X.X.XO O o o o % 7 n E | =.:.:.4.4.6.4. .] I G D D G Q ^  .4.6.5.:.:.:.:.| / n 7 % O o O O O .X.X.X.X.X.X.X.X",
".X.X.X.X.X.X.X.XO O o o O - 0 U =.6.6.6.6.6.6.6.4. .] Q I G G I Q ]  .4.6.7.6.6.6.6.5.=.P 0 % O o o O @ .X.X.X.X.X.X.X.X",
".X.X.X.X.X.X.X.XO O o o O ; y U =.w.w.w.6.6.6.6.4.X...] ^ ~ ~ ~ ] ..:.:.6.6.6.6.7.w.7.=.U y ; O o o O O .X.X.X.X.X.X.X.X",
".X.X.X.X.X.X.X.XO O o o o - 0 U =.w.w.6.6.6.6.4.4.:.X. .........| X.:.6.4.6.5.6.7.7.7.:.U y % O o o o @ .X.X.X.X.X.X.X.X",
".X.X.X.X.X.X.X.XO O o o O - 0 P =.6.w.w.6.6.6.6.6.5.6.:.:.:.:.4.4.4.5.6.6.6.6.6.7.w.6.=.P 0 - O o o O O .X.X.X.X.X.X.X.X",
".X.X.X.X.X.X.X.XO o o o o - 0 P =.6.w.r.r.r.r.r.r.r.w.6.6.6.6.6.6.7.r.r.r.r.u.r.r.w.7.=.J y - o o o O O .X.X.X.X.X.X.X.X",
".X.X.X.X.X.X.X.XO O o o O % 0 P =.7.m.n.n.C.C.C.n.n.m.w.6.6.6.6.7.m.n.M.C.C.M.n.n.r.7.=.P 0 ; o . O O O .X.X.X.X.X.X.X.X",
".X.X.X.X.X.X.X.XO O o o O - 0 L =.w.n.Z.F.G.G.F.F.C.m.w.6.4.4.6.r.m.C.F.F.I.G.A.C.n.r.=.J 0 - O o o O O .X.X.X.X.X.X.X.X",
".X.X.X.X.X.X.XO O O o o O % 0 P =.r.C.F.I.R./.!.H.V.N.r.6.6.6.w.u.N.D.H.U./.U.U.G.C.r.=.P e - O . o @ O O .X.X.X.X.X.X.X",
".X.X.X.X.X.X.XO O O o o o % 0 P =.r.C.I.T.!.P.v.x.d.s.y.r.r.r.r.y.s.d.x.v.P./.R.I.C.r.=.J 0 % o . @ o @ O .X.X.X.X.X.X.X",
".X.X.X.X.X.XO O O O o o o % 0 b =.r.C.Y.~.P.c.l.f.h.0.a.Z.M.C.Z.s.0.h.f.l.c.P.T.I.C.m.=.J 7 % o . o O @ O @ .X.X.X.X.X.X",
".X.X.X.XO O O O O o o   O % 9 P =.r.C.Y.U.v.l.S C A j.d.S.Y.Y.I.d.j.A C S l.v.!.Y.M.r.=.J 0 % o . . O O O O @ O .X.X.X.X",
".X.X.X.X# O O O O O O + $ , t P X.r.M.I.U.v.f.C V Z l.b.T.E.E.R.v.l.Z V C f.x.U.Y.C.r.=.U t : $ # @ O O O O O O .X.X.X.X",
".X.X.XO O o O o o O $ & 2 0 n ' :.r.M.I.U.b.l.A Z g.z.P.^.).).^.Q.z.g.Z A l.v.U.Y.C.r.:.( c y 3 - $ O O o O O O O .X.X.X",
"O O O O O O o o o O & 7 c b ' { ,.r.B.I.U.Q.c.k.h.z.v./.).).'.).!.v.z.l.k.c.L.U.I.M.r.5.| / J g 7 : O . . o o O @ O O O ",
"# O O O O O o o o $ 2 c R { =.:.6.r.B.I.~.Q.Q.K.J.K.L.T.^.(.^.R.~.Q.K.b.K.Q.~.T.F.M.u.6.:.-.{ R g < # O o O O O O O O O ",
"O O O O O O @ # $ , y b { :.w.4.6.w.B.I.T.^.(.(.^.R.U.A.Z.D.Z.D.I.I.T.~.).(.^.U.S.B.r.6.6.6.6.{ J y , $ # O O O O O O O ",
"O O o O o # % ; 6 y n ' :.6.w.w.w.w.p.A.T.).].{.].R.a.1.-.{ { =.,.a.~.{.{.].).R.F.B.r.6.6.7.6.:.( b y 6 : $ @ o o O O O ",
"O # O o o O & 9 c P '  .>.w.w.6.w.t.M.I.R._.|.|.[.~.1.R l r r l R q.U.}.|.[.`.R.A.N.r.7.6.7.7.>.=.( U g 7 : # o o O O + ",
"O O O o o O 2 g R { :.4.,.,.6.,.,.w.y.A.R.`.|. X}.Q.%.s 1 * * 1 l %.Q.}. X|.`.R.A.n.r.6.4.6.6.5.6.:.=.R u , # o o O O O ",
"O O O o o # 3 c ' >.w.6.6.6.>.:.:.6.n.Z.R.`.}. X}.Q.<.l 5 = = 1 l %.Q.}. X|.`.T.A.y.6.:.:.4.4.6.7.7.4.[ k , # O o O O O ",
"O O O o o # 2 c [ 4.w.w.6.4.X.| ..:.8.Z.R._.[.}.]./.q.' H s l H ' e.Q.[.}.[.`.T.Z.u.:.| | :.6.6.w.r.6.[ c 6 # . o O O O ",
"O O o o o # 3 c ' 4.w.w.6.4. .] ^ ..5.B.U.).`.].`.~.V.t.1.>.;.1.e.D.~.`.].`.(.U.B.>...^ ]  .4.6.7.7.6.[ c 6 # o . O O O ",
"O O O o o # 2 c [ 4.w.w.w.:...~ Q ~ :.N.I.^.(.^.~.R.U.U.I.G.G.I.I.U.R.^.(.(.^.U.N.:.^ I ~ ..4.6.r.7.:.( c , # O O O O O ",
"O O o o o # 3 n @.u.m.r.6.:.} Q K ~ :.N.U.R.R.I.I.I.R.R.^.(.^.^.R.R.I.I.I.U.R.I.N.:.~ I Q } :.6.7.7.:.[ k 6 # o . O O O ",
"# O o o o # 7 M ;.n.B.n.w.X.} Q I ~ :.N.I.U.G.C.B.A.I.R.(.).).(.R.I.Z.C.Z.I.R.I.N.:.~ I Q ..:.6.7.7.:.( k < # o o O O O ",
"O O o o o # 8 Y 9.Z.F.M.w.>.} Q K ~ :.N.I.U.A.n.y.N.A.R.^.(.(.^.U.A.M.y.M.A.I.I.N.:.^ I Q } 4.6.r.7.:.) k , # o o O O O ",
"O O O o o # 8 ` i.I.I.A.r.4...Q G ! :.N.H.I.A.n.r.n.Z.I.~.(.^.^.I.A.y.t.y.Z.I.U.N.=.! G Q ..4.w.r.r.5.[ c 6 # o o O O O ",
"@ @ @ . @ $ 8 _ p.T.R.Y.C.w.{ P z b { y.U.U.G.N.n.B.A.U.R.^.^.^.U.A.B.n.N.F.U.U.p.[ H z P ..8.n.M.M.u.=.n 6 # o o O O O ",
"@ @ @ . . $ 8 _ s.R.).W.I.B.=.b t g W e.H.R.Y.F.Z.A.I.T.R.^.^.R.R.I.A.A.F.T.R.U.t.W u y b @.t.Z.F.F.B.3.M q $ . o o O # ",
"@ @ @   @ @ 8 ` i.R.).).T.V.#.c 6 7 M 2.G.^.R.T.I.U.T.R.R.^.^.R.R.T.Y.U.T.R.R.G.2.M 7 6 c #.V.I.W.R.S.9.Y 8 $ o o o O O ",
"@ o @ . @ # q N 3.a.S.U.A.i.o.w : 3 v 3.D.R.(.R.R.R.^.R.^.R.R.R.R.R.T.T.T.R.T.S.<.m 3 : h #.D.^._.).U.i.Y 8 $ . o o O O ",
"@ @ o . . @ < j ` *.&.<.&.+.m q & : h #.N.I.R.R.^.^.(.(.^.).^.^.R.T.I.F.G.F.F.N.#.h : : j &.S._.'.'.^.p.` w # . o o O O ",
"@ o @ @ o @ & q w x m m x j 8 & $ : g O.t.C.I.T.^.).^.).(.).).).R.G.A.n.n.n.n.u._ j : : h &.S.).'.'.R.a._ 8 $ o . o O # ",
"o @ o o @ @ # # & : & < & & & @ + : g W 5.N.A.I.R.^.R.R.R.R.~.R.U.Z.n.u.r.r.t.5./ y : : h #.D.~._.(.U.i.` 8 # o o O O O ",
"@ @ @ @ @ @ @ @ @ @ @ @ @ @ o @ O : u R >.r.C.S.G.G.D.V.a.V.a.a.N.y.t.r.r.m.r.5./ f : : w ` q.V.D.D.i.*.M 3 # o o o O O ",
"@ o @ @ O O o o o o . . . o . . O : u E :.r.n.B.B.p.1.*.+.o.o.+.#.3.e.n.N.C.C.t.O.g : & 3 x ` +.#.+.o.N w : # @ o O O O ",
".X.X.X@ O o O O o o o o o o . . O : u E :.7.m.m.u.;.W x f w w f B _ 9.V.G.Y.G.N.*.m < $ & 3 w w j j w 8 3 & @ @ O o O O ",
".X.X.X.XO O O O o O o O o O o o + > f E :.w.r.w.>.' c 6 & # # & 8 Y 2.S.W.).^.S.3.M 3 # @ @ $ & & & $ # # @ @ o O O @ O ",
".X.X.X.XO O O O # O O O O O o o O : u E :.7.w.7.=.R u ; o     o < M 2.G.).'.).H.2.M 3 # . . @ o @ o @ o o @ o @ O O O O ",
".X.X.X.X.X.XO .X.XO O O O o o o @ : u R =.6.7.6.=.E t ; o X X o < M 2.U.'.'.'.T.q.N 3 #   . o o . . o o o @ o @ O O @ .X",
".X.X.X.X.X.X.X.X.X.X.X# O o o o @ > f E :.7.w.7.=.R u ; o     o < N 2.H.).'.).U.2.N 3 # . . o o o o o o @ o o @ O .X.X.X",
".X.X.X.X.X.X.X.X.X.X.XO O O o . @ : g / >.r.m.w.>.W g : O . . @ < B <.V.U.^.U.V.&.m 3 O o o o @ o # # @ o @ @ @ .X.X.X.X",
".X.X.X.X.X.X.X.X.X.X.XO O O o o @ , h [ 8.M.M.n.8.O.c , o . . @ : j Y &.2.9.2.&.T f : O o o o @ # o o @ @ # o .X.X.X.X.X",
".X.X.X.X.X.X.X.X.X.X.XO O O o o @ < v #.N.A.I.F.N.#.v < @ . . @ & 3 j m N N M m j 3 & @ o o @ @ o O .X.X.X.X.X.X.X.X.X.X",
".X.X.X.X.X.X.X.X.X.X.XO O O o . # < B 3.Z.R.W.T.Z.<.B 3 # . o o @ & : < 3 3 3 < : & @ @ o @ o @ # .X.X.X.X.X.X.X.X.X.X.X",
".X.X.X.X.X.X.X.X.X.X.X@ O O o . @ 3 M 2.S.(._.(.S.2.M 3 @ . . @ @ @ @ @ @ @ @ @ @ @ @ @ o o @ @ O .X.X.X.X.X.X.X.X.X.X.X",
".X.X.X.X.X.X.X.X.X.X.XO O o o o @ 3 M 2.U.).'.).U.2.M 3 @ . o @ o @ .   .       . . o @ @ @ @ @ @ .X.X.X.X.X.X.X.X.X.X.X"
};
