/* XPM */
static char *result[] = {
/* columns rows colors chars-per-pixel */
"60 60 186 2 ",
"   c #361B25",
".  c #391E29",
"X  c #341721",
"o  c #3C222D",
"O  c #3F2631",
"+  c #3F2834",
"@  c #402732",
"#  c #412A35",
"$  c #442D39",
"%  c #46313D",
"&  c #48323E",
"*  c #2E344D",
"=  c #333A52",
"-  c #463442",
";  c #493542",
":  c #4D3946",
">  c #453A4B",
",  c #4D3C4A",
"<  c #513E4A",
"1  c #3C4159",
"2  c #4F404E",
"3  c #53414E",
"4  c #4C465A",
"5  c #46475E",
"6  c #544452",
"7  c #554857",
"8  c #5B4A56",
"9  c #574B5A",
"0  c #5A4E5D",
"q  c #584652",
"w  c #61515D",
"e  c #514C61",
"r  c #4E556D",
"t  c #575366",
"y  c #5B5363",
"u  c #5D5668",
"i  c #5E5A6D",
"p  c #52566F",
"a  c #535771",
"s  c #5C5E73",
"d  c #545A74",
"f  c #645663",
"g  c #625B6C",
"h  c #695D6B",
"j  c #675966",
"k  c #645F71",
"l  c #5B6277",
"z  c #5B617A",
"x  c #6B616F",
"c  c #656173",
"v  c #6D6473",
"b  c #69687B",
"n  c #696679",
"m  c #716673",
"M  c #766D7B",
"N  c #786F7C",
"B  c #726977",
"V  c #DF615A",
"C  c #DC6D68",
"Z  c #D9726F",
"A  c #D67A79",
"S  c #DA7775",
"D  c #566585",
"F  c #5B6784",
"G  c #5B6A89",
"H  c #646A82",
"J  c #6D6E82",
"K  c #616F8C",
"L  c #686F88",
"P  c #6F7084",
"I  c #61708F",
"U  c #707286",
"Y  c #7C7584",
"T  c #7F7886",
"R  c #71768C",
"E  c #75798E",
"W  c #7A7A8C",
"Q  c #657592",
"!  c #687691",
"~  c #6B7A97",
"^  c #6D7D99",
"/  c #757B91",
"(  c #797F94",
")  c #737F99",
"_  c #827C8A",
"`  c #807987",
"'  c #7A8096",
"]  c #71819D",
"[  c #7B8399",
"{  c #7E889F",
"}  c #7585A1",
"|  c #7B8AA4",
" . c #7D8EA9",
".. c #7887A2",
"X. c #7F90AB",
"o. c #86818F",
"O. c #818395",
"+. c #898493",
"@. c #82899D",
"#. c #8C8B9B",
"$. c #84879A",
"%. c #8C909E",
"&. c #92909F",
"*. c #928F9D",
"=. c #828DA4",
"-. c #868FA5",
";. c #8D92A3",
":. c #8493AC",
">. c #8996AD",
",. c #8B98AF",
"<. c #9494A4",
"1. c #949BAC",
"2. c #9B9DAC",
"3. c #9597A8",
"4. c #8697B1",
"5. c #8897B1",
"6. c #8B9BB4",
"7. c #8D9FB8",
"8. c #939FB5",
"9. c #9A9FB0",
"0. c #BB9DA8",
"q. c #9FA0AF",
"w. c #8FA1BA",
"e. c #9DA2B4",
"r. c #93A3BB",
"t. c #9BA5BB",
"y. c #9BA8BE",
"u. c #95A0B6",
"i. c #A2A5B5",
"p. c #A3AABB",
"a. c #ABADBD",
"s. c #ADA7B8",
"d. c #BBACBA",
"f. c #D38C8E",
"g. c #D68282",
"h. c #CC9296",
"j. c #CB9499",
"k. c #CD999F",
"l. c #D39599",
"z. c #CE9FA5",
"x. c #C8ACB6",
"c. c #D0A8B0",
"v. c #CAB3BD",
"b. c #C7B3BF",
"n. c #9DACC3",
"m. c #95A7C1",
"M. c #9EB1C8",
"N. c #A2AEC3",
"B. c #A3B1C6",
"V. c #ACB3C4",
"C. c #A3B4CB",
"Z. c #ABB7CA",
"A. c #ADBACE",
"S. c #B3BBCC",
"D. c #B0B7C7",
"F. c #AEBDD1",
"G. c #B2BED1",
"H. c #BABFD0",
"J. c #C5B5C2",
"K. c #C5B9C6",
"L. c #C5BECC",
"P. c #C8BDC9",
"I. c #B4C2D5",
"U. c #BAC4D5",
"Y. c #B3C4D9",
"T. c #BBC7D8",
"R. c #BECADB",
"E. c #BBD0E3",
"W. c #BFCDE0",
"Q. c #C2C3CD",
"!. c #C3C6D4",
"~. c #C1C9D5",
"^. c #C2CCDD",
"/. c #C4C6D6",
"(. c #C3CFE0",
"). c #C6D2E3",
"_. c #CCD6E4",
"`. c #CFD8E5",
"'. c #CDDBEB",
"]. c #D1DBE8",
"[. c #DCE3ED",
"{. c #D3E0EC",
"}. c #E6E9ED",
"|. c #E3EAF2",
" X c #EEF2F7",
".X c None",
/* pixels */
".X.X.X.X.X.X.X.X.X.X.X.X.X.X.XO @ O @ O O O O O O @ @ O O O O O @ @ o @ o @ o @ @ o # o @ .X.X.X.X.X.X.X.X.X.X.X.X.X.X.X",
".X.X.X.X.X.X.X.X.X.X.X.X.X.X.XO O O O O @ O @ O O O O @ O @ O @ o @ @ @ o @ @ @ O @ o # O .X.X.X.X.X.X.X.X.X.X.X.X.X.X.X",
".X.X.X.X.X.X.X.X.X.X.X.X.X.X.X@ O O O O O O O O O O o O o O O o @ @ o @ @ o @ @ o # @ o O .X.X.X.X.X.X.X.X.X.X.X.X.X.X.X",
".X.X.X.X.X.X.X.X.X.X.X.X.X.XO O O O o o o o o o o o o o @ o @ o o o o o o o o o o o O O O O .X.X.X.X.X.X.X.X.X.X.X.X.X.X",
".X.X.X.X.X.X.X.X.X.X.X.XO @ @ @ O o O O O o o o o o o o o o o o o @ . o o o O o O o O O O O O O .X.X.X.X.X.X.X.X.X.X.X.X",
".X.X.X.X.X.X.X.X.X.X.XO O O o @ O @ + + + + # # # # # + # # # # # # # # # # + O # # O O O O O O O .X.X.X.X.X.X.X.X.X.X.X",
".X.X.X.X.X.X.X.X.X.X.XO O O o o O O + + - > > , , , , > - - - - > > , , , , > - % + + O O o O O O .X.X.X.X.X.X.X.X.X.X.X",
".X.X.X.X.X.X.X.X.X@ O O O O o o o + - > 4 e t g k i t e 5 4 4 4 e t i k s t e 4 > + + O o o O O O @ O .X.X.X.X.X.X.X.X.X",
".X.X.X.X.X.X.X.XO O O O @ O o o o $ > 4 a z P ~ / R L z d a a d z H R / ~ L z a 4 > + o o o o @ O O O O .X.X.X.X.X.X.X.X",
".X.X.X.X.X.X.X.XO O O O o O @ # $ > 4 a F Q ]  .:.| ^ I D D D D G ^  .-.-.] ! D d 4 > $ # @ @ @ O O O O .X.X.X.X.X.X.X.X",
".X.X.X.X.X.X.X.X@ o O o O # % : 6 t s H ! } X.4.4.X.] I G D D G Q ^ X.4.4. .] ~ H s y 6 : % # o O O O O .X.X.X.X.X.X.X.X",
".X.X.X.X.X.X.X.XO O O o O $ , 0 c J R ] }  .4.6.4.X.] I G D D D Q ]  .6.6.4. .} ) / J c 0 , $ O o o O O .X.X.X.X.X.X.X.X",
".X.X.X.X.X.X.X.XO O o o o % 7 n E | =.:.:.4.4.6.4. .] I G D D G Q ^  .4.6.4.:.:.-. .| / n 7 $ o o o O O .X.X.X.X.X.X.X.X",
".X.X.X.X.X.X.X.XO O o o O - 0 U =.6.6.6.6.6.6.6.4. .] Q I G G I ! ]  .4.6.6.6.6.6.7.6.=.J 0 - @ o o O O .X.X.X.X.X.X.X.X",
".X.X.X.X.X.X.X.XO O o o O ; y U =.w.w.w.6.6.6.6.4.X...] ^ ~ ~ ~ ^ ..X.4.6.6.6.6.7.w.7.-.U y & O o o O O .X.X.X.X.X.X.X.X",
".X.X.X.X.X.X.X.XO O o o o - 0 U =.w.w.6.6.6.6.4.4.:.X. ......... . .4.6.4.6.6.6.7.7.7.=.U y - O o o O O .X.X.X.X.X.X.X.X",
".X.X.X.X.X.X.X.XO O o o O - 0 P =.6.w.w.6.6.6.6.6.5.6.:.:.:.:.4.4.5.5.6.6.6.6.6.7.7.6.-.P y % O o o O O .X.X.X.X.X.X.X.X",
".X.X.X.X.X.X.X.XO o o o o - 0 P =.6.w.r.r.r.r.r.r.r.w.6.6.6.6.6.6.7.8.r.r.r.r.u.r.r.6. .J 0 - o o o O O .X.X.X.X.X.X.X.X",
".X.X.X.X.X.X.X.XO O o o O % 0 P =.7.m.n.n.C.C.C.n.n.m.w.6.6.6.6.7.m.n.M.C.C.C.n.n.m.7.=.U y % O o o O O .X.X.X.X.X.X.X.X",
".X.X.X.X.X.X.X.XO O o o O - 0 L =.w.n.Z.F.G.G.F.F.C.m.w.6.4.4.6.7.n.C.F.Y.F.F.A.C.n.8.=.J 0 - O o o O O .X.X.X.X.X.X.X.X",
".X.X.X.X.X.X.XO O O o o O % 0 P =.r.C.F.I.R./.!.H.V.N.r.6.6.6.w.8.N.Z.H.U.~.~.U.G.C.w.-.L 0 - o . o @ @ @ .X.X.X.X.X.X.X",
".X.X.X.X.X.X.XO O O o o o % 0 P =.r.C.I.T.!.P.v.x.d.s.y.r.r.r.r.t.s.d.x.J.P./.T.G.C.r.-.J 0 - o . o o @ O .X.X.X.X.X.X.X",
".X.X.X.X.X.XO O O O o o o % 0 b =.r.C.Y.~.P.c.l.f.h.0.a.Z.M.C.Z.s.z.f.f.l.c.P.U.Y.C.r.=.J 9 $ . . o O @ O O .X.X.X.X.X.X",
".X.X.X.XO O O O O o o   O % 9 P =.r.C.Y.U.v.l.S C A j.d.S.Y.Y.I.V.j.A C S l.v.!.Y.C.r.-.J 9 - o . o O O @ O O O .X.X.X.X",
".X.X.X.X# O O O O O O + $ , t P X.r.M.I.U.v.f.C V Z l.b.T.E.E.R.v.l.Z V C f.x.U.Y.C.r.=.U y > $ @ @ O O O O O O .X.X.X.X",
".X.X.XO O o O o o O $ & 2 0 n ' :.r.M.I.U.b.l.A Z g.z.P.^.).).^.Q.z.g.Z A l.v.U.Y.C.r.:.( n y 3 ; # O o o o O O O .X.X.X",
"O O O O O O o o o O & 7 c b ' { ,.r.B.I.U.Q.c.k.h.z.v./.).).'.).!.v.z.h.k.c.L.T.I.M.r.>.{ E b k 7 - O o o o O O # O O O ",
"# O O O O O o o o $ 2 c R { =.:.6.r.B.I.~.Q.Q.K.J.K.L.T.^.(.^.R.~.Q.K.b.K.Q./.T.F.M.u.6.:.:.{ R g 6 $ o o o O O O O O O ",
"O O O O O O @ # $ , y b { :.w.4.6.w.B.I.T.^.(.(.^.R.U.A.Z.D.Z.D.I.I.T.~.).^.^.R.S.n.r.6.6.6.4.{ b y > $ # @ O o O O O O ",
"O O o O o # % ; 6 y n ' :.6.w.w.w.w.p.A.T.).].{.].R.a.1.-.{ { =.1.p.R.{.{.].).R.F.B.r.7.6.w.w.:.' b y 6 ; % # o o O O O ",
"O # O o o O & 9 c P '  .>.w.w.6.w.t.M.I.R._.|.|.[.~.1.R l r r l R q.T.}.}.[.).R.S.B.r.7.6.6.6.>.-.[ P k 9 ; # o o O # O ",
"O O O o o O 2 g R { :.4.,.,.6.,.,.w.y.A.R.`.|. X}.Q.%.s 1 * * 1 l %.Q.}. X|.`.R.A.N.w.6.6.6.6.6.,.:.@.R g , # o o O O O ",
"O O O o o # 2 c [ >.w.7.6.6.:.:.4.6.m.A.T.`.|. X}.Q.&.c 5 1 = 1 l %.~.}. X}.`.R.A.y.6.:.:.>.4.6.w.6.>.' c 2 # o o O O O ",
"O O O o o # 2 c [ 6.w.w.6.6.X.| | -.8.Z.T._.[.|.].!.q.' z l l F ' e.~.[.}.[._.T.Z.w.X... .X.6.6.w.w.4.[ c 2 + o o O O O ",
"O O o o o # 2 c [ 6.w.7.6.4. .] ^ } 6.N.U.(.`.].`.~.D.t.3.;.3.3.e.D.~.`.{.`.).U.B.,...] ]  .4.6.w.w.>.[ c 2 # o o O O O ",
"O O O o o # 2 c ' :.w.w.6.:...~ Q ^ :.N.U.(.(.^.~.R.U.I.I.A.I.I.I.U.R.~.^.^.^.U.p.>.^ I ! ..4.6.w.w.>.[ c 2 $ o o O O O ",
"O O O o o # 2 c [ 4.w.6.6.:...~ G ^ :.N.I.R.T.U.I.I.T.R.(.(.(.(.^.T.U.I.I.T.R.I.B.:.! I Q } :.w.r.r.w.$.n 3 # o o o O O ",
"# O o o o # 2 c ' :.6.w.6.:.} Q I ^ :.n.I.T.I.C.Z.Z.I.^.(.).).^.R.I.A.C.C.I.U.I.N.:.~ I ~ ] X.w.n.M.p.>.N q # o o o O O ",
"O O O o o + 2 c ( :.w.w.6.:...Q G ^ :.N.I.U.Z.n.y.n.A.T.^.(.(.^.U.I.y.y.y.I.I.I.B.:.~ I ~ ..:.r.M.A.Z.q.Y q # o o o O O ",
"O O O o o # 3 c [ 6.w.r.w.4.} ~ L ! -.N.I.I.Z.n.r.n.Z.I.^.^.^.^.U.Z.y.r.y.A.I.I.p.=.! G I ] 6.r.Z.I.I.i.T 8 # o o o O O ",
"O O o o o # q n @.r.n.M.n.8...L l H $.p.I.U.F.B.y.B.A.U.R.^.^.^.Y.Z.C.n.N.F.U.I.p.{ b z L | u.C.I.R.T.p._ 8 $ o o o O O ",
"O @ @ . o # q M <.B.F.I.Z.y.$.b t i W e.I.R.T.F.A.A.I.T.R.^.^.R.T.H.A.Z.F.U.R.I.e.W i t b =.N.I.).).R.a._ w # o o o @ @ ",
"@ O @ o o # 8 Y q.S.R.E.U.V.#.h 6 9 M 2.I.^.R.T.T.U.T.R.R.^.^.R.R.T.T.I.T.R.^.H.2.M 9 6 h ;.V.T.(.(.U.s.T 8 $ o o o O O ",
"O O o . o $ 8 ` i.U.).).^.Z.#.h : 3 v <.D.R.R.T.T.T.R.R.^.R.R.R.^.^.R.R.R.(.T.S.<.v 3 : f _ i.D.U.U.a.<.N q # o o o O @ ",
"@ @ o o . $ 8 _ p.R.'.'.).S.&.h : : x $.B.A.I.I.A.I.T.R.(.(.(.(.(.(.^.^.R.R.I.N.*.h : & 6 m +.&.3.<.*.` j < # o o O O O ",
"o @ o . o $ 8 _ a.R.'.{.).S.&.h : : f o.u.n.n.n.n.Z.I.R.).).).(.(.(.(.^.R.G.C.t.O.j : $ ; 8 j x m x h w 3 & # o o O O O ",
"O O O o o # 8 T i.I.(.).~.D.*.j : : u W >.r.r.r.r.y.Z.I.R.R.R.R.R.~.^.R.I.A.n.6.W u : @ @ $ : : : : : & % $ O O O O O O ",
"@ O o o o # 6 B *.s.D.D.V.q._ w : : u E ,.r.r.r.r.y.y.a.a.a.a.a.V.Z.G.H.A.C.t.:.E u : @ o . @ @ @ o @ o @ o O O O O O O ",
"O O O o o # : f N o.+.#.+.T h 3 & < h O.u.M.C.N.y.e.3.#.+.o.o.+.#.2.y.B.C.N.r.-.R u : O o . o . . . o o o o O O @ O O O ",
"@ O O o O O % < 8 f j j f w 3 & $ < m &.V.I.Y.I.V.q.O.v f w w f v W ;.u.m.m.7.:.R u : O . o o o o o o o o O O O O .X.X.X",
"O @ o O o # # $ $ % - % % % # o # 3 B <.S.(.).R.D.2.N 8 & # # & q k ( >.7.r.7.:.E i : # o o o o O O o O O O O O .X.X.X.X",
"O O @ O @ o o o o o o o o o . . @ 3 N 2.I.).'.).U.2.N < o     o - y E -.7.r.7.:.R u : O o o o @ O O @ O O O O O .X.X.X.X",
".XO O @ @ O o o o o . . o . .   @ q N q.U.'.'.'.U.q.N < o X X o - t R -.6.7.6. .R i : O o o O O O O O .X.XO .X.X.X.X.X.X",
".X.X.XO @ o O O o O o o o o o . @ < N 2.U.).'.).U.2.B 3 o X . o ; u R -.6.m.6.:.E f : O o o O O @ .X.X.X.X.X.X.X.X.X.X.X",
".X.X.X.XO @ O @ O O O O O o o o @ < m <.V.U.R.U.V.&.m 3 # . . o : g / 5.r.m.w.5./ g : @ o o O O O .X.X.X.X.X.X.X.X.X.X.X",
".X.X.X.X.XO O O O O O O O O o o @ : j ` &.2.9.2.&.` f : O . . @ : k O.8.n.C.n.8.[ h , o o o O O O .X.X.X.X.X.X.X.X.X.X.X",
".X.X.X.X.X.X.X.X.X.XO @ O O o o @ $ 3 f m N N N m w q & o . o @ < v ;.N.F.Y.F.N.#.v < @ o o o O O .X.X.X.X.X.X.X.X.X.X.X",
".X.X.X.X.X.X.X.X.X.X.XO O O O O @ $ & : < 3 3 3 < : & # @ . . @ < B <.V.R.W.Y.Z.<.B 3 @ . o O O @ .X.X.X.X.X.X.X.X.X.X.X",
".X.X.X.X.X.X.X.X.X.X.XO O O o O @ @ @ @ @ # @ @ @ @ @ @ o o . @ < M 2.S.(._.(.S.2.M 3 @ . o o @ O .X.X.X.X.X.X.X.X.X.X.X",
".X.X.X.X.X.X.X.X.X.X.XO O O @ @ . @ @ . .       . . . @ @ o o @ q N 2.H.).'.).H.2.N 3 # . o @ o O .X.X.X.X.X.X.X.X.X.X.X"
};
