/* XPM */
static char *result[] = {
/* columns rows colors chars-per-pixel */
"70 70 167 2 ",
"   c #351F2E",
".  c #36212F",
"X  c #39222F",
"o  c #3D2530",
"O  c #522A2E",
"+  c #592D2F",
"@  c #422731",
"#  c #442932",
"$  c #4A2C32",
"%  c #442F3B",
"&  c #532E32",
"*  c #5A2F32",
"=  c #4E3136",
"-  c #4C313B",
";  c #533436",
":  c #5C3233",
">  c #5F3837",
",  c #553639",
"<  c #593439",
"1  c #5D3C3B",
"2  c #633333",
"3  c #6C3634",
"4  c #613937",
"5  c #6C3835",
"6  c #653C38",
"7  c #6B3D3A",
"8  c #643638",
"9  c #733732",
"0  c #753A35",
"q  c #793D37",
"w  c #763D3A",
"e  c #7A3F38",
"r  c #64423E",
"t  c #6E453E",
"y  c #74433B",
"u  c #7C4139",
"i  c #7E493D",
"p  c #5F3E45",
"a  c #683E41",
"s  c #5C414A",
"d  c #57424E",
"f  c #4F4455",
"g  c #524352",
"h  c #6E4941",
"j  c #6E484C",
"k  c #6D4548",
"l  c #764544",
"z  c #794644",
"x  c #754E43",
"c  c #784847",
"v  c #794B4B",
"b  c #7B5245",
"n  c #694E57",
"m  c #794F51",
"M  c #734E52",
"N  c #6A515B",
"B  c #7A5153",
"V  c #765358",
"C  c #7A555A",
"Z  c #7B595F",
"A  c #655B6C",
"S  c #665765",
"D  c #7C5C62",
"F  c #735D68",
"G  c #635E70",
"H  c #7E6066",
"J  c #7E646B",
"K  c #76636F",
"L  c #626175",
"P  c #7F6771",
"I  c #7D6A75",
"U  c #7F6F7C",
"Y  c #756D7E",
"T  c #7F717E",
"R  c #834439",
"E  c #88473B",
"W  c #814B3E",
"Q  c #8B4A3C",
"!  c #914D3D",
"~  c #97513F",
"^  c #99523F",
"/  c #A3573E",
"(  c #A4583F",
")  c #805747",
"_  c #8B5141",
"`  c #8E5845",
"'  c #815748",
"]  c #845949",
"[  c #885C4A",
"{  c #945542",
"}  c #9D5540",
"|  c #9D5A43",
" . c #A05741",
".. c #A45B42",
"X. c #A95E44",
"o. c #8E604C",
"O. c #95634C",
"+. c #9A674E",
"@. c #98684F",
"#. c #9F6D52",
"$. c #AC6246",
"%. c #A76348",
"&. c #AF6D4E",
"*. c #B16447",
"=. c #B96747",
"-. c #BA6847",
";. c #B56748",
":. c #B66848",
">. c #BC6B49",
",. c #BC704D",
"<. c #A67355",
"1. c #AC7756",
"2. c #AE7857",
"3. c #B77854",
"4. c #B27B58",
"5. c #816F7A",
"6. c #81717E",
"7. c #C16E4B",
"8. c #C2724D",
"9. c #C57650",
"0. c #C77952",
"q. c #CA7C53",
"w. c #BC815B",
"e. c #CF8156",
"r. c #C0865D",
"t. c #CF8358",
"y. c #C68A5F",
"u. c #D18257",
"i. c #D18559",
"p. c #D48A5C",
"a. c #DA8F5E",
"s. c #DB905F",
"d. c #C78B60",
"f. c #C98C60",
"g. c #CF9162",
"h. c #D29363",
"j. c #DD9663",
"k. c #DC9966",
"l. c #E29B66",
"z. c #E19E69",
"x. c #E7A26A",
"c. c #EBA66C",
"v. c #EFA96E",
"b. c #F0AA6E",
"n. c #76798E",
"m. c #767182",
"M. c #767F95",
"N. c #827481",
"B. c #837987",
"V. c #847C8B",
"C. c #837F91",
"Z. c #768097",
"A. c #848294",
"S. c #878A9E",
"D. c #868699",
"F. c #848EA6",
"G. c #888DA1",
"H. c #8A91A6",
"J. c #8595AE",
"K. c #8994AB",
"L. c #8597B1",
"P. c #8B9AB3",
"I. c #8D9FB9",
"U. c #8DA2BD",
"Y. c #8FA6C2",
"T. c #8FA8C4",
"R. c #90A9C5",
/* pixels */
">.>.>.>.>.>.>.>.>.>.-.>.-.-.-.-.-.-.-.-.-.-.-.-.-.:.-.-.-.-.-.-.-.-.-.-.-.-.>.:.-.-.-.-.-.-.-.>.-.-.>.-.-.-.-.-.-.-.-.-.-.>.>.>.>.>.,.>.7.>.",
">.>.>.>.>.>.>.>.>.>.-.-.>.>.>.>.>.-.>.>.>.>.>.>.>.>.>.>.>.-.>.>.>.>.>.>.>.>.>.>.-.>.>.>.>.>.-.-.>.>.>.>.>.>.>.>.>.>.>.-.>.>.>.>.>.>.>.>.>.>.",
"7.>.>.>.>.>.>.>.>.8.,.8.8.8.8.8.8.8.8.,.8.8.8.8.8.8.8.8.8.8.8.,.8.8.8.8.8.8.8.8.,.,.,.,.8.,.8.8.8.,.,.8.8.8.8.8.8.8.8.8.,.>.>.>.>.>.>.>.,.7.",
">.,.>.>.>.>.>.,.8.9.q.q.q.q.q.q.q.q.q.e.q.0.q.q.0.q.q.0.q.q.q.e.0.q.q.0.0.q.q.0.0.e.e.e.e.0.e.0.q.q.q.q.0.0.0.e.e.0.q.9.0.9.>.>.>.-.>.>.>.>.",
">.>.>.>.>.>.>.8.9.q.u.p.p.p.p.p.p.p.p.p.p.p.p.g.p.p.p.p.p.p.p.p.p.p.p.p.p.p.p.p.a.p.p.p.p.p.p.p.p.p.p.p.p.p.p.p.p.a.p.i.e.9.>.>.-.-.>.>.>.>.",
">.>.>.>.=.>.>.8.q.p.s.j.j.j.l.j.j.s.j.j.j.j.j.k.j.j.j.j.j.s.j.s.j.s.l.s.j.j.j.j.s.s.s.l.j.j.s.k.j.s.l.s.l.s.j.j.j.s.s.a.i.e.9.>.>.>.>.>.>.>.",
">.>.>.>.>.>.8.0.i.s.l.x.x.z.x.z.x.x.x.x.x.x.x.x.x.x.x.x.c.x.x.x.c.x.x.x.x.x.x.c.c.x.x.c.c.x.x.x.c.x.x.x.x.x.x.x.c.c.x.x.s.i.0.8.>.>.>.>.>.>.",
">.>.>.8.>.8.0.t.p.l.z.v.v.v.v.v.v.c.v.c.c.c.c.v.v.c.v.c.v.c.v.c.v.c.v.x.v.v.v.x.c.c.c.c.c.c.c.v.c.v.c.c.c.c.c.v.c.c.c.c.s.p.e.0.8.8.,.>.>.>.",
"-.>.>.8.9.q.t.a.j.z.x.v.v.v.v.v.b.b.b.b.b.b.b.b.b.b.b.b.b.b.b.b.b.b.b.b.v.b.b.b.b.b.b.b.b.b.b.b.b.b.b.b.b.b.b.b.b.v.v.x.z.s.a.i.q.8.8.>.>.-.",
"-.-.,.8.e.p.s.j.l.l.x.v.v.v.v.b.b.b.b.b.b.b.b.b.b.b.b.v.b.b.b.b.v.b.b.b.v.v.b.b.b.b.b.b.b.b.b.b.b.b.b.b.b.b.b.c.v.c.c.x.x.l.k.s.p.e.9.>.>.-.",
"-.>.,.q.t.s.l.x.v.x.x.x.x.x.x.x.x.x.x.x.x.c.x.x.c.c.x.x.x.c.x.x.c.x.x.x.x.c.x.c.c.x.c.c.x.x.c.c.x.x.c.x.c.x.c.c.c.c.x.c.c.c.x.l.s.i.9.8.>.>.",
"8.8.0.e.a.j.x.x.v.v.v.x.x.k.k.h.h.h.h.h.h.h.h.h.g.g.h.h.h.h.h.h.h.h.h.h.h.h.h.h.g.h.h.g.h.h.g.h.h.h.h.h.g.g.h.h.k.z.x.c.c.c.c.x.l.p.u.9.8.8.",
"q.q.t.p.j.l.x.v.v.v.c.x.k.d.w.4.4.2.2.2.2.2.2.2.2.2.2.2.2.2.2.2.2.2.2.2.2.2.2.2.2.2.2.2.2.2.2.2.w.w.w.<.w.w.<.w.d.k.z.v.v.v.v.c.l.j.p.u.e.q.",
"a.a.s.j.k.x.c.v.b.b.c.z.f.2.@.[ b b b o.] ] ] [ ] ] ] ] ] ] ] ] ] ] ] ] ] ] ] ] ] ] b o.b o.b o.b b b b b b b #.w.f.z.v.b.b.c.c.x.l.j.a.p.p.",
"l.l.l.l.x.x.c.c.b.b.c.k.w.@.x r 1 1 1 1 1 1 1 1 1 1 1 1 1 r 1 1 1 1 1 1 1 1 1 1 1 1 1 1 1 1 1 1 1 r r 1 1 , r b O.w.k.x.v.v.c.c.x.l.l.l.l.l.",
"x.x.x.c.c.x.c.x.c.x.k.d.<.) 1 = # o o # $ # # $ # # # % # # # # # # $ # $ # % # # # # $ % # # # o % o o o o = 1 b <.d.k.x.x.x.c.c.c.c.x.x.x.",
"c.x.c.c.c.c.x.x.k.g.w.1.o.h ; o . . . X X . . X . . . . X . . . . . X X . . X X X . X . X . X X o . o . . . X ; t O.1.w.g.k.z.x.c.c.c.c.c.c.",
"c.v.c.c.v.c.x.k.f.4.#.o.h 1 % o     . X . .     . .     .   . . .   . . .   . .       .         . . . . . . X $ 1 t o.@.w.y.h.x.c.v.c.c.c.c.",
"c.c.c.c.v.c.z.g.4.@.b r , = # o X X X X X . X X X X X X . X X X . X X X . . X X . X X X . X X X X X . X X X o # = 1 r b o.w.h.x.c.v.c.c.c.c.",
"c.c.x.v.v.c.x.d.<.b 1 $ @ o o o @ X @ @ # # # # # @ @ @ @ @ @ # # o @ # # o # # @ @ @ # @ @ @ @ o # o o o @ o @ o # % 1 b <.d.z.c.v.v.c.c.c.",
"c.c.c.v.v.v.z.d.#.x = o     o @ @ @ # # O $ ; : , , : , : ; ; : ; ; ; : : ; ; : , : ; ; : , ; ; ; $ $ # @ o @ X . . o = x #.d.z.c.v.v.c.c.c.",
"c.c.x.v.v.c.k.d.#.h = X     o @ @ @ O & : : 6 7 y y y y y y y y y y y y y y y y y y y y y y w 6 4 , O $ $ # # X . . X = x @.y.z.v.v.c.c.c.c.",
"x.c.c.c.b.c.x.d.+.x ; X     X @ $ $ & 2 5 y W Q { { { { { { { { ~ ^ ~ ~ { ` { ` { { ^ { { { _ E y 3 : + O $ @ X . . X ; x @.y.z.v.v.c.c.c.x.",
"c.c.c.c.b.c.k.d.#.x ; @   X o @ O & 2 5 u Q { ..$.$.$.$.$.$.$.$.%.%.%.%.$.$.$.$.$.$.$.$.$.$...{ Q u 3 2 & # @ X . . o ; x #.y.z.c.v.v.c.c.c.",
"x.c.c.c.b.c.x.d.#.x , o X X o @ $ * 5 e E ! ..X.;.;.;.;.*.*.*.*.:.:.*.:.*.*.*.:.*.*.*.=.=.*.X. .~ E u 3 : O # o . . o ; i #.d.z.c.v.v.c.c.c.",
"c.c.c.c.b.c.k.d.#.x , o   . o @ & 8 y Q ! } ....X.X.X.X.X.X.X.X.X.X.X.X.X.X.X.X.X.X.X.X.X.X.X.( ~ ~ E y 4 & # o . . o ; x #.d.z.v.v.c.c.c.x.",
"c.c.c.c.b.c.k.d.#.x , o   . o # : 7 E ^ /  .^ ^ ^ ! ^ ^ ^ ^ ^ { ~ ~ ~ ~ ~ ~ ^ ^ ^ ^ { { ^ ^ ^ ^ ^ / ~ W y : # X . . X ; x #.d.z.v.v.c.c.c.x.",
"x.c.c.v.v.c.x.d.#.x , o .   o # > u { ..X...^ E E R E E E E E E E E E E E E E E E E E R E E E ^ / $.%.~ y : $ o . . o ; x #.d.z.c.v.v.c.c.c.",
"c.c.c.c.b.c.z.d.#.x - @ . . o # > i | %.$...! R e 0 w w 0 e w q 0 u 0 u u u 0 u q q 0 0 0 q R ! ..$.$.| i > # X . . o ; x #.d.z.c.v.v.c.c.c.",
"c.c.c.c.b.v.z.d.#.x , o     o $ 4 i ..$.;...! R 0 9 9 0 0 9 9 0 9 0 9 0 9 9 9 9 9 0 0 0 9 9 R ! ..$.*...W > $ o   . o ; x #.d.z.v.b.c.c.x.c.",
"c.c.c.c.b.c.x.d.#.x , o     o $ 4 W | ;.*...! u 0 9 9 5 0 9 0 0 0 0 5 0 0 0 9 5 5 0 0 9 0 0 u ! ( *.*.O.i r $ o     o , b #.d.z.c.v.c.c.c.c.",
"c.c.x.c.v.c.k.d.#.x , o     o # 4 W | ;.*...! R 0 9 9 0 0 0 0 0 0 0 0 0 0 0 0 0 0 0 0 5 9 0 R ! ..*.;.( i 1 $ X     o , x #.w.z.c.v.c.c.c.c.",
"c.c.c.c.v.v.k.d.#.x , o     X $ a a  .*.=...! q 0 9 9 9 0 0 0 0 0 0 0 0 0 0 0 0 9 9 0 0 a q R !  .*.*. .W 4 $ X X X o ; x #.d.x.c.v.v.x.c.c.",
"c.c.c.v.v.v.k.d.#.x ; o   . o $ 8 _  .*.X. .! R 0 9 q q 0 q 0 0 0 u 0 0 u 0 0 0 q 9 0 0 9 9 R !  .*.*. .W 4 $ X     o ; x #.d.k.v.v.v.c.c.c.",
"x.c.c.c.v.v.x.d.#.x ; o     o $ 8 _ } *.=. .! R 0 a q 9 0 0 0 q 0 0 u 0 q 0 0 y q q 9 a q 9 R !  .*.*.} z 4 # o     @ ; x #.d.z.v.v.c.c.x.c.",
"c.c.c.c.v.v.k.d.#.x ; @     X $ 8 u } *.=. .! R q 9 a 0 0 0 0 q 0 0 0 0 0 0 0 0 q q 9 0 9 q R !  .*.*. .i 8 $ o     o ; x #.y.z.c.b.c.c.c.c.",
"c.c.c.c.v.v.k.d.#.x , o     X $ > W | *.X. .! R q 9 9 q q 0 q 0 q 0 0 q 0 0 0 q 0 0 0 0 9 9 R ! X.*.*.| c a $ o   . o ; x #.d.z.c.b.v.c.c.x.",
"x.c.c.c.v.v.x.d.#.x , @     o $ 8 z | *.=.X.! R q 9 9 9 q 9 9 0 0 0 0 0 0 q q 0 9 q 0 0 q a R !  .*.*.| z 8 # o   . o , x #.y.z.c.b.c.c.c.c.",
"x.c.c.c.v.c.x.y.#.x ; o     X # 4 W | *.X. .! R a 0 9 0 9 q 9 9 9 9 q 0 0 0 0 q 9 q 9 a 9 q q ! X.*.*. ._ 8 # o     @ ; x #.y.z.c.b.c.c.c.c.",
"c.c.c.v.v.v.k.y.#.x , o   . o $ 4 W | $.=. .! R q 9 9 9 9 9 9 9 9 9 9 9 0 0 9 q q q 9 9 9 q R !  .*.*. .e 8 $ o     o , x #.y.z.v.b.c.c.x.c.",
"c.c.c.c.v.c.z.d.#.x , o . . o $ 4 W | *.*...! R q 9 9 q 9 9 9 q 9 0 0 0 q 9 0 q 0 0 0 9 9 0 R ! ..*.$.| W 4 $ o     o ; x #.d.k.v.v.c.c.x.c.",
"c.c.c.c.b.v.k.d.#.x ; o . . o # 4 i | *.*...! u q q 0 a u q q q y y q 0 q q 0 0 0 q 0 0 9 q R ! ..*.*.| i 4 $ o     o , x #.d.x.c.b.v.c.c.c.",
"c.c.c.c.v.v.z.d.#.x , o     o $ 4 W | *.*.( ! R R a a z ' a v z m V c y a q q 9 q 9 0 9 9 q q ! ..*.*.| W 4 $ X     o ; x #.d.k.c.b.c.c.x.c.",
"x.c.c.c.v.v.z.d.#.x ; o     o # 4 W | $.*...! u z a ' C 5.5.5.5.J [ C v e q 9 q 9 q 9 a 9 a R ! ..*.*.| i 4 # o     o , x #.d.x.v.b.c.c.c.c.",
"c.x.c.c.v.c.z.d.#.x ; o     o $ 4 W | *.*.( ! u a ' 5.5.N.C.C.C.V.N.K B a u 9 9 q 9 9 9 q q R ! ..*.*.| W 4 $ o . . o ; x #.d.k.c.b.c.c.c.c.",
"c.c.c.v.v.v.k.d.#.x , o     X $ 4 W | $.*.( ! u z C 5.N.G.K.K.K.G.C.N.] E a 9 9 9 q a 9 9 9 R ! ..*.*.| W 4 $ X . . o , x #.d.x.c.b.b.x.c.x.",
"c.c.c.c.v.v.z.d.#.x , @     X $ 4 W / *.( / ! R c C 5.D.K.I.Y.I.P.G.N.C ' q 0 9 q q 9 0 0 0 R !  .*.*.| i 4 # o     @ ; x #.d.k.c.b.b.x.c.x.",
"c.c.c.c.v.v.z.d.#.x ; o     o $ 4 i ( *.=./ ! q l D N.G.P.Y.R.Y.I.H.V.5.a z 0 9 9 9 0 0 0 0 R ! ..*.*.| W 4 # o     o - x #.d.x.c.b.v.c.c.c.",
"c.c.c.c.b.c.k.d.#.x , o     o # 4 W | $.*.( Q R e D 6.G.P.Y.R.Y.I.H.N.5.v e 9 9 9 w 0 0 9 w R ! ..*.*.} i 4 $ X     o , x #.y.z.c.v.v.x.c.c.",
"x.c.c.v.b.c.x.d.#.x , o     o $ 4 i | *.*.( ! R z C 5.D.L.I.Y.I.P.G.N.D v 0 q 9 9 0 0 0 9 0 R ! ..*.*.| W 4 $ o     o ; x #.y.z.v.v.v.c.c.c.",
"c.x.x.v.v.c.k.d.#.x , o     o # 4 W | *.X.( ! u l C I C.F.L.L.L.H.A.5.D z 0 9 9 0 0 0 9 0 w e ! ..*.*.| W 4 # o     @ ; x #.y.z.c.b.c.c.x.c.",
"c.c.c.v.b.b.x.d.#.x , o     o $ 4 W | $.*.( ! R l M F m.n.M.M.M.M.m.K V c q 0 9 0 0 0 0 9 0 R ! ..*.$.| i > $ o     o , x #.d.z.v.b.v.c.c.c.",
"c.c.v.v.v.v.x.d.#.x , o     o # 4 i | *.*.( ! R w k N A G L G L G A N j l 0 9 0 0 0 0 0 9 0 R ! ..*.*.| i 4 $ o     o , x <.d.x.v.b.v.c.c.c.",
"c.c.c.v.v.v.k.d.#.x , o     o $ 4 W | *.*.( ! R w 7 p p f p f f g p p a 0 0 w 9 0 0 0 0 w 0 R ! ..*.*.| W 4 # o     o ; x #.d.k.v.b.v.c.c.v.",
"x.z.x.c.v.v.z.d.#.x ; o     o $ 4 W ..*.*.( ! R 5 8 < - p % % % % - , 8 5 w 0 0 0 0 0 0 9 0 R ! ( *.*.| W 4 $ o     o ; x #.d.k.c.v.c.x.x.x.",
"l.l.l.z.l.l.j.q.@.x ; @     o # 4 W | *.X.X.! u 0 2 * O   o @ @ $ & & 8 9 0 q e 0 0 0 0 9 0 u ! ..*.*.} i 4 $ o . . o ; x +.w.k.l.x.l.l.l.l.",
"a.a.a.s.s.h.p.3.` x = o . . o $ 4 i | *.*...! R 9 3 * * O O O O O + : 3 9 0 w 9 0 0 0 9 w 0 u ! ..*.*.| W 4 $ o .   o ; t O.3.t.a.s.a.a.p.p.",
"q.q.q.u.u.t.0.&.` h ; o . . o # 4 W | *.*...! e 9 3 3 2 2 2 + : 2 2 3 5 9 9 0 w 0 w 0 0 9 w R ! ..*.*.| W 4 # o . . o ; t ` &.0.e.u.u.e.e.e.",
"8.8.8.9.9.9.,.%._ 6 $ o . . o $ 4 W | *.*...! R 0 5 9 9 9 3 9 5 9 9 5 9 0 0 0 0 w 9 0 0 9 w R ! ..*.$.| W 4 $ X . . o = 6 _ %.,.9.9.9.8.8.8.",
"7.>.-.7.7.7.:..._ 8 $ @ . . o # 6 z | *.*...! R w 9 9 0 9 9 0 0 9 9 9 w 0 0 0 0 0 0 0 0 9 w u ! ..*.*.| i 4 # o . . o $ 6 _ %.:.7.7.7.>.>.>.",
">.-.>.>.7.-.=..._ 6 $ o . . o # > W | *.*...! u 0 9 0 0 0 0 q 0 0 0 0 0 0 0 0 9 0 0 5 9 9 0 e ! ..*.$.| W 4 $ o . . @ $ 4 W | ;.>.7.>.>.-.>.",
">.>.-.>.>.>.;...W 7 $ @ o . o $ 8 i | $.*. .! u 9 9 9 0 0 0 0 9 0 0 9 0 0 0 9 w 0 0 0 5 9 9 R Q ..*.*.| i 4 $ o . . @ $ 6 _ ..;.>.7.>.-.>.>.",
">.>.>.>.7.7.:...W 6 $ o . . o # 8 W  .*.*...! u 0 0 5 0 0 0 0 0 0 0 w 0 9 w 0 0 0 0 0 9 9 w R ! ..*.*.| W 4 $ o . . o = 6 i ..;.7.7.>.>.>.>.",
">.,.>.>.7.,.:...W 7 $ o . . o $ < _  .*.*...{ R e e 0 0 q q e e e e q q q q q q q q q q 0 q E ! ..*.*.| W 4 # o . . o $ 6 _ ..:.>.7.7.>.>.>.",
">.7.>.7.7.7.:...Q r $ @ X X X $ 4 i | :.=.X.^ ~ E R E E E E E E E E E E E E E E E E E R E E Q ^ $.:.*.| i 4 # o . . o $ r W ..:.>.7.7.>.>.>.",
">.>.>.7.7.>.*.%.W 3 $ @ X X X $ 4 i | *.-.*.X.^ ^ ~ ~ ~ ~ ~ ~ ~ ~ ~ ~ ^ ~ ~ ~ ~ ~ ~ ^ ~ ^ ^ / ..*.-.*.| i 4 $ o . . o $ r Q +.:.7.7.7.>.>.>.",
">.,.7.>.8.,.:...W r $ o . . X $ 1 i | *.-.-.*.X.$.X.X.X.X.X.X.X.$.X.$.( X.$.X.%.X.X.X.X.( $.$.*.-.>.*.| i 4 # o X X o & r W ..:.7.7.7.>.>.7.",
">.>.>.7.7.>.*.%.Q r = o . . X $ > i | *.>.>.>.=.:.*.=.*.:.:.:.:.*.:.:.=.=.*.*.=.:.*.=.*.*.=.-.-.>.>.*.| i 4 # o X X o $ 3 Q ..:.>.7.>.>.>.>.",
"8.,.>.>.7.>.=.( W t O o . X X $ > i | :.>.,.7.>.>.>.>.>.>.>.>.>.>.>.>.7.>.>.>.>.>.>.-.>.>.>.>.7.8.,.*.| i > # o . X X = t W ..=.7.7.7.>.,.>.",
">.>.>.>.7.7.*.%.W 6 $ o X X X $ > i ^ *.7.8.7.8.8.7.8.7.>.,.8.8.7.7.7.7.7.7.8.7.8.8.8.7.8.8.7.7.7.>.:.| i > $ X . . o $ 6 W ..-.>.8.>.7.>.>."
};
