/* XPM */
static char *result[] = {
/* columns rows colors chars-per-pixel */
"70 70 92 1 ",
"  c #361F2E",
". c #37202E",
"X c #3A222F",
"o c #3E2531",
"O c #412731",
"+ c #452A33",
"@ c #4C2D33",
"# c #512F34",
"$ c #4F3035",
"% c #523437",
"& c #5A3436",
"* c #533538",
"= c #5B3738",
"- c #5C3B3A",
"; c #613837",
": c #663B38",
"> c #693E3A",
", c #66433E",
"< c #6C433D",
"1 c #70473F",
"2 c #7B463C",
"3 c #7B4A3F",
"4 c #6E4841",
"5 c #754E43",
"6 c #7D4F42",
"7 c #844B3D",
"8 c #844F41",
"9 c #835445",
"0 c #8A5342",
"q c #8F5946",
"w c #815748",
"e c #845A49",
"r c #8B5D4A",
"t c #965541",
"y c #935A46",
"u c #9D5E46",
"i c #935E49",
"p c #985F49",
"a c #A15C44",
"s c #8F614C",
"d c #95644D",
"f c #99654D",
"g c #9D694F",
"h c #9F6D52",
"j c #A66147",
"k c #A2654B",
"l c #AA6549",
"z c #AD6A4C",
"x c #B56647",
"c c #BA6847",
"v c #B66949",
"b c #BC6B4A",
"n c #BE714E",
"m c #A26F52",
"M c #A27053",
"N c #AD7152",
"B c #B47553",
"V c #BE7551",
"C c #B37A57",
"Z c #BC7B56",
"A c #B77F5A",
"S c #BC7F59",
"D c #C16E4A",
"F c #C3734D",
"G c #C57650",
"H c #C47A53",
"J c #CB7B53",
"K c #B9805A",
"L c #CD8156",
"P c #C3865D",
"I c #CC8559",
"U c #C68A5F",
"Y c #C9895E",
"T c #D18357",
"R c #D38659",
"E c #D68A5B",
"W c #D98C5D",
"Q c #DA905F",
"! c #C78B60",
"~ c #CA8E61",
"^ c #D38F60",
"/ c #D69262",
"( c #DE9562",
") c #DA9966",
"_ c #E09763",
"` c #E39B65",
"' c #E29E69",
"] c #E5A069",
"[ c #EBA66C",
"{ c #EEA86D",
"} c #F0AA6E",
"| c None",
/* pixels */
"||||||||||||||||||oooooo%5h!'[{{[[{}[/As,$X.XoOo||||||||||||||||||||||",
"||||||||||||||||||Oooo o%5hP'{}{[[{}[)As,+XXXooo||||||||||||||||||||||",
"||||||||||||||||||ooo .o%5h!'{}{[[{}[)As,$X.XoOO||||||||||||||||||||||",
"||||||||||||||||||OOo oo%5h!'[}[][{{[)As,$X.oooo||||||||||||||||||||||",
"||||||||||||||||||ooo.oO%5hU)[}{[[{}[)As,$XXoooo||||||||||||||||||||||",
"||||||||||||||||||Oooo.o%5h!'}}[[[{}[)As,+X.XoOO||||||||||||||||||||||",
"||||||||||||||||||ooo.Xo%5h!'[}[[[{}[)Ar,$XXXooo||||||||||||||||||||||",
"||||||||||||||||||oooXXo%5m!'{}{[[{{{)As,$XXXoOoo|||||||||||||||||||||",
"||||||||||||||||||ooooXo*5h~]}}{[[{}{)Ks4+oXXOOooO||||||||||||||||||||",
"||||||||||||||||||OooXXo*5hU]}}}[[}}[)Ks4+XXXooO+oo|||||||||||||||||||",
"||||||||||||||||||oooXXo*5gU'[}{[[{{[/Ar4+o.XoOooooO||||||||||||||||||",
"||||||||||||||||||+OXXXo%5gP/]]]'''['/Cr,+XXXooooooO||||||||||||||||||",
"||||||||||||||||||oooXXO$1dZE/(QW/__WTN9-OX.oooOoooo||||||||||||||||||",
"||||||||||||||||||OooXXX$<qzJTTTJJJRJGk8-O...oooo+oo||||||||||||||||||",
"||||||||||||||||||OooXXO@,0lFFJGJGGGGvf6=+XoXooooooo||||||||||||||||||",
"||||||||||||||||||oOoXXO@>0jDFFFFFGGGva8>%+Oooooooo+||||||||||||||||||",
"||||||||||||||||||oOoo.o@<0lnJJJGJJJHnzdw4,*$+oooooo||||||||||||||||||",
"||||||||||||||||||oOooXo%<yBLEWRRRTERIHCMd64*+oooooo||||||||||||||||||",
"||||||||||||||||||oooo.o$1fK/(`_((_((//^!KMe,$OXXooo||||||||||||||||||",
"||||||||||||||||||OoXXoo%5hP)[[]]]]]]]][]/Kg4*oXXoo+||||||||||||||||||",
"||||||||||||||||||oOoX.o%5h!]{}{[[[][[[}{]!h5*OXXoOo||||||||||||||||||",
"||||||||||||||||||ooo.Xo*5h!]{}{[[[[[[}}}[~M5*OX.ooo||||||||||||||||||",
"||||||||||||||||||OooXXo*5h!][}{[[[[[[}}{]~h5*oXXooo||||||||||||||||||",
"||||||||||||||||||oooXXo%5h!'{}{[[[[[[{{{]!h5*oXXooo||||||||||||||||||",
"||||||||||||||||||Ooo Xo%5h!'[}[[[[[][[{{'!h5*oXooOo||||||||||||||||||",
"||||||||||||||||||OooXXo%5h!]}}{[[[[[[[}[]!h5%o.XooO||||||||||||||||||",
"||||||||||||||||||oooXoo*5h!'}}{[[[[{{}}{]Ug5*oXXooo||||||||||||||||||",
"||||||||||||||||||oOoXXo*5h!'{}{[[[[[{}}{]Um5*oX.oOo||||||||||||||||||",
"||||||||||||||||||OoooXo*5hP)[[[[][]'][[[)Pm5*oooooo||||||||||||||||||",
"||||||||||||||||||oOoXXo%4fS/```(((())``'/Sf5$o..ooo||||||||||||||||||",
"||||||||||||||||||oooXXo$<iBIWWWEEEREREEWIBd<$oXoooo||||||||||||||||||",
"||||||||||||||||||OooXXo$<qzGJTJJJLJJJLTJGz0<$o.oooo||||||||||||||||||",
"||||||||||||||||||oooXXo#:0abDGFnFFnFFFFFbl7<$OXXooo||||||||||||||||||",
"||||||||||||||||||ooooXo@:7acDDDbbbbcbDDbca7:@OXoooO||||||||||||||||||",
"||||||||||||||||||oooXoo#:7axbcccccccccDbxa7:#OXoooO||||||||||||||||||",
"||||||||||||||||||oooXoo@:8axcDccccccccbbxj7:@XXoooo||||||||||||||||||",
"||||||||||||||||||o+oooo@:8acDDDbcbbbcDDbva7:@ooXooo||||||||||||||||||",
"||||||||||||||||||ooo. o#:0abGGDFFFFFFFFDva7:@ooXooo||||||||||||||||||",
"||||||||||||||||||oooo.o#>tzHJJJJJLJJGGGFva7:$oXoooo||||||||||||||||||",
"||||||||||||||||||ooo.oO$4iBTW/WEREEERTJFba7:@OXXooo||||||||||||||||||",
"||||||||||||||||||o+oXXo%4fZ^''_)(`(_QETGba7:@OXoooo||||||||||||||||||",
"||||||||||||||||||oooXXo%5h!_[[[][][]`_RJba7:@OXoooo||||||||||||||||||",
"||||||||||||||||||+ooXXo*5h!'{}{[[{[[]_RJva7:@OXoooo||||||||||||||||||",
"||||||||||||||||||ooooXo*5h!'}}{[[[{{]`WJba7:$OXXo+o||||||||||||||||||",
"||||||||||||||||||oooX o%5h!'{}}[[[[{]_RJva7:@OXoooo||||||||||||||||||",
"||||||||||||||||||ooXXoo*5h!'{}{[[[[[]_EJba7:@XXXooo||||||||||||||||||",
"||||||||||||||||||oooo o*5h!'[}[[[[[[])EJbu7:@OXoooo||||||||||||||||||",
"||||||||||||||||||ooo oo$5h!'{}[[[[[['QEJva7:@OXoooo||||||||||||||||||",
"||||||||||||||||||oooo.O%5h!'[{{[[[[[]_EJba7:@oXXooo||||||||||||||||||",
"||||||||||||||||||Oooo.o%5h!'{}[[[[[[`_EJca7:@+Xoooo||||||||||||||||||",
"||||||||||||||||||ooo .o%5h!'[}{[[[[[`_EJva7:@OXoooo||||||||||||||||||",
"||||||||||||||||||OOo oo%5h!'[}{[[[[[]_RJva7:@OXXooo||||||||||||||||||",
"||||||||||||||||||ooo.oo%5h!'[}[[[[[[`QWJba7:#OXoooo||||||||||||||||||",
"||||||||||||||||||Oooo.o%5h!'[}{[[[[[]`RJca7:@oXXooo||||||||||||||||||",
"||||||||||||||||||ooo..o%5hP'{}[[{[[[`_RLva7:@OXoooo||||||||||||||||||",
"||||||||||||||||||oooXoo%5m!'[{{[][][]_RJva7:@OXXooo||||||||||||||||||",
"||||||||||||||||||oooo.o%5hU]{{[[][[[]QQJba7<@OXoooo||||||||||||||||||",
"||||||||||||||||||OooXoo%5hU'{{{[[[[[]QELbj7:#OXoooo||||||||||||||||||",
"||||||||||||||||||oooXXo%5hU'[{{[[[[[]_ELca7:@OXoooo||||||||||||||||||",
"||||||||||||||||||ooXXXo%5hU'[{{[[[[[]QRGx72;@XXoo+o||||||||||||||||||",
"||||||||||||||||||O+oXXo%5h!'{{{[[{[['EKz77<-+oooooo||||||||||||||||||",
"||||||||||||||||||oooXXo%5hU'[{{[[[{[)YNs3<&@+oooooo||||||||||||||||||",
"||||||||||||||||||oOoXXo*5hU'{{{[]{{['Pg3:#++ooooooo||||||||||||||||||",
"||||||||||||||||||ooXX.o*5hU'{{[[[{{[QKd<%OXoooooooo||||||||||||||||||",
"||||||||||||||||||oOX Xo*5h!)[}[[[[}[)As,+X XooooooO||||||||||||||||||",
"||||||||||||||||||ooooXo*5h!'{}{[[[{[)As,O  XoooOo||||||||||||||||||||",
"||||||||||||||||||Ooo oo*5h!'[}[[[{{[)As4+X XooOo|||||||||||||||||||||",
"||||||||||||||||||Oooo o%5h!'}}[[[{}[/As,+oXoooo||||||||||||||||||||||",
"||||||||||||||||||oooo o%5m!'[}[[[[{[)As,+X oooo||||||||||||||||||||||",
"||||||||||||||||||Oooo o%5h!'[}{[[[}[)As4@X Xooo||||||||||||||||||||||"
};
