/* XPM */
static char *result[] = {
/* columns rows colors chars-per-pixel */
"50 50 203 2 ",
"   c #361E2C",
".  c #391F2B",
"X  c #301E30",
"o  c #36202F",
"O  c #3B222E",
"+  c #362130",
"@  c #3E2531",
"#  c #45282F",
"$  c #522F2E",
"%  c #5A332F",
"&  c #412731",
"*  c #432932",
"=  c #4B2D31",
"-  c #442D39",
";  c #502F32",
":  c #4E3335",
">  c #4C343C",
",  c #47303B",
"<  c #543232",
"1  c #5A3531",
"2  c #51373E",
"3  c #57393A",
"4  c #633A32",
"5  c #6A3E32",
"6  c #633A38",
"7  c #61362E",
"8  c #5E413D",
"9  c #7D442C",
"0  c #74412F",
"q  c #68463A",
"w  c #744432",
"e  c #7C4731",
"r  c #7A4939",
"t  c #4C3845",
"y  c #513C48",
"u  c #54414C",
"i  c #5D4D5A",
"p  c #594956",
"a  c #5E505F",
"s  c #6A4943",
"d  c #744F42",
"f  c #775346",
"g  c #795546",
"h  c #65535C",
"j  c #775A56",
"k  c #5E5160",
"l  c #5F5B70",
"z  c #625461",
"x  c #675E6E",
"c  c #736D7D",
"v  c #746873",
"b  c #736A78",
"n  c #82472C",
"m  c #834C32",
"M  c #854D36",
"N  c #8D5234",
"B  c #88563B",
"V  c #925433",
"C  c #9C5A32",
"Z  c #975837",
"A  c #91522F",
"S  c #A45D32",
"D  c #A95F31",
"F  c #A55F39",
"G  c #A45C2E",
"H  c #8B613E",
"J  c #9E603C",
"K  c #A66134",
"L  c #AE6131",
"P  c #A9683A",
"I  c #B26633",
"U  c #BB6A33",
"Y  c #B76C39",
"T  c #BE713A",
"R  c #AB612F",
"E  c #C36E33",
"W  c #C56F36",
"Q  c #CC7434",
"!  c #CB763A",
"~  c #CB783C",
"^  c #C67138",
"/  c #D17532",
"(  c #D57B34",
")  c #DC7C33",
"_  c #D47B3D",
"`  c #E37F32",
"'  c #8D5141",
"]  c #8A5B44",
"[  c #9F5B45",
"{  c #A35D44",
"}  c #8A6747",
"|  c #886454",
" . c #956D53",
".. c #9C7458",
"X. c #9D6649",
"o. c #AA6646",
"O. c #BE6C4B",
"+. c #B46747",
"@. c #A87B48",
"#. c #A77655",
"$. c #BA794C",
"%. c #9C7D6A",
"&. c #A47863",
"*. c #C16E48",
"=. c #C6714A",
"-. c #CC7843",
";. c #D67A46",
":. c #CE803B",
">. c #DD8234",
",. c #DA833B",
"<. c #E48334",
"1. c #EA8639",
"2. c #F48C35",
"3. c #F98E35",
"4. c #F28C3A",
"5. c #FE9335",
"6. c #FD9439",
"7. c #FD9B3B",
"8. c #FA9537",
"9. c #FFA33E",
"0. c #B78359",
"q. c #B99253",
"w. c #B78A63",
"e. c #B98C64",
"r. c #AC8A71",
"t. c #D78849",
"y. c #CD9248",
"u. c #D58D53",
"i. c #CE9D53",
"p. c #D99155",
"a. c #C28555",
"s. c #E89444",
"d. c #FC9B43",
"f. c #E99D59",
"g. c #EA8D42",
"h. c #DEAC58",
"j. c #FFA542",
"k. c #FCB04A",
"l. c #E9A554",
"z. c #FCA955",
"x. c #FDB855",
"c. c #C4966A",
"v. c #D29569",
"b. c #E39C63",
"n. c #DAA974",
"m. c #CCA57E",
"M. c #E9AB6D",
"N. c #E8A669",
"B. c #FCAE66",
"V. c #E8AD73",
"C. c #EAB77C",
"Z. c #F4BD7E",
"A. c #FDBC75",
"S. c #F7B26B",
"D. c #FFC075",
"F. c #777687",
"G. c #867C86",
"H. c #7E859B",
"J. c #8C8A9B",
"K. c #888594",
"L. c #8C838D",
"P. c #A4928D",
"I. c #BAA899",
"U. c #AEA099",
"Y. c #8C95AB",
"T. c #9697A7",
"R. c #838AA0",
"E. c #95A4BB",
"W. c #9CA5B9",
"Q. c #A7A8AE",
"!. c #A4A7B6",
"~. c #A6A9B7",
"^. c #B3B4BA",
"/. c #DDB385",
"(. c #CDB29B",
"). c #F3BC81",
"_. c #E4BC92",
"`. c #CBBCB1",
"'. c #F6C182",
"]. c #FBC584",
"[. c #FDC986",
"{. c #FECB88",
"}. c #F5C58B",
"|. c #F3C692",
" X c #DAC3A7",
".X c #D6C4B5",
"XX c #E5C8A7",
"oX c #98A8C1",
"OX c #A7B4C8",
"+X c #B3BBCC",
"@X c #BCBDC4",
"#X c #ABBBD2",
"$X c #B5C1D3",
"%X c #BDCADC",
"&X c #B8C5D8",
"*X c #AEC0D6",
"=X c #BBCCE0",
"-X c #C7C5C5",
";X c #C0CBDC",
":X c #C5D2E4",
">X c #C9D6E8",
",X c #C1CEE1",
"<X c None",
/* pixels */
"<X<X<X<X<X<X<X<X<X<X<X<X<X<X<X<X<X<X<X<X<X<X<X<X<X<X<X<X<X<X<X<X<X<X<X<X<X<X<X<X<X<X<X<X<X<X<X<X<X<X",
"<X<X<X<X<X<X<X<X<X<X<X<X<X<X<X<X<X<X<X<X<X<X<X<X<X<X<X<X<X<X<X<X<X<X<X<X<X<X<X<X<X<X<X<X<X<X<X<X<X<X",
"<X<X<X<X<X<X<X<X<X<X<X<X<X<X<X<X<X<X<X<X<X<X<X<X<X<X<X<X<X<X<X<X<X<X<X<X<X<X<X<X<X<X<X<X<X<X<X<X<X<X",
"<X<X<X<X<X<X<X<X<X<X<X<X<X<X<X<X<X@ @ & & @ @ @ @ & @ & @ @ & @ * <X<X<X<X<X<X<X<X<X<X<X<X<X<X<X<X<X",
"<X<X<X<X<X<X<X<X<X<X<X<X<X<X<X<X& @ @ @ @ @ @ @ @ @ @ @ & @ @ @ * @ <X<X<X<X<X<X<X<X<X<X<X<X<X<X<X<X",
"<X<X<X<X<X<X<X<X<X<X<X<X<X<X<X& & @ @ @ @ @ @ @ @ @ @ @ @ @ @ @ O & @ <X<X<X<X<X<X<X<X<X<X<X<X<X<X<X",
"<X<X<X<X<X<X<X<X<X<X<X<X<X<X@ @ @ @ @ O   @   @ X @ @       @ @ @ @ @ & <X<X<X<X<X<X<X<X<X<X<X<X<X<X",
"<X<X<X<X<X<X<X<X<X<X<X<X<X@ @ @ @ & @ & & & @ & & & & & - @ @ @ & @ @ @ @ <X<X<X<X<X<X<X<X<X<X<X<X<X",
"<X<X<X<X<X<X<X<X<X<X<X<X<X& @ @ o * * 8 q q q q 4 5 q q q 8 8 : * @ O @ @ <X<X<X<X<X<X<X<X<X<X<X<X<X",
"<X<X<X<X<X<X<X<X<X<X<X<X<X@ @ @ @ : q 0.@.0.K K S D K P P 0.} q : O @ @ @ <X<X<X<X<X<X<X<X<X<X<X<X<X",
"<X<X<X<X<X<X<X<X<X<X<X<X<X@ @ O @ 8 g q.h.h.8.>.` <.<.s.h.h.q.H 2 O   @ * <X<X<X<X<X<X<X<X<X<X<X<X<X",
"<X<X<X<X<X<X<X<X<X<X<X<X@ @ @ + o : H i.x.9.9.5.5.3.6.j.x.x.i.} < @ + @ @ @ <X<X<X<X<X<X<X<X<X<X<X<X",
"<X<X<X<X<X<X<X<X<X<X<X@ & @ @   X : g y.9.k.9.7.5.5.5.9.9.k.y.H < + o @ & @ @ <X<X<X<X<X<X<X<X<X<X<X",
"<X<X<X<X<X<X<X<X<X<X& & & @ @ O o 8 A :.7.5.9.5.5.5.5.5.9.9.:.H < O @ O @ @ & & <X<X<X<X<X<X<X<X<X<X",
"<X<X<X<X<X<X<X<X<X& @ @ @ @ & * $ 0 G :.<.5.3.3.5.2.2.3.3.2.:.A 4 = & @ @ @ @ @ & <X<X<X<X<X<X<X<X<X",
"<X<X<X<X<X<X<X<X<X@ @ @ @ @ = 4 9 G R :.` <.<.<.>.<.` ` <.` Q R N 5 < = @ @ @ & @ <X<X<X<X<X<X<X<X<X",
"<X<X<X<X<X<X<X<X<X@ @ @ O O 1 e U :.>./ / Q / / / / / / / / E U D V 5 ; @ @ @ @ @ <X<X<X<X<X<X<X<X<X",
"<X<X<X<X<X<X<X<X<X@ @ @ o O 8 Z :.8.<.>.Q Q ! ! ! ! ~ -.~ ! ! Q E S e ; @ @ @ @ & <X<X<X<X<X<X<X<X<X",
"<X<X<X<X<X<X<X<X<X@ @ @ O O 1 C >.8.3.<.) t.t.p.p.p.u.p.p.p.t.;.Q I 9 < @ + @ @ @ <X<X<X<X<X<X<X<X<X",
"<X<X<X<X<X<X<X<X<X* @ @ o @ 1 Z >.5.5.3.4.s.l.N.V.M.M.M.M.M.l.t.! L e $ O @ @ @ & <X<X<X<X<X<X<X<X<X",
"<X<X<X<X<X<X<X<X<X* @ @ O @ < N E <.3.8.8.z.S.Z.'.'.D.'.).).M.u.T C 0 $ @ @ O & @ <X<X<X<X<X<X<X<X<X",
"<X<X<X<X<X<X<X<X<X@ @ @ @ @ $ w A U ( ,.d.B.A.].}.{.{.[.{.[.V.a.J 9 7 = @ O & & @ & <X<X<X<X<X<X<X<X",
"<X<X<X<X<X<X<X<X<X@ @ @ @ @ # $ 7 9 P y.b.B.A.}.{.[.[.[.[.].n.#.r 1 = & O @ & O @ & & <X<X<X<X<X<X<X",
"<X<X<X<X<X<X<X<X<X@ * @ @ @ @ # $ q H q.v.b.V.).C.C.C.C.Z.C.e.| 3 & O @ @ @ O & @ @ @ @ <X<X<X<X<X<X",
"<X<X<X<X<X<X<X<X<X@ @ @ @ O # < 0 r B X.#.#.0.w.e.e.e.e.e.w. .s - .   O O O O O O @ @ & & <X<X<X<X<X",
"<X<X<X<X<X<X<X@ @ @ @ @ + + = e K Y P B r s f f f f f f g f s : @   . O O O O O O @ @ @ @ @ <X<X<X<X",
"<X<X<X<X<X<X* @ @ @ @ @ @ # 1 Z Q ( P r 2 > > 2 2 2 2 2 2 2 2 , - - t @ * * - - * & & @ @ & & <X<X<X",
"<X<X<X<X<X<X@ @ @ @ @ = 1 q m G U Y o.j k k a a k k k k k a k z k k p i p a z i u , @ @ @ @ @ <X<X<X",
"<X<X<X<X<X<X* @ @ O @ 1 e G I G A B j L.J.J.J.J.J.J.J.J.J.J.J.J.J.J.F.F.F.K.J.G.x y @ O @ @ @ <X<X<X",
"<X<X<X<X<X<X@ @ @ O @ 1 C ( :.R w s v T.+X&X$X+X+X+X+X+X+X$X+X+X#XOXW.Y.Y.W.OX!.G.p & . @ & & <X<X<X",
"<X<X<X<X<X<X* @ @ o O q K >.1.T B j L.~.%X=X%X&X&X;X:X:X:X:X:X:X=X=XoXoXoX#X%X+XK.i & .   & - <X<X<X",
"<X<X<X<X<X<X* @ O O @ 1 S >.8.t.0.r.I.^.%X=X*X#X$X%X:X>X>X>X>X>X=X*XOXoXoX#X;X+XK.i * . @ @ @ <X<X<X",
"<X<X<X<X<X<X@ @ @ + @ 4 G >.8.z.M./.(.-X;X+XoXoXoX#X;X;X&X&X;X;X;X+XOXE.E.OX&X^.H.u @ O O & @ <X<X<X",
"<X<X<X<X<X<X* @ @ @ @ 4 C >.7.z.A.|.XX.X`.Q.Y.G.R.Y.!.!.!.!.^.@X-X-X^.Q.Q.Q.~.T.c u * O O & * <X<X<X",
"<X<X<X<X<X<X* @ @ + @ 1 S ,.j.x.D.}.|._.(.P.c x l b F.b F.F.L.I. XXXXX(.I.P.L.v i t O O O @ @ <X<X<X",
"<X<X<X<X<X<X@ @ O + @ q C ) d.z.A.).).V.v.%.j t t t t t y u j r./.}.}._.m.&.h y , * @ @ @ * @ <X<X<X",
"<X<X<X<X<X<X* @ O @ @ 1 A E ,.f.N.V.M.b.u.o.M 6 = $ $ $ $ % d #.c.n.n.n.e.| 3 O O O @ @ * @ <X<X<X<X",
"<X<X<X<X<X<X@ @ @ O @ < 5 N K -.u.p.p.t.=.Y Z n 9 9 n 9 9 9 r '  .......| d : O O O @ * @ <X<X<X<X<X",
"<X<X<X<X<X<X@ @ @ @ @ * : 1 w B Y -.;.~ ~ T I L D L L L L L C M s 3 u q 3 < * @ O @ O @ <X<X<X<X<X<X",
"<X<X<X<X<X<X<X* @ @ @ O O O < m L Q / / W E U I L L L E E W L A 4 < = # * O @ @ @ @ * <X<X<X<X<X<X<X",
"<X<X<X<X<X<X<X<X@ @ @ @ + + : m U ) ` ` ) E S N N M A D E ` / U C 9 1 # o O @ @ @ * <X<X<X<X<X<X<X<X",
"<X<X<X<X<X<X<X<X<X* @ O + @ < A Q 2.5.3.<.U N 7 ; ; 7 N E <.2.1.( I m < @ o @ @ @ <X<X<X<X<X<X<X<X<X",
"<X<X<X<X<X<X<X<X<X* @ @ + @ 1 V / 4.6.3.<.I w = .   = w I <.6.6.2.Q N 1 @ o @ @ @ <X<X<X<X<X<X<X<X<X",
"<X<X<X<X<X<X<X<X<X@ @ @ @ @ < N ^ ;.4.g._ D 5 * X X * 5 F _ g.4.g.^ N < @ @ @ @ & <X<X<X<X<X<X<X<X<X",
"<X<X<X<X<X<X<X<X<X& @ @ @ O < r +.-.;.;.=.Z 6 &   X * 6 [ O.;.;.-.o.M ; @ + @ @ @ <X<X<X<X<X<X<X<X<X",
"<X<X<X<X<X<X<X<X<X<X@ @ + @ < r { O.=.=.+.' 6 * @   * 6 ' +.*.=.O.{ r ; @ O @ @ <X<X<X<X<X<X<X<X<X<X",
"<X<X<X<X<X<X<X<X<X<X@ @ @ @ : r [ +.*.O.+.' 6 * @ @ * 6 ' o.O.=.O.{ 5 < @ @ @ & <X<X<X<X<X<X<X<X<X<X",
"<X<X<X<X<X<X<X<X<X<X<X<X<X<X<X<X<X<X<X<X<X<X<X<X<X<X<X<X<X<X<X<X<X<X<X<X<X<X<X<X<X<X<X<X<X<X<X<X<X<X",
"<X<X<X<X<X<X<X<X<X<X<X<X<X<X<X<X<X<X<X<X<X<X<X<X<X<X<X<X<X<X<X<X<X<X<X<X<X<X<X<X<X<X<X<X<X<X<X<X<X<X",
"<X<X<X<X<X<X<X<X<X<X<X<X<X<X<X<X<X<X<X<X<X<X<X<X<X<X<X<X<X<X<X<X<X<X<X<X<X<X<X<X<X<X<X<X<X<X<X<X<X<X"
};
