/* XPM */
static char *result[] = {
/* columns rows colors chars-per-pixel */
"70 70 92 1 ",
"  c #361F2E",
". c #37202E",
"X c #3A222F",
"o c #3E2531",
"O c #412731",
"+ c #452A33",
"@ c #4C2D33",
"# c #512F34",
"$ c #4F3035",
"% c #523437",
"& c #5A3436",
"* c #533538",
"= c #5B3738",
"- c #5C3B3A",
"; c #613837",
": c #663B38",
"> c #693E3A",
", c #66433E",
"< c #6C433D",
"1 c #70473F",
"2 c #7B463C",
"3 c #7B4A3F",
"4 c #6E4841",
"5 c #754E43",
"6 c #7D4F42",
"7 c #844B3D",
"8 c #844F41",
"9 c #835445",
"0 c #8A5342",
"q c #8F5946",
"w c #815748",
"e c #845A49",
"r c #8B5D4A",
"t c #965541",
"y c #935A46",
"u c #9D5E46",
"i c #935E49",
"p c #985F49",
"a c #A15C44",
"s c #8F614C",
"d c #95644D",
"f c #99654D",
"g c #9D694F",
"h c #9F6D52",
"j c #A66147",
"k c #A2654B",
"l c #AA6549",
"z c #AD6A4C",
"x c #B56647",
"c c #BA6847",
"v c #B66949",
"b c #BC6B4A",
"n c #BE714E",
"m c #A26F52",
"M c #A27053",
"N c #AD7152",
"B c #B47553",
"V c #BE7551",
"C c #B37A57",
"Z c #BC7B56",
"A c #B77F5A",
"S c #BC7F59",
"D c #C16E4A",
"F c #C3734D",
"G c #C57650",
"H c #C47A53",
"J c #CB7B53",
"K c #B9805A",
"L c #CD8156",
"P c #C3865D",
"I c #CC8559",
"U c #C68A5F",
"Y c #C9895E",
"T c #D18357",
"R c #D38659",
"E c #D68A5B",
"W c #D98C5D",
"Q c #DA905F",
"! c #C78B60",
"~ c #CA8E61",
"^ c #D38F60",
"/ c #D69262",
"( c #DE9562",
") c #DA9966",
"_ c #E09763",
"` c #E39B65",
"' c #E29E69",
"] c #E5A069",
"[ c #EBA66C",
"{ c #EEA86D",
"} c #F0AA6E",
"| c None",
/* pixels */
"||||||||||||||||||||||+ooXXo+,sK)[}{[[[}[]!h5%oXoooo||||||||||||||||||",
"||||||||||||||||||||||oooo.X@,sK)[{{[[{}['!h5%oXXooo||||||||||||||||||",
"||||||||||||||||||||||oOoXXo$,sK)[{{[[[}['Uh5%oXoooo||||||||||||||||||",
"||||||||||||||||||||||Oooo.X+,sK)]{{[[{}['Uh5%oXXooo||||||||||||||||||",
"||||||||||||||||||||||oooXXX$,sK)[}{[][}[]Uh5%O.Xooo||||||||||||||||||",
"||||||||||||||||||||||o+oXXX$,sK/[}}[[[}['Uh5%oXXooo||||||||||||||||||",
"||||||||||||||||||||||ooXXXo+,sK)[}[[[{}{'Uh5*oXXooo||||||||||||||||||",
"|||||||||||||||||||||ooooXXX@,sK)[{{[[{}[]UM5%oXXooo||||||||||||||||||",
"||||||||||||||||||||OoooOX..+,sK)[}}}[}}}]!M5*oXoooo||||||||||||||||||",
"|||||||||||||||||||oOo+ooX.o+4sK)[}}[[[}}]UM5%OXXoOO||||||||||||||||||",
"||||||||||||||||||oooooooX.o$4sA/[{{[[{}[]Uh5%oXXooo||||||||||||||||||",
"||||||||||||||||||+ooOOoOXXo+-rC/'[]```]])Kf5%oX oOo||||||||||||||||||",
"||||||||||||||||||+ooOOooX.X+-9NIQ(QQWQ(QEZd<%oXoooo||||||||||||||||||",
"||||||||||||||||||oooooooX..O=8kVLTTTTTTLLNq<$OX ooo||||||||||||||||||",
"||||||||||||||||||oOOooooXXX+=6uvFJJFFJJGnl0,#XXoooo||||||||||||||||||",
"||||||||||||||||||ooooooOo++%>8aBFFFFFFFFnl7:#OXoooo||||||||||||||||||",
"||||||||||||||||||oOoooo+$%,46pzFJJJGJJJJVz0<@oooooo||||||||||||||||||",
"||||||||||||||||||oOoooo+*46dMBPITRTRRREEJBy<@oXXooo||||||||||||||||||",
"||||||||||||||||||ooo..o$4eMK!~//((((()`_^Zd5@ooXooo||||||||||||||||||",
"||||||||||||||||||Ooo.oo%4gK)]]]'['['][[[)Ph5%o Xooo||||||||||||||||||",
"||||||||||||||||||oOo.XO*5M~]}}{[[[[][{}{'Um5%OXooOo||||||||||||||||||",
"||||||||||||||||||ooo..O*5M~[}}}[[[[[[{}}'!h5*oo ooo||||||||||||||||||",
"||||||||||||||||||oOo..O%5MU]}}}[[[[[[{}{]!h5*o...oO||||||||||||||||||",
"||||||||||||||||||oOoo.O%5mU]{}{[][[[[{{{'!h5%oXoooo||||||||||||||||||",
"||||||||||||||||||Ooo Xo%5h!'{{[[[[[[[[{{'!h5%oooooo||||||||||||||||||",
"||||||||||||||||||OooX o%5h!'}}{[[[[[[{}{]!h5%o.XoOO||||||||||||||||||",
"||||||||||||||||||oooXoo%5h!'}}{[[[[[{{}}'!h5%o.Xooo||||||||||||||||||",
"||||||||||||||||||oOoXXo*5h!'{}{[[][[[{}['!h5%Oo oOo||||||||||||||||||",
"||||||||||||||||||oOooXo%5hP)[[[]]][][[[[)Ph5%oXoooo||||||||||||||||||",
"||||||||||||||||||oOoXXo%5fS/```___)))```/Sg5$oX ooo||||||||||||||||||",
"||||||||||||||||||oooXXo$<iBIWWWEEEEEWEWWIBi4@oXoooo||||||||||||||||||",
"||||||||||||||||||OooXXo$<qzGJTJJJJJJJJJJGzq<$oXXoOo||||||||||||||||||",
"||||||||||||||||||oooXoo#>0abFFFFFnFFFFFDbj0>#oo.ooo||||||||||||||||||",
"||||||||||||||||||oooXXo@:7acDDDbbbbcbbDDxa7:@oooooo||||||||||||||||||",
"||||||||||||||||||oooXoo@:7acbbccccccccDcxa7:#O.oooo||||||||||||||||||",
"||||||||||||||||||oooXoo@:7ucbDccccccccccxu7:@oooooo||||||||||||||||||",
"||||||||||||||||||+oooXO#:7acbbDbbbbDbbDDva7>$oXXooo||||||||||||||||||",
"||||||||||||||||||oooXXo@:7acDFFDFnGDFFFFbj0>@oXXooo||||||||||||||||||",
"||||||||||||||||||ooXo.O%:7abFGJHJJJJJJTJHz0<@ooXooo||||||||||||||||||",
"||||||||||||||||||ooOXXO@:7acFJTREEEEEWWWIBd<$oXXooo||||||||||||||||||",
"||||||||||||||||||o+oXXo@:7acGTE()`_()```QKf5%o.oooo||||||||||||||||||",
"||||||||||||||||||oooooo@:7acJR(`]][[][[[_Ug5%ooXoOO||||||||||||||||||",
"||||||||||||||||||+ooXXo@:7acJE_][[{[[{}{]Um5*O.Xooo||||||||||||||||||",
"||||||||||||||||||oooooo@;7abJE_][{{[[{}{]Uh5%O.XoOo||||||||||||||||||",
"||||||||||||||||||oooXoo@:7acJE(][{[[[{}{]!h5%o.Xooo||||||||||||||||||",
"||||||||||||||||||oooXoo#:7abJR('[[[[[{}{)!h5%oXXooo||||||||||||||||||",
"||||||||||||||||||oooo.o@:7abJE(][[[[[{{{)!h5%OXoooo||||||||||||||||||",
"||||||||||||||||||oo.ooo@:7abJE('[[[[]{{{]!h5%ooXooo||||||||||||||||||",
"||||||||||||||||||oooo.o$>7ubJE('[[[[[[}['!h5*oXXooo||||||||||||||||||",
"||||||||||||||||||+ooooo$-7ucJE(][[[[[}}['!h5*oXXooo||||||||||||||||||",
"||||||||||||||||||oooo.o@:7abJR(][[[[[[}['!g5*oXoooo||||||||||||||||||",
"||||||||||||||||||oooXoo@:7abJR_'[[[[][}['!h5%OX ooo||||||||||||||||||",
"||||||||||||||||||oooXoo@:7axJE_'[[[][[}{'!h5%OXoooo||||||||||||||||||",
"||||||||||||||||||o+ooXo@:7acJR_'[[[[[{{['!h5%o. ooo||||||||||||||||||",
"||||||||||||||||||oooXXo#:7abJR_'[{[[[[}['!g5*OX.ooo||||||||||||||||||",
"||||||||||||||||||oooXXo@:7abJE_'[[[[[{}['!h5%O.oooo||||||||||||||||||",
"||||||||||||||||||oooooo#:8aDJW_'[[[[[[{{'!h5%o.ooOo||||||||||||||||||",
"||||||||||||||||||OoooXo#:7aDJW_'[[[[[{{['!h5%OoXooo||||||||||||||||||",
"||||||||||||||||||ooooXo#;8abJ^_'[[[[[[}['!h5%o.XooO||||||||||||||||||",
"||||||||||||||||||OOoXXo@;8taFJ/'[{[[[[}['!h5%o. ooO||||||||||||||||||",
"||||||||||||||||||OOOoXO+#>7tzZ^'[{[[[[[['!h5%o.oooo||||||||||||||||||",
"||||||||||||||||||OOXXOX+#&:6qN!`[{[[[[}['!h5%Oo ooo||||||||||||||||||",
"||||||||||||||||||OoOoOOOO@#;6f!)[}{[[[}['!h5%o. ooo||||||||||||||||||",
"||||||||||||||||||oOooOOOXXO$4sS)[}[[[[}['!h5%O oooO||||||||||||||||||",
"||||||||||||||||||o+oooooo.X+,sK)[[{[[{{{]!h5%oXXooo||||||||||||||||||",
"||||||||||||||||||||+ooooX.X+,sK)[{{[[{{{)!h5*oo ooo||||||||||||||||||",
"|||||||||||||||||||||ooooX.Xo,sK)[{[[[[{{]!h5*oXXooo||||||||||||||||||",
"||||||||||||||||||||||ooooXX+,sK)[}{[[[{[)!h5$oXXooo||||||||||||||||||",
"||||||||||||||||||||||oooX.o+,sK)[{{[[{}{)!h5$oooooo||||||||||||||||||",
"||||||||||||||||||||||+ooX..$4sK)[{[[[{}{]!h5*oXXoOO||||||||||||||||||"
};
