/* XPM */
static char *result[] = {
/* columns rows colors chars-per-pixel */
"70 70 23 1 ",
"  c #67A757",
". c #67A857",
"X c #67A758",
"o c #6CAD5A",
"O c #6FB05C",
"+ c #72B35E",
"@ c #6FB462",
"# c #74B661",
"$ c #76B862",
"% c #7BBC63",
"& c #7FC066",
"* c #7CC36D",
"= c #81C367",
"- c #84C669",
"; c #85C96D",
": c #86CE72",
"> c #88CF73",
", c #86D076",
"< c #88D176",
"1 c #85D178",
"2 c #8AD57A",
"3 c #8BD97E",
"4 c #8DDB80",
/* pixels */
"--------=--=====-=---==--===-=----------;-----------------------------",
"--------=-=------=-=----=----=-==-----------------;-------------------",
"-----=-----;-------------;--;-;--------------------------;----------;-",
"--=-----;;;;;>;;;;;---;;;;>;;;-;--=--------------------;--------------",
"---=----;;><<>>>;;;-;;;><><<>;;;-==------------------------------;----",
"---=-=-;;><<22<<<:;;;;><<<<<<<;;----=----------------;----------------",
"-------;<<323322<;;;-;<223332<<;--=----------;-----;------------------",
"----=--;><223332<<;;;;<233333<<;--------------------------------------",
"-;-----;><333333<<;;;:<2344332<;---=----------------------------------",
"--===-;;><3333332:;-;:<233433<<;;----------------------;---;-;-----;--",
"--=--=-;>13233321<;;;;,233332<>;---=----------------------------------",
"----=--;;;,,,1,,:;;--;:,,,1,,,;;-=-------------;---------------;------",
"-----=--*********;*--*******-===--------------------------------------",
"-------&**%@@@@*%&=-*&*$$@@$+%==-----------------;--------;-----------",
"-------&$+@OX@@o+$&==%$@@X@@o+%%=----------------------------------;--",
"-------&$O.XXX..++%&&$@.XXXXoO+%=-----------;-------------------------",
"-------=%+oooo.o+++%+%++.oo.o++=--------------------------------------",
"------==&+++++++++++++++++++++%=--------------------------------------",
"-------===%=%%%%++++++++&%&=&&==------------------;--------;----------",
"-;----=-===-===&%++.o++====-====----------------;-----;----------;----",
"---------------=%++o++%=----------------------------------------------",
"-----=-----;----=%++++&=--;;-----------------------;------------------",
"---==-----------=&%%%&==----------------------------------------------",
"----------------==&=====---------=----=-----------------;-------------",
"-----;----------==-------====-==--=======-----------------------------",
"-------------------------=&%%%==-==%%%%==------------;----------------",
"------------------------=%%+++%====%+++%==---------------------------;",
"------------------------=%++o++%==%+++++=---------------;-------------",
"------------;-----------=%++.++%%=%+ o++=-------;---------------------",
"----;-------------------=%++.++%%%+++ +%---------------------;--;-----",
"------------------------=%%++++++++++++=-----------------;------------",
"------------------------===%%+++ ++++%%=--------------;---------------",
"-----------;---------------==%+ooo++====--------------------------;---",
"-------;--------------=-----=%%+ +++==--------------------------------",
";---------------------------==%++++%----------------------------------",
"---------------------=-----===&=%%==----------------------------------",
"---------------------=---------=====----------------------------------",
"---------------;----------------==--=-------------------;-------------",
"---------;------------------------------------------------------------",
"-------------------------=-------------=------------------------------",
"----------------------------------------=-----------------------------",
";---------------------------------------------------------------------",
"-----------------------------------------=------------------------=---",
"-------------;----------------------------=---------------------=-----",
"---->----------------------;------------------------------------------",
"-----------;----------------------------------------------------------",
"----------------------------------------=-------;---;-----------------",
"---------------------------------------------->->;---;---;;>>;>-;---=-",
"-------------------------------------==---;;:<<,>>>>;--;;>><<<>>>>----",
"----==-----------=---=------------------=;;;><<2<2<>>-;-;>2222<<>>;---",
"----====-=--======-=------------------=---;:<233333>>;;;><223322<>>---",
"----=%=====-==%=&===----------------------;:<234333<>;--;<223333<>;---",
"--==%+++%====%%++&&=------------------==--;>,334333<>;;;:<2344332>>;-=",
"--=%++O++%==%++O+%&=----------------;=--=-;>23333332>;-;:1243433<>;---",
"---=++ o+%==%+ooO+&--------------------=--;;1224332>>;-;;<233232>>--==",
"---=%+oO+%%%++oo++%-------------------=---;;*:1*>>>;;;-;;:1*:1::>-----",
"--==%++++++++++++%==----------------------=*********=----******$%===--",
"-===%%%+++O+++%%%&==----------------------=%$$@@@@#$%=-=&%$@@@@@%===--",
"--=-===%+Oo O+%=-----------;--------------=%+oo.XXo+$%==$#Oo..o@++%=--",
"-----===%OooO%%=------------------;------==++oo .XoO$%==$Oo..XXX++%=--",
"-=-----=%++o+%==-------------;-----------==$++oooooO++++++OO@ooo++==--",
"--------%%+%%===--------;----------;-----==%%$++##+$++++++++#@++%%==--",
"------=========-----=------;--------------===%&%&%%$++oO++$%&%=%==----",
"-------======-=---------------------------=---=-===%+ooo+%==--=-------",
"-----=----------------------------------------------%++++==-----------",
"-------------------------------------------------;--=++++===----------",
"----------------------------------------------------==%%==------------",
"----------------------------------------------------=====-------------",
"----------------------------------------------------=-----------------",
"------------------------------------------------------------==--------"
};
