/* XPM */
static char *result[] = {
/* columns rows colors chars-per-pixel */
"70 70 98 2 ",
"   c #351F2E",
".  c #37212E",
"X  c #3A222F",
"o  c #3E2530",
"O  c #412731",
"+  c #432931",
"@  c #4A2D34",
"#  c #4D3035",
"$  c #553235",
"%  c #5A3235",
"&  c #533538",
"*  c #5B3738",
"=  c #5B3939",
"-  c #613535",
";  c #633837",
":  c #6C3936",
">  c #673C38",
",  c #6C3D39",
"<  c #773E37",
"1  c #783E37",
"2  c #67433E",
"3  c #6A433E",
"4  c #72423B",
"5  c #7E4139",
"6  c #7D4A3F",
"7  c #6B4740",
"8  c #6E4941",
"9  c #744E43",
"0  c #7E4D41",
"q  c #795044",
"w  c #83443A",
"e  c #854D3F",
"r  c #8B4A3C",
"t  c #904E3E",
"y  c #8E503F",
"u  c #95503E",
"i  c #844F40",
"p  c #845445",
"a  c #8F5240",
"s  c #845949",
"d  c #8A5C49",
"f  c #915341",
"g  c #9C5540",
"h  c #965B46",
"j  c #9E5B44",
"k  c #A25C44",
"l  c #AA5F45",
"z  c #8F614C",
"x  c #95654E",
"c  c #9E6D52",
"v  c #A76247",
"b  c #AC6246",
"n  c #A1644A",
"m  c #AC6448",
"M  c #A56C4F",
"N  c #AC6B4D",
"B  c #B26446",
"V  c #B36748",
"C  c #B66948",
"Z  c #BD6C4A",
"A  c #B9704E",
"S  c #A16E52",
"D  c #A96E50",
"F  c #A27053",
"G  c #BF7551",
"H  c #B27856",
"J  c #B77F5A",
"K  c #C16D4A",
"L  c #C1714D",
"P  c #C57751",
"I  c #C97750",
"U  c #C77A52",
"Y  c #CA7C53",
"T  c #B9815B",
"R  c #CD8056",
"E  c #C2855C",
"W  c #C88359",
"Q  c #C6895F",
"!  c #D38457",
"~  c #D28659",
"^  c #D48A5B",
"/  c #D88D5E",
"(  c #C68B60",
")  c #CA8D61",
"_  c #D18F60",
"`  c #D69665",
"'  c #DD9462",
"]  c #DA9966",
"[  c #DF9D68",
"{  c #E39B66",
"}  c #E49F68",
"|  c #E89F68",
" . c #E6A169",
".. c #EBA56C",
"X. c #EEA86D",
"o. c #F1AB6E",
"O. c #F3AD70",
"+. c None",
/* pixels */
"+.+.+.+.+.+.+.+.+.+.+.+.+.+.+.+.+.+.+.+.+.+.+.+.+.+.+.+.+.+.+.+.+.+.+.+.+.+.+.+.+.+.+.+.+.+.+.+.+.+.+.+.+.+.+.+.+.+.+.+.+.+.+.+.+.+.+.+.+.+.",
"+.+.+.+.+.+.+.+.+.+.+.+.+.+.+.+.+.+.+.+.+.+.+.+.+.+.+.+.+.+.+.+.+.+.+.+.+.+.+.+.+.+.+.+.+.+.+.+.+.+.+.+.+.+.+.+.+.+.+.+.+.+.+.+.+.+.+.+.+.+.",
"+.+.+.+.+.+.+.+.+.+.+.+.+.+.+.+.+.+.+.+.+.+.+.+.+.+.+.+.+.+.+.+.+.+.+.+.+.+.+.+.+.+.+.+.+.+.+.+.+.+.+.+.+.+.+.+.+.+.+.+.+.+.+.+.+.+.+.+.+.+.",
"+.+.+.+.+.+.+.+.+.+.+.+.+.+.+.+.+.+.+.+.+.+.+.+.+.+.+.+.+.+.+.+.+.+.+.+.+.+.+.+.+.+.+.+.+.+.+.+.+.+.+.+.+.+.+.+.+.+.+.+.+.+.+.+.+.+.+.+.+.+.",
"+.+.+.+.+.+.+.+.+.+.+.+.+.+.+.+.+.+.+.+.+.+.+.+.+.+.+.+.+.+.+.+.+.+.+.+.+.+.+.+.+.+.+.+.+.+.+.+.+.+.+.+.+.+.+.+.+.+.+.+.+.+.+.+.+.+.+.+.+.+.",
"+.+.+.+.+.+.+.+.+.+.+.+.+.+.+.+.+.+.+.+.+.+.+.+.+.+.+.+.+.+.+.+.+.+.+.+.+.+.+.+.+.+.+.+.+.+.+.+.+.+.+.+.+.+.+.+.+.+.+.+.+.+.+.+.+.+.+.+.+.+.",
"+.+.+.+.+.+.+.+.+.+.+.+.+.+.+.+.+.+.+.+.+.+.+.+.+.+.+.+.+.+.+.+.+.+.+.+.+.+.+.+.+.+.+.+.+.+.+.+.+.+.+.+.+.+.+.+.+.+.+.+.+.+.+.+.+.+.+.+.+.+.",
"+.+.+.+.+.+.+.+.+.+.+.+.+.+.+.+.+.+.+.+.+.+.+.+.+.+.+.+.+.+.+.+.+.+.+.+.+.+.+.+.+.+.+.+.+.+.+.+.+.+.+.+.+.+.+.+.+.+.+.+.+.+.+.+.+.+.+.+.+.+.",
"+.+.+.+.+.+.+.+.+.+.+.+.+.+.+.+.+.+.+.+.+.+.+.+.+.+.+.+.+.+.+.+.+.+.+.+.+.+.+.+.+.+.+.+.+.+.+.+.+.+.+.+.+.+.+.+.+.+.+.+.+.+.+.+.+.+.+.+.+.+.",
"+.+.+.+.+.+.+.+.+.+.+.+.+.+.+.+.+.+.+.+.+.+.+.o o O o o o o O o O o o O o O O o o O O o o o O +.+.+.+.+.+.+.+.+.+.+.+.+.+.+.+.+.+.+.+.+.+.+.",
"+.+.+.+.+.+.+.+.+.+.+.+.+.+.+.+.+.+.+.+.+.+.O O O o O O O o o O o O o O O o o o O o o O O O o o +.+.+.+.+.+.+.+.+.+.+.+.+.+.+.+.+.+.+.+.+.+.",
"+.+.+.+.+.+.+.+.+.+.+.+.+.+.+.+.+.+.+.+.+.+.o o o o o o o o o o o o o o o o o o o o o o o o o O +.+.+.+.+.+.+.+.+.+.+.+.+.+.+.+.+.+.+.+.+.+.",
"+.+.+.+.+.+.+.+.+.+.+.+.+.+.+.+.+.+.+.+.+.O O o o o o o o . o . o o o . o . o X o X . o o o o O o +.+.+.+.+.+.+.+.+.+.+.+.+.+.+.+.+.+.+.+.+.",
"+.+.+.+.+.+.+.+.+.+.+.+.+.+.+.+.+.+.+.o o o o o o o o o . . . . . . . . X     o   o o o o o o o O o O +.+.+.+.+.+.+.+.+.+.+.+.+.+.+.+.+.+.+.",
"+.+.+.+.+.+.+.+.+.+.+.+.+.+.+.+.+.+.O o O o O o o o o o o o o o o o o o o o o o o o o o X o o O o O o o +.+.+.+.+.+.+.+.+.+.+.+.+.+.+.+.+.+.",
"+.+.+.+.+.+.+.+.+.+.+.+.+.+.+.+.+.+.o O o o o o O O + + # # # # @ # @ # @ @ # @ @ @ @ + O O o o o o o O +.+.+.+.+.+.+.+.+.+.+.+.+.+.+.+.+.+.",
"+.+.+.+.+.+.+.+.+.+.+.+.+.+.+.+.+.+.O o o o o o + # * 2 7 7 8 7 7 8 7 7 7 7 7 8 7 7 2 & # O o o o o o O +.+.+.+.+.+.+.+.+.+.+.+.+.+.+.+.+.+.",
"+.+.+.+.+.+.+.+.+.+.+.+.+.+.+.+.+.+.o O o o o o @ & 8 s z z x x x x z x x x x z z z s 9 = + o o o o O o +.+.+.+.+.+.+.+.+.+.+.+.+.+.+.+.+.+.",
"+.+.+.+.+.+.+.+.+.+.+.+.+.+.+.+.+.+.o o o . o o # 7 d S J E E E E T E J E J E ( ( J F s 7 # o o o o o o +.+.+.+.+.+.+.+.+.+.+.+.+.+.+.+.+.+.",
"+.+.+.+.+.+.+.+.+.+.+.+.+.+.+.+.+.O O o o o o o & 9 x T ` [ [ [ [ ] ] [ ] [ { } [ ` T x 9 # o o o o o O O +.+.+.+.+.+.+.+.+.+.+.+.+.+.+.+.+.",
"+.+.+.+.+.+.+.+.+.+.+.+.+.+.+.+.+.o o O o o   o & 9 S ) } o.o.X.............o.o...} ( S 9 & o . . o o O o +.+.+.+.+.+.+.+.+.+.+.+.+.+.+.+.+.",
"+.+.+.+.+.+.+.+.+.+.+.+.+.+.+.+.O O o o o   X o & 9 S ) ..O.O.O.o.X...O.o.o.O.O.O. .) F q & o o . o O o o O +.+.+.+.+.+.+.+.+.+.+.+.+.+.+.+.",
"o O o O O o o O O o o O O o O o o O o O o X X o & 9 S ) } o.O.X...O.X.....o.o.O.O.} ) S q & o . o o o o o O o o o O o O O o o O o O o o O o ",
"o o o O o O o o o o O o o O o O o o o o o o   O $ 9 S Q } X.o.O...............O...} ( c 9 & o . . o o o O o o O o o o O o O o o O o O O o O ",
"o o o o o o o O o O O X O o o O o o o o o   X o & 9 c Q } ..O...............X.o.X.[ ( c 9 & o . X o X O o o o o o o o o o O o o o o O O X O ",
"o o o X X X X X X X X X X X X X o o o X o     o & 9 c ( } X.X.................o.X.} ( c 9 # o     X X X . o o o o o . o o . o   X X X X X X ",
"X   . X   . . . X X X X   X . .   X   X       o # 8 c ( } X.o.X.......X.X...o.O.X.} ( c 9 # o     X X X   X . . o . . .       X X . . . X X ",
"X o o X o X o o X X O X o X o X X X X o X .   o & 9 c ( } X.o.................o...{ ( c 9 & o     X o X X X . o o o o . O O   O X o X X X o ",
"@ @ @ @ @ @ @ @ @ @ @ @ @ @ @ @ @ @ O @ + + O + = 9 c ( [ ......| } | |  .}  ... .{ ( c 9 * @ O + @ @ @ + @ @ O @ + @ @ @ @ @ @ @ @ @ @ @ @ ",
"2 2 2 2 2 2 2 2 2 2 2 2 2 2 2 2 3 3 7 7 7 = * ; 3 p D E _ { { { { { { { ] { { } { ' E D p 2 = = ; 2 2 7 7 7 7 7 7 2 7 2 2 2 2 2 2 2 2 2 2 2 ",
"z z z z z z z z x z z z z z z z z z z z s s 0 6 i h N G ~ / / / ~ ~ ^ ^ ^ / ^ _ _ ~ U D h i 0 0 q d d z z z z z d z x d d x d x z z z z z z ",
"J T J T J T T J J J J J T J T T T T T T H D x k k v C G U Y Y Y Y Y Y Y Y Y Y Y Y U G C v k j n D H J T T J T T T T J T T J J J T J T T J T ",
"] ` ] ] ` ] ] ` ] ] ` ] ` ] ] ` ] ` ] ` ` W G Z B B C Z K K K K L L K K L K K L Z Z Z C B B L I Y _ ` ] ] ] ] ] ] ] ] ` ] ] ` ] ] ` ] ] ` ] ",
"........................X.........X.X...{ / R L K Z Z K Z Z Z K Z Z K C K Z Z Z Z Z Z Z Z K Y Y ' [ ..X.....................................",
"o.o.o.o.o.o.o.o.o.o.o.o.o.o.o.o.o.o.o.X.} ' ~ I K K Z C C C Z C C C C K K C C Z Z Z Z C K K I Y ' | X.o.O.O.o.o.o.o.o.o.o.o.o.o.o.o.o.o.o.o.",
"o.X.o.o.o.o.o.o.X.o.o.X.o.o.o.o.o.O.o.X.| ' ~ I K K K K C K Z C Z Z K C C Z C Z C Z Z Z Z K I Y ' | o.o.o.o.o.o.o.o.X.o.o.X.o.o.o.X.o.o.o.o.",
"............X.......X...X.......X.X.....{ / R L Z K Z Z C Z Z Z K C K C K K C K Z Z Z Z Z K I Y _ { ..X...X.......X.X.X.....X.....X.......X.",
" .} }  .} } } } }  .} }  . .} } ..}  .{ ` ^ U A C B B C Z Z Z Z Z Z K K C K K C Z Z B Z B C A I Y ' { | ..| | | | | { |  .}  .{ } } } } } } ",
"' ' ' ' ' ' ' ' / ' ' ' ' ' ` ' ' ' ' ' ^ Y Z B l B B Z Z Z Z Z Z Z C K K K K C Z Z Z B l l B A Y _ ' ' ' ' ' ' ' ' ' ' ' { ' ' ' ' ' ' ' / ",
"~ ~ ~ ~ ~ ~ ~ ~ ^ ~ ~ ~ ~ ! ! ~ ^ ^ ~ ! Y A m g g g l B Z Z Z Z Z Z K K C C K K Z Z B l k g g B P Y Y _ Y _ Y ' _ Y _ Y _ Y _ Y ~ ~ ~ ~ ~ ^ ",
"I I I I I I I I L I Y I I U I I I Y I U Z v g t r u g B Z K Z Z Z Z Z Z Z Z Z Z K Z m k g r r g l A I I U U I P I I P P P P P I U L I U U U ",
"L A K Z A A L A K Z A L L A Z K A L K Z V k t w w r g B B K K K Z Z Z Z Z Z Z K Z C m g r w w r k V Z L L K Z K L K K K L L L L K Z L L L Z ",
"Z Z Z Z Z Z Z Z Z Z Z Z Z Z Z Z K K K C B u r w 5 r u b Z K K Z Z Z Z Z Z Z Z L Z Z b g r 5 5 r g m C K K K K K Z Z Z C C K Z Z Z Z Z Z Z Z ",
"Z Z K K K Z K K K Z K Z K K K Z K K K Z B k r 1 5 t g b C K Z Z Z Z Z Z Z Z Z Z Z Z b g r 5 5 r k B Z K K K K K K K Z K K K C K K Z K Z Z K ",
"Z Z K Z K K K K K K K K K K K K K K K Z B g t w w r u b C K K K Z Z Z Z Z Z Z K K B l g r 5 5 r g B K K K K K K K K K K K K K K K K K K K K ",
"Z Z Z Z C Z Z C C C Z Z Z C Z C Z Z K C b g r 5 5 r u B Z A Z Z Z Z Z Z Z Z Z K K Z l g r 5 1 a g l C C K K C C C K C Z K C K C C C Z Z Z C ",
"b b b b b m l l b b b b m b b b m m m l k t 5 1 1 w u b C K Z Z Z Z Z Z A Z Z Z Z Z l g w 1 1 w a k l B m m m l l b l m m l l l b b b b m b ",
"y u h y y y u u f f f f f f f f f u f t e 5 : : , w u l C K K Z Z Z Z Z K Z K K K B l f 5 : : : 1 i f f f f f f f f f f f f f f f f f f f f ",
"4 4 4 4 4 4 4 4 4 4 4 4 4 4 4 4 8 4 4 4 , ; % % - < r b C K K K Z Z Z Z Z Z K K K C k a < - % % ; : < 4 < 4 4 < 8 < < 4 4 < 4 4 4 4 4 4 4 4 ",
"& $ $ $ $ & $ $ $ $ $ $ $ $ $ $ & & * $ $ @ @ @ $ , a k C Z K K Z Z Z Z Z Z Z K K C k a > % @ @ @ % $ & & & & $ $ & $ $ & $ $ & & & $ $ $ $ ",
"+ + + + + + + o + + + + + + + + o + o o O o X O @ > e k C K L K Z Z Z Z Z Z Z K K C k i > @ O o o O + + o O O o + + + O O o O + o + + o + O ",
"X o X o X o o o X o X o X o X X o o o o X X X o @ > i k C Z K Z Z Z Z Z Z Z K K K C k i : @ o . X X o X o o o o o . o o o o o o X o o o o o ",
"X o X X o X X X o X X o X X X o o X o X X . . o @ > e k C Z K K Z G Z Z Z Z Z K K C k i > @ O . . o . o . o . o . o o o o o . o o X X X X o ",
"X o o o o o o o o o o o o o X o o o o X X X X o @ > e k C K K K Z Z Z Z Z Z K K K B k i > @ O . . o o o o o o o o . o o o . . o o o o o o o ",
"o o o o o o o o o o o o o o o o o o o o o X o o @ > e k C K K Z Z Z Z Z Z Z K K K C k i > @ o o X o o o o o o o o o o o o o o o o o o o o o ",
"o o + o o o o o o o o o o + o o o o o o o o X o # : e k C Z K K Z Z Z Z Z Z K K Z B k r > @ o . o o o o o o o o o o o O o O o o o + o o o o ",
"O o o + o o + o o o o O o o + o o o O o o o o o # > i k C Z K Z Z Z Z Z Z Z Z L K C k i > @ o o o o O o o O O o o o O o O o O o o O o o + o ",
"+.+.+.+.+.+.+.+.+.+.+.+.+.+.+.+.O o o O o o o o @ > i k C K K K Z Z Z Z Z Z Z K Z C k i > @ o o o o o o O o +.+.+.+.+.+.+.+.+.+.+.+.+.+.+.+.",
"+.+.+.+.+.+.+.+.+.+.+.+.+.+.+.+.+.O O o o . . o @ : i k C K K K Z Z Z Z Z Z K K K C k i > # O . o o o O o +.+.+.+.+.+.+.+.+.+.+.+.+.+.+.+.+.",
"+.+.+.+.+.+.+.+.+.+.+.+.+.+.+.+.+.+.o o o o o o # > i k C Z L Z Z Z G Z Z Z Z L K C k i : @ O o . o O o +.+.+.+.+.+.+.+.+.+.+.+.+.+.+.+.+.+.",
"+.+.+.+.+.+.+.+.+.+.+.+.+.+.+.+.+.+.o O o o o O # > r k C Z K K Z Z Z Z Z Z L K Z C k i > # o o o o o o +.+.+.+.+.+.+.+.+.+.+.+.+.+.+.+.+.+.",
"+.+.+.+.+.+.+.+.+.+.+.+.+.+.+.+.+.+.+.+.+.+.+.+.+.+.+.+.+.+.+.+.+.+.+.+.+.+.+.+.+.+.+.+.+.+.+.+.+.+.+.+.+.+.+.+.+.+.+.+.+.+.+.+.+.+.+.+.+.+.",
"+.+.+.+.+.+.+.+.+.+.+.+.+.+.+.+.+.+.+.+.+.+.+.+.+.+.+.+.+.+.+.+.+.+.+.+.+.+.+.+.+.+.+.+.+.+.+.+.+.+.+.+.+.+.+.+.+.+.+.+.+.+.+.+.+.+.+.+.+.+.",
"+.+.+.+.+.+.+.+.+.+.+.+.+.+.+.+.+.+.+.+.+.+.+.+.+.+.+.+.+.+.+.+.+.+.+.+.+.+.+.+.+.+.+.+.+.+.+.+.+.+.+.+.+.+.+.+.+.+.+.+.+.+.+.+.+.+.+.+.+.+.",
"+.+.+.+.+.+.+.+.+.+.+.+.+.+.+.+.+.+.+.+.+.+.+.+.+.+.+.+.+.+.+.+.+.+.+.+.+.+.+.+.+.+.+.+.+.+.+.+.+.+.+.+.+.+.+.+.+.+.+.+.+.+.+.+.+.+.+.+.+.+.",
"+.+.+.+.+.+.+.+.+.+.+.+.+.+.+.+.+.+.+.+.+.+.+.+.+.+.+.+.+.+.+.+.+.+.+.+.+.+.+.+.+.+.+.+.+.+.+.+.+.+.+.+.+.+.+.+.+.+.+.+.+.+.+.+.+.+.+.+.+.+.",
"+.+.+.+.+.+.+.+.+.+.+.+.+.+.+.+.+.+.+.+.+.+.+.+.+.+.+.+.+.+.+.+.+.+.+.+.+.+.+.+.+.+.+.+.+.+.+.+.+.+.+.+.+.+.+.+.+.+.+.+.+.+.+.+.+.+.+.+.+.+.",
"+.+.+.+.+.+.+.+.+.+.+.+.+.+.+.+.+.+.+.+.+.+.+.+.+.+.+.+.+.+.+.+.+.+.+.+.+.+.+.+.+.+.+.+.+.+.+.+.+.+.+.+.+.+.+.+.+.+.+.+.+.+.+.+.+.+.+.+.+.+.",
"+.+.+.+.+.+.+.+.+.+.+.+.+.+.+.+.+.+.+.+.+.+.+.+.+.+.+.+.+.+.+.+.+.+.+.+.+.+.+.+.+.+.+.+.+.+.+.+.+.+.+.+.+.+.+.+.+.+.+.+.+.+.+.+.+.+.+.+.+.+.",
"+.+.+.+.+.+.+.+.+.+.+.+.+.+.+.+.+.+.+.+.+.+.+.+.+.+.+.+.+.+.+.+.+.+.+.+.+.+.+.+.+.+.+.+.+.+.+.+.+.+.+.+.+.+.+.+.+.+.+.+.+.+.+.+.+.+.+.+.+.+."
};
