/* XPM */
static char *result[] = {
/* columns rows colors chars-per-pixel */
"70 70 104 2 ",
"   c #351F2E",
".  c #37202E",
"X  c #3A222F",
"o  c #3E2531",
"O  c #412731",
"+  c #442931",
"@  c #4A2D34",
"#  c #4D3035",
"$  c #533336",
"%  c #5A3234",
"&  c #533538",
"*  c #5B3738",
"=  c #5A3939",
"-  c #603637",
";  c #653937",
":  c #6A3836",
">  c #663C38",
",  c #6B3E3A",
"<  c #723D37",
"1  c #793F37",
"2  c #67433E",
"3  c #6B443E",
"4  c #72423B",
"5  c #7D433A",
"6  c #7D4A3F",
"7  c #6B4740",
"8  c #6E4941",
"9  c #754E43",
"0  c #7E4D41",
"q  c #795044",
"w  c #82443A",
"e  c #854C3E",
"r  c #8D4D3E",
"t  c #924D3C",
"y  c #95523F",
"u  c #9A533F",
"i  c #834E41",
"p  c #845445",
"a  c #8C5242",
"s  c #845949",
"d  c #8A5C49",
"f  c #915341",
"g  c #9D5641",
"h  c #965B46",
"j  c #9C5B45",
"k  c #935E49",
"l  c #A35B43",
"z  c #AA5E44",
"x  c #8F614C",
"c  c #94654E",
"v  c #99654D",
"b  c #9F6D52",
"n  c #A66147",
"m  c #AC6246",
"M  c #A1664C",
"N  c #A66B4F",
"B  c #AB6B4D",
"V  c #B46647",
"C  c #BA6847",
"Z  c #B56748",
"A  c #B86748",
"S  c #B56A4A",
"D  c #BD6B49",
"F  c #BF734F",
"G  c #A16E52",
"H  c #A96E50",
"J  c #A27053",
"K  c #B57553",
"L  c #BF7551",
"P  c #B27856",
"I  c #B77F5A",
"U  c #BD7F59",
"Y  c #C06D4A",
"T  c #C2724D",
"R  c #C8764F",
"E  c #C67750",
"W  c #C67952",
"Q  c #CB7D54",
"!  c #B7805A",
"~  c #B9815B",
"^  c #CD8156",
"/  c #C4855C",
"(  c #CC8459",
")  c #C68A5F",
"_  c #D28357",
"`  c #D28659",
"'  c #D58B5C",
"]  c #D98D5D",
"[  c #C78B60",
"{  c #CA8D61",
"}  c #D18F60",
"|  c #D69463",
" . c #DD9562",
".. c #DA9966",
"X. c #DF9D68",
"o. c #E29A65",
"O. c #E39E69",
"+. c #E89F68",
"@. c #E5A169",
"#. c #EBA66C",
"$. c #EEA86D",
"%. c #F1AA6E",
"&. c #F4AD70",
"*. c None",
/* pixels */
"*.*.*.*.*.*.*.*.*.*.*.*.*.*.*.*.*.*.*.*.*.*.*.*.*.*.*.*.*.*.*.*.*.*.*.*.*.*.*.*.*.*.*.*.*.*.*.*.*.*.*.*.*.*.*.*.*.*.*.*.*.*.*.*.*.*.*.*.*.*.",
"*.*.*.*.*.*.*.*.*.*.*.*.*.*.*.*.*.*.*.*.*.*.*.*.*.*.*.*.*.*.*.*.*.*.*.*.*.*.*.*.*.*.*.*.*.*.*.*.*.*.*.*.*.*.*.*.*.*.*.*.*.*.*.*.*.*.*.*.*.*.",
"*.*.*.*.*.*.*.*.*.*.*.*.*.*.*.*.*.*.*.*.*.*.*.*.*.*.*.*.*.*.*.*.*.*.*.*.*.*.*.*.*.*.*.*.*.*.*.*.*.*.*.*.*.*.*.*.*.*.*.*.*.*.*.*.*.*.*.*.*.*.",
"*.*.*.*.*.*.*.*.*.*.*.*.*.*.*.*.*.*.*.*.*.*.*.*.*.*.*.*.*.*.*.*.*.*.*.*.*.*.*.*.*.*.*.*.*.*.*.*.*.*.*.*.*.*.*.*.*.*.*.*.*.*.*.*.*.*.*.*.*.*.",
"*.*.*.*.*.*.*.*.*.*.*.*.*.*.*.*.*.*.*.*.*.*.*.*.*.*.*.*.*.*.*.*.*.*.*.*.*.*.*.*.*.*.*.*.*.*.*.*.*.*.*.*.*.*.*.*.*.*.*.*.*.*.*.*.*.*.*.*.*.*.",
"*.*.*.*.*.*.*.*.*.*.*.*.*.*.*.*.*.*.*.*.*.*.*.*.*.*.*.*.*.*.*.*.*.*.*.*.*.*.*.*.*.*.*.*.*.*.*.*.*.*.*.*.*.*.*.*.*.*.*.*.*.*.*.*.*.*.*.*.*.*.",
"*.*.*.*.*.*.*.*.*.*.*.*.*.*.*.*.*.*.*.*.*.*.*.*.*.*.*.*.*.*.*.*.*.*.*.*.*.*.*.*.*.*.*.*.*.*.*.*.*.*.*.*.*.*.*.*.*.*.*.*.*.*.*.*.*.*.*.*.*.*.",
"*.*.*.*.*.*.*.*.*.*.*.*.*.*.*.*.*.*.*.*.*.*.*.*.*.*.*.*.*.*.*.*.*.*.*.*.*.*.*.*.*.*.*.*.*.*.*.*.*.*.*.*.*.*.*.*.*.*.*.*.*.*.*.*.*.*.*.*.*.*.",
"*.*.*.*.*.*.*.*.*.*.*.*.*.*.*.*.*.*.*.*.*.*.*.*.*.*.*.*.*.*.*.*.*.*.*.*.*.*.*.*.*.*.*.*.*.*.*.*.*.*.*.*.*.*.*.*.*.*.*.*.*.*.*.*.*.*.*.*.*.*.",
"*.*.*.*.*.*.*.*.*.*.*.*.*.*.*.*.*.*.*.*.*.*.*.O o O o o o O o o o O O o o o O o o O O o O o o *.*.*.*.*.*.*.*.*.*.*.*.*.*.*.*.*.*.*.*.*.*.*.",
"*.*.*.*.*.*.*.*.*.*.*.*.*.*.*.*.*.*.*.*.*.*.O o O o o O O o o o o O o o o O O o o O o o O o o o *.*.*.*.*.*.*.*.*.*.*.*.*.*.*.*.*.*.*.*.*.*.",
"*.*.*.*.*.*.*.*.*.*.*.*.*.*.*.*.*.*.*.*.*.*.o o o o o o o o o o o o o o o o o o o o o o o o o O *.*.*.*.*.*.*.*.*.*.*.*.*.*.*.*.*.*.*.*.*.*.",
"*.*.*.*.*.*.*.*.*.*.*.*.*.*.*.*.*.*.*.*.*.o o o o o o o o . o . o o X X X X X X X X X o o o o o O *.*.*.*.*.*.*.*.*.*.*.*.*.*.*.*.*.*.*.*.*.",
"*.*.*.*.*.*.*.*.*.*.*.*.*.*.*.*.*.*.*.o O o O o o o o . . . . . . . . . . . X X . o X X X o o o o o O *.*.*.*.*.*.*.*.*.*.*.*.*.*.*.*.*.*.*.",
"*.*.*.*.*.*.*.*.*.*.*.*.*.*.*.*.*.*.o o o o O o o o o o o o o o o o X o o X o X o X o X o o o o O o o o *.*.*.*.*.*.*.*.*.*.*.*.*.*.*.*.*.*.",
"*.*.*.*.*.*.*.*.*.*.*.*.*.*.*.*.*.*.O O o o o o o O O @ @ # # # # # # # # # # # # # @ @ @ o o o o o o O *.*.*.*.*.*.*.*.*.*.*.*.*.*.*.*.*.*.",
"*.*.*.*.*.*.*.*.*.*.*.*.*.*.*.*.*.*.o O o o o o + # = 2 7 7 7 7 7 7 8 8 7 8 8 8 7 7 2 = # O o o o o o o *.*.*.*.*.*.*.*.*.*.*.*.*.*.*.*.*.*.",
"*.*.*.*.*.*.*.*.*.*.*.*.*.*.*.*.*.*.O o o o o o @ = 8 s x c b c c c c c c c c c c c q 9 = # o o o o o o *.*.*.*.*.*.*.*.*.*.*.*.*.*.*.*.*.*.",
"*.*.*.*.*.*.*.*.*.*.*.*.*.*.*.*.*.*.o o o . o o # 2 s J I ~ ) ~ ~ ~ ~ ~ ~ ~ ~ ) ~ ~ J s 2 # o X o o O o *.*.*.*.*.*.*.*.*.*.*.*.*.*.*.*.*.*.",
"*.*.*.*.*.*.*.*.*.*.*.*.*.*.*.*.*.O o O o o . o & 9 c ~ | X.X.X.X.X.X...X.X.O.@.X...~ c 8 & o X . o O o *.*.*.*.*.*.*.*.*.*.*.*.*.*.*.*.*.*.",
"*.*.*.*.*.*.*.*.*.*.*.*.*.*.*.*.*.o o o o o   o & 9 J { @.%.%.%.#.#.#.#.#.#.$.%.$.@.{ b 9 & o X X o O o *.*.*.*.*.*.*.*.*.*.*.*.*.*.*.*.*.*.",
"*.*.*.*.*.*.*.*.*.*.*.*.*.*.*.*.O o O O o . . o & 9 J { #.&.&.%.&.$.$.$.%.$.%.&.&.@.{ J 9 & o X . o o o *.*.*.*.*.*.*.*.*.*.*.*.*.*.*.*.*.*.",
"o O O o o o o O o o O o o O O o o O o o o o X o $ 9 J ) @.%.%.%.$.$.$.$.$.$.%.&.%.@.{ J 9 = o . X o o O *.*.*.*.*.*.*.*.*.*.*.*.*.*.*.*.*.*.",
"o o o o O O o o O o o O o o O O o o o o X X X o $ 9 N ) O.$.$.$.#.#.#.#.#.#.$.$.$.X.[ b 9 & o . X o o o *.*.*.*.*.*.*.*.*.*.*.*.*.*.*.*.*.*.",
"o o o o O O X O O O X O O O X O o o o o X X X o $ 9 b [ X.$.$.$.#.#.$.@.$.$.$.$.$.X.{ b 9 & o o o o o o *.*.*.*.*.*.*.*.*.*.*.*.*.*.*.*.*.*.",
"o o X X X X X X X X X X X X X X o o X X X     o $ 9 b [ @.$.%.$.#.#.@.$.$.@.$.$.$.X.[ b 9 # o . . o + O *.*.*.*.*.*.*.*.*.*.*.*.*.*.*.*.*.*.",
". . X .     X   X X X X X X X X X X . X .     X # 9 b [ @.%.%.%.#.$.#.$.#.#.$.&.$.@.) b q & o o . o o o *.*.*.*.*.*.*.*.*.*.*.*.*.*.*.*.*.*.",
"o o X o o o X o X O X X X X X X X X X o X     X & 8 b [ O.#.%.$.#.@.#.@.#.$.$.$.$.@.) N 9 & o . o o O o *.*.*.*.*.*.*.*.*.*.*.*.*.*.*.*.*.*.",
"@ @ @ @ @ @ @ @ @ @ @ @ @ @ @ @ @ @ @ @ O O @ @ = 9 b / o.#.#.#.+.+.#.+.@.#.#.#.#.../ b 9 & o . . o o o *.*.*.*.*.*.*.*.*.*.*.*.*.*.*.*.*.*.",
"2 2 2 2 2 2 2 2 2 2 2 2 2 2 2 2 2 2 7 2 2 = * * 2 s N / ] o.o... .o. .o.....o.o.o.| U v 8 $ o o o o o o *.*.*.*.*.*.*.*.*.*.*.*.*.*.*.*.*.*.",
"x x x c d c d c c x x x x c d c x c x x d s 0 6 e h B U ( ] ] ] ' ' ` ` ' ' ' ] ] ( K c 3 $ o . o o o o *.*.*.*.*.*.*.*.*.*.*.*.*.*.*.*.*.*.",
"I ! ! ! ! ! ! ! I I I I ! ! ! ! ! ! ~ ! P H M j j n S E W Q Q Q Q W Q Q Q Q Q Q Q E B a 3 # o o . o o o *.*.*.*.*.*.*.*.*.*.*.*.*.*.*.*.*.*.",
"........| ............................| } ( L D V Z D D T T T T T T T T D T T E R C z a > @ O o . o o o *.*.*.*.*.*.*.*.*.*.*.*.*.*.*.*.*.*.",
"@.#.#.#.#.#.#.#.@.$.@.#.@.#.#.#.$.#.$.#.o.} Q W D D A D D D A D D C D D D D D Y Y Z j i , @ O X o o o o *.*.*.*.*.*.*.*.*.*.*.*.*.*.*.*.*.*.",
"%.%.%.%.%.%.%.%.%.&.&.%.&.$.&.$.&.&.&.$.+. ._ R Y D C Y D A A D A C C C C C D C D V l e > # O o o o o o *.*.*.*.*.*.*.*.*.*.*.*.*.*.*.*.*.*.",
"%.$.%.%.%.%.%.%.%.%.$.$.&.$.$.$.&.$.%.#.+. .Q R Y D C Y D D D D C C C C C C C Y A Z g e > @ O   o o o O *.*.*.*.*.*.*.*.*.*.*.*.*.*.*.*.*.*.",
"$.#.#.#.#.#.#.#.$.@.$.$.#.#.#.#.#.#.#.#.o.} Q R D D D D D D D D D D D D D D D Y Y Z l e > # o   . o o o *.*.*.*.*.*.*.*.*.*.*.*.*.*.*.*.*.*.",
"@.@.@.@.O.O.O.O.@.O.@.O.+.+.O.+.+.O.+.O. .' Q W D D Z V A A S D T Y T Y Y T Y R R D z p , @ o o o o o o *.*.*.*.*.*.*.*.*.*.*.*.*.*.*.*.*.*.",
" . . . . . . . . . .|  .|  . . . . . . .} _ W E A V z z z V S L W Q W Q Q W Q Q Q W B a 3 # o o . o o o *.*.*.*.*.*.*.*.*.*.*.*.*.*.*.*.*.*.",
"` ` _ ( ` ` _ ` ` ` ` ` ` ` _ ` ' ` ` ( Q Q E Y Z V l g j l B W ( ' ] ] ' ' ]  .} ` K k 4 # O   o o o o *.*.*.*.*.*.*.*.*.*.*.*.*.*.*.*.*.*.",
"E W E E W W W W E Q E Q W W W Q W W Q E E E T D A l u t t g H Q }  .o.o.O. .o.o.o.} W c 9 # O o o o o o *.*.*.*.*.*.*.*.*.*.*.*.*.*.*.*.*.*.",
"D F T Y T D T Y Y Y D D E D Y D D Y D Y D T D D A l t w w f H Q  .#.#.#.@.@.#.#.#.o.[ b 9 & o . . o O O *.*.*.*.*.*.*.*.*.*.*.*.*.*.*.*.*.*.",
"D D D C D D D D D D D D C D D D D D D D D D Y D A l t w w f B ( ..$.$.#.#.#.#.#.$.O.[ b 9 & O . o o o o *.*.*.*.*.*.*.*.*.*.*.*.*.*.*.*.*.*.",
"Y Y D Y Y Y D D D Y Y D D D Y Y Y Y D Y Y Y R Y A l t 5 5 a B / O.#.$.$.#.#.&.&.$.O.[ b 9 & o   . o O o *.*.*.*.*.*.*.*.*.*.*.*.*.*.*.*.*.*.",
"D D D D Y Y Y Y D D Y D Y D Y Y Y Y Y Y Y Y Y Y A l t w w a B / O.#.$.#.#.#.$.&.$.@.[ b 9 & o o . o o o *.*.*.*.*.*.*.*.*.*.*.*.*.*.*.*.*.*.",
"D D D F C C C D D D D D D D D C D C D D D D D D V l t 5 w f B /  .#.$.$.#.#.#.$.$.X.[ b 9 & o   o o o o *.*.*.*.*.*.*.*.*.*.*.*.*.*.*.*.*.*.",
"m m n m n n m m m m m m z m m m m m m m m m m m l f w 1 1 a N / ..#.$.$.#.@.$.$.#.O.[ b 9 & o o o o o o *.*.*.*.*.*.*.*.*.*.*.*.*.*.*.*.*.*.",
"y y y a y y y y f f a f f f f f f a f f f f f f a w < : : i v / ..#.$.$.#.#.#.&.#.O.[ b 9 & o .   o o o *.*.*.*.*.*.*.*.*.*.*.*.*.*.*.*.*.*.",
"3 4 4 4 4 4 4 4 4 4 4 4 4 4 4 4 8 1 8 < 8 1 4 4 , ; % % - 9 v / ..#.%.#.#.#.#.%.#.X.[ b 9 & o X o . o o *.*.*.*.*.*.*.*.*.*.*.*.*.*.*.*.*.*.",
"$ $ % % $ & $ % $ $ % $ $ % $ $ & & % $ % & % & % @ + @ # 7 k U ..#.%.%.#.#.#.%.#.o.[ b 9 & o X o o O o *.*.*.*.*.*.*.*.*.*.*.*.*.*.*.*.*.*.",
"+ + O O o + O o + + + O + + + + o + + o O O O O O O X O @ 7 c I | #.%.#.#.#.#.%.#.O.[ b 9 & o X o o o o *.*.*.*.*.*.*.*.*.*.*.*.*.*.*.*.*.*.",
"X X o X o o o X X o X o o X X X X o o X o o o . X X   X @ 7 d ~ ..#.%.#.#.#.#.%.#.O.[ b 9 & o .   o o O *.*.*.*.*.*.*.*.*.*.*.*.*.*.*.*.*.*.",
"o . X o . X . o X X X X X X o X o X X X X X X o X .   . @ 2 x ~ ..#.#.#.#.#.#.%.$.O.[ b 9 & o X o o o o *.*.*.*.*.*.*.*.*.*.*.*.*.*.*.*.*.*.",
"o o o o o o o o o o o o o X o o o o o o X o o o o X . X @ 2 x I ..#.%.%.#.#.#.%.#.O.[ b 9 $ o X . . O o *.*.*.*.*.*.*.*.*.*.*.*.*.*.*.*.*.*.",
"o o o o o o o o o o o o o o o o o o o o o o o o O X X O @ 2 d ~ | #.%.#.#.#.#.#.#.O.[ b 9 & o X o o O o *.*.*.*.*.*.*.*.*.*.*.*.*.*.*.*.*.*.",
"o o o o o o o o o o o o O o o o o o o o o o O o X X X X @ 2 x I ..#.%.%.#.#.%.%.#.O.[ b 9 & O X . o o O *.*.*.*.*.*.*.*.*.*.*.*.*.*.*.*.*.*.",
"o O o O o o O o o o o O o o O o + + O O O O O o o X   o @ 2 c I ..#.%.%.#.#.#.%.#.O.[ b 9 & O X o o o O *.*.*.*.*.*.*.*.*.*.*.*.*.*.*.*.*.*.",
"*.*.*.*.*.*.*.*.*.*.*.*.*.*.*.*.*.*.*.*.*.o o o o o   o @ 2 x I | #.%.#.#.#.#.%.#.O.[ b 9 & O . o o o o *.*.*.*.*.*.*.*.*.*.*.*.*.*.*.*.*.*.",
"*.*.*.*.*.*.*.*.*.*.*.*.*.*.*.*.*.*.*.*.*.*.O O o X . o @ 2 x I ..#.#.$.#.#.#.%.#.O.[ b 9 $ o .   o o O *.*.*.*.*.*.*.*.*.*.*.*.*.*.*.*.*.*.",
"*.*.*.*.*.*.*.*.*.*.*.*.*.*.*.*.*.*.*.*.*.*.o o o X . o @ 2 x I ..#.%.#.#.#.#.%.#.o.[ b 9 & o .   o o O *.*.*.*.*.*.*.*.*.*.*.*.*.*.*.*.*.*.",
"*.*.*.*.*.*.*.*.*.*.*.*.*.*.*.*.*.*.*.*.*.*.o o o o   o @ 2 x I ..#.$.$.#.#.#.%.#.O.[ b 9 & O . o o o o *.*.*.*.*.*.*.*.*.*.*.*.*.*.*.*.*.*.",
"*.*.*.*.*.*.*.*.*.*.*.*.*.*.*.*.*.*.*.*.*.*.o o o X   o @ 2 x I ..#.%.$.#.#.#.$.#.O.[ b 9 & O . . o O o *.*.*.*.*.*.*.*.*.*.*.*.*.*.*.*.*.*.",
"*.*.*.*.*.*.*.*.*.*.*.*.*.*.*.*.*.*.*.*.*.*.o o o X X o @ 2 x I | #.%.$.#.#.$.%.#.O.[ b 9 & O . . o o o *.*.*.*.*.*.*.*.*.*.*.*.*.*.*.*.*.*.",
"*.*.*.*.*.*.*.*.*.*.*.*.*.*.*.*.*.*.*.*.*.*.o o o o . X @ 2 x I ..#.$.#.#.#.$.$.#.O.[ b 9 & o . o o o O *.*.*.*.*.*.*.*.*.*.*.*.*.*.*.*.*.*.",
"*.*.*.*.*.*.*.*.*.*.*.*.*.*.*.*.*.*.*.*.*.*.o o o o . o @ 2 x ! ..@.$.$.#.#.$.$.$.O.[ b 9 & o . X o o O *.*.*.*.*.*.*.*.*.*.*.*.*.*.*.*.*.*.",
"*.*.*.*.*.*.*.*.*.*.*.*.*.*.*.*.*.*.*.*.*.*.+ o o o . . @ 2 x ! ..#.%.$.#.#.$.$.$.O.[ b 9 & o . X o o O *.*.*.*.*.*.*.*.*.*.*.*.*.*.*.*.*.*.",
"*.*.*.*.*.*.*.*.*.*.*.*.*.*.*.*.*.*.*.*.*.*.o o o o . o # 2 x ! ..#.%.$.#.@.$.$.#.O./ b 9 & O o X X O o *.*.*.*.*.*.*.*.*.*.*.*.*.*.*.*.*.*.",
"*.*.*.*.*.*.*.*.*.*.*.*.*.*.*.*.*.*.*.*.*.*.o + o X . o @ 2 x ~ ..#.$.$.#.#.$.$.$.O.[ b 9 & o . X o O O *.*.*.*.*.*.*.*.*.*.*.*.*.*.*.*.*.*.",
"*.*.*.*.*.*.*.*.*.*.*.*.*.*.*.*.*.*.*.*.*.*.o o o X . X @ 2 x ! ..@.$.$.#.#.$.%.#.O.[ b 9 & o . o o o O *.*.*.*.*.*.*.*.*.*.*.*.*.*.*.*.*.*.",
"*.*.*.*.*.*.*.*.*.*.*.*.*.*.*.*.*.*.*.*.*.*.O o o X . o @ 2 x ! ..#.%.$.#.#.$.%.#.O.[ b 9 $ o   o o o o *.*.*.*.*.*.*.*.*.*.*.*.*.*.*.*.*.*."
};
