/* XPM */
static char *result[] = {
/* columns rows colors chars-per-pixel */
"70 70 104 2 ",
"   c #351F2E",
".  c #37202E",
"X  c #3A222F",
"o  c #3E2531",
"O  c #412731",
"+  c #442931",
"@  c #4A2D34",
"#  c #4D3035",
"$  c #533336",
"%  c #5A3234",
"&  c #533538",
"*  c #5B3738",
"=  c #5A3939",
"-  c #603637",
";  c #653937",
":  c #6A3836",
">  c #663C38",
",  c #6B3E3A",
"<  c #723D37",
"1  c #793F37",
"2  c #67433E",
"3  c #6B443E",
"4  c #72423B",
"5  c #7D433A",
"6  c #7D4A3F",
"7  c #6B4740",
"8  c #6E4941",
"9  c #754E43",
"0  c #7E4D41",
"q  c #795044",
"w  c #82443A",
"e  c #854C3E",
"r  c #8D4D3E",
"t  c #924D3C",
"y  c #95523F",
"u  c #9A533F",
"i  c #834E41",
"p  c #845445",
"a  c #8C5242",
"s  c #845949",
"d  c #8A5C49",
"f  c #915341",
"g  c #9D5641",
"h  c #965B46",
"j  c #9C5B45",
"k  c #935E49",
"l  c #A35B43",
"z  c #AA5E44",
"x  c #8F614C",
"c  c #94654E",
"v  c #99654D",
"b  c #9F6D52",
"n  c #A66147",
"m  c #AC6246",
"M  c #A1664C",
"N  c #A66B4F",
"B  c #AB6B4D",
"V  c #B46647",
"C  c #BA6847",
"Z  c #B56748",
"A  c #B86748",
"S  c #B56A4A",
"D  c #BD6B49",
"F  c #BF734F",
"G  c #A16E52",
"H  c #A96E50",
"J  c #A27053",
"K  c #B57553",
"L  c #BF7551",
"P  c #B27856",
"I  c #B77F5A",
"U  c #BD7F59",
"Y  c #C06D4A",
"T  c #C2724D",
"R  c #C8764F",
"E  c #C67750",
"W  c #C67952",
"Q  c #CB7D54",
"!  c #B7805A",
"~  c #B9815B",
"^  c #CD8156",
"/  c #C4855C",
"(  c #CC8459",
")  c #C68A5F",
"_  c #D28357",
"`  c #D28659",
"'  c #D58B5C",
"]  c #D98D5D",
"[  c #C78B60",
"{  c #CA8D61",
"}  c #D18F60",
"|  c #D69463",
" . c #DD9562",
".. c #DA9966",
"X. c #DF9D68",
"o. c #E29A65",
"O. c #E39E69",
"+. c #E89F68",
"@. c #E5A169",
"#. c #EBA66C",
"$. c #EEA86D",
"%. c #F1AA6E",
"&. c #F4AD70",
"*. c None",
/* pixels */
"*.*.*.*.*.*.*.*.*.*.*.*.*.*.*.*.*.*.*.*.*.*.*.*.*.*.*.*.*.*.*.*.*.*.*.*.*.*.*.*.*.*.*.*.*.*.*.*.*.*.*.*.*.*.*.*.*.*.*.*.*.*.*.*.*.*.*.*.*.*.",
"*.*.*.*.*.*.*.*.*.*.*.*.*.*.*.*.*.*.*.*.*.*.*.*.*.*.*.*.*.*.*.*.*.*.*.*.*.*.*.*.*.*.*.*.*.*.*.*.*.*.*.*.*.*.*.*.*.*.*.*.*.*.*.*.*.*.*.*.*.*.",
"*.*.*.*.*.*.*.*.*.*.*.*.*.*.*.*.*.*.*.*.*.*.*.*.*.*.*.*.*.*.*.*.*.*.*.*.*.*.*.*.*.*.*.*.*.*.*.*.*.*.*.*.*.*.*.*.*.*.*.*.*.*.*.*.*.*.*.*.*.*.",
"*.*.*.*.*.*.*.*.*.*.*.*.*.*.*.*.*.*.*.*.*.*.*.*.*.*.*.*.*.*.*.*.*.*.*.*.*.*.*.*.*.*.*.*.*.*.*.*.*.*.*.*.*.*.*.*.*.*.*.*.*.*.*.*.*.*.*.*.*.*.",
"*.*.*.*.*.*.*.*.*.*.*.*.*.*.*.*.*.*.*.*.*.*.*.*.*.*.*.*.*.*.*.*.*.*.*.*.*.*.*.*.*.*.*.*.*.*.*.*.*.*.*.*.*.*.*.*.*.*.*.*.*.*.*.*.*.*.*.*.*.*.",
"*.*.*.*.*.*.*.*.*.*.*.*.*.*.*.*.*.*.*.*.*.*.*.*.*.*.*.*.*.*.*.*.*.*.*.*.*.*.*.*.*.*.*.*.*.*.*.*.*.*.*.*.*.*.*.*.*.*.*.*.*.*.*.*.*.*.*.*.*.*.",
"*.*.*.*.*.*.*.*.*.*.*.*.*.*.*.*.*.*.*.*.*.*.*.*.*.*.*.*.*.*.*.*.*.*.*.*.*.*.*.*.*.*.*.*.*.*.*.*.*.*.*.*.*.*.*.*.*.*.*.*.*.*.*.*.*.*.*.*.*.*.",
"*.*.*.*.*.*.*.*.*.*.*.*.*.*.*.*.*.*.*.*.*.*.*.*.*.*.*.*.*.*.*.*.*.*.*.*.*.*.*.*.*.*.*.*.*.*.*.*.*.*.*.*.*.*.*.*.*.*.*.*.*.*.*.*.*.*.*.*.*.*.",
"*.*.*.*.*.*.*.*.*.*.*.*.*.*.*.*.*.*.*.*.*.*.*.*.*.*.*.*.*.*.*.*.*.*.*.*.*.*.*.*.*.*.*.*.*.*.*.*.*.*.*.*.*.*.*.*.*.*.*.*.*.*.*.*.*.*.*.*.*.*.",
"*.*.*.*.*.*.*.*.*.*.*.*.*.*.*.*.*.*.*.*.*.*.*.o + o o + + o o o o + o o o O o O o O O o o o O *.*.*.*.*.*.*.*.*.*.*.*.*.*.*.*.*.*.*.*.*.*.*.",
"*.*.*.*.*.*.*.*.*.*.*.*.*.*.*.*.*.*.*.*.*.*.+ o o o o o o o o o o o + o o o O o o O o o o O O o *.*.*.*.*.*.*.*.*.*.*.*.*.*.*.*.*.*.*.*.*.*.",
"*.*.*.*.*.*.*.*.*.*.*.*.*.*.*.*.*.*.*.*.*.*.o o o o o o o o o o o o o o o o o o o o o o o o o o *.*.*.*.*.*.*.*.*.*.*.*.*.*.*.*.*.*.*.*.*.*.",
"*.*.*.*.*.*.*.*.*.*.*.*.*.*.*.*.*.*.*.*.*.o o o o o o o X X X X o o . o . o . X X X X o o o o O o *.*.*.*.*.*.*.*.*.*.*.*.*.*.*.*.*.*.*.*.*.",
"*.*.*.*.*.*.*.*.*.*.*.*.*.*.*.*.*.*.*.o + o o o o o o . X . X . . . . . . . . . . o X X X o o o O o o *.*.*.*.*.*.*.*.*.*.*.*.*.*.*.*.*.*.*.",
"*.*.*.*.*.*.*.*.*.*.*.*.*.*.*.*.*.*.+ o o o + o o o o o X o o o o o o o o o o o o X o o o o o o o o O o *.*.*.*.*.*.*.*.*.*.*.*.*.*.*.*.*.*.",
"*.*.*.*.*.*.*.*.*.*.*.*.*.*.*.*.*.*.o o o o o o o o + @ # # # # # # @ # # # # @ # # @ + + O O o o o O o *.*.*.*.*.*.*.*.*.*.*.*.*.*.*.*.*.*.",
"*.*.*.*.*.*.*.*.*.*.*.*.*.*.*.*.*.*.o O o o o o + # = 2 7 7 9 7 7 7 7 7 7 7 7 8 7 7 7 = # o o o o o o o *.*.*.*.*.*.*.*.*.*.*.*.*.*.*.*.*.*.",
"*.*.*.*.*.*.*.*.*.*.*.*.*.*.*.*.*.*.o O o o o o @ = 7 s x c c c c c c b c c c c c c q 8 = @ o o o o o O *.*.*.*.*.*.*.*.*.*.*.*.*.*.*.*.*.*.",
"*.*.*.*.*.*.*.*.*.*.*.*.*.*.*.*.*.*.o o o . . o # 2 d J I / / ~ ~ ~ ~ ~ ~ ~ ~ [ / ! J s 7 # o o o o o O *.*.*.*.*.*.*.*.*.*.*.*.*.*.*.*.*.*.",
"*.*.*.*.*.*.*.*.*.*.*.*.*.*.*.*.*.*.O o o . o o $ 9 c ~ | ..X.X...X...X.X.X.X.@.X.| ~ c 8 & o o X o o o o *.*.*.*.*.*.*.*.*.*.*.*.*.*.*.*.*.",
"*.*.*.*.*.*.*.*.*.*.*.*.*.*.*.*.*.*.o O o X . O & 9 G ) O.%.%.%.$.#.#.#.#.#.$.%.$.X.[ b 9 & o . X o o o o *.*.*.*.*.*.*.*.*.*.*.*.*.*.*.*.*.",
"*.*.*.*.*.*.*.*.*.*.*.*.*.*.*.*.*.*.o o o . . O & q G { @.&.&.%.%.$.&.$.$.&.&.&.&.@.{ J q & o . X o o o o O *.*.*.*.*.*.*.*.*.*.*.*.*.*.*.*.",
"*.*.*.*.*.*.*.*.*.*.*.*.*.*.*.*.*.*.O o o . . O $ q J ) @.%.%.%.$.$.$.$.#.#.&.&.&.@.{ J q & o o X o o o O + o o o + + o o + + o O o o o O O ",
"*.*.*.*.*.*.*.*.*.*.*.*.*.*.*.*.*.*.o O o o . O $ 9 G ) @.%.$.$.#.@.#.#.#.#.#.$.$.O.[ b 9 & o . X o o o o o o o o o o o o o o o o o O O o O ",
"*.*.*.*.*.*.*.*.*.*.*.*.*.*.*.*.*.*.O o o     O $ 9 b [ O.$.%.$.#.#.#.#.#.#.#.#.$.X.[ b 9 & o . X X O O o o o o o o o o o o X o o o X O O O ",
"*.*.*.*.*.*.*.*.*.*.*.*.*.*.*.*.*.*.O o o o . O $ 9 b [ O.$.%.$.#.#.#.#.#.#.#.&.$.X.[ b 8 & . . . X X X X X X . o o o . X o X X o . X X X . ",
"*.*.*.*.*.*.*.*.*.*.*.*.*.*.*.*.*.*.o o o   o o & 9 b [ O.%.%.$.#.#.#.#.$.#.%.&.$.@.) b 9 # . . . . . . X X . . . . . . . . X X         . . ",
"*.*.*.*.*.*.*.*.*.*.*.*.*.*.*.*.*.*.o O o o   o & 9 b [ O.$.%.$.#.#.#.#.#.#.#.#.$.X.[ b 9 & o . . . O X X X o o o o o o X o o X o o o o O X ",
"*.*.*.*.*.*.*.*.*.*.*.*.*.*.*.*.*.*.O o o o . o & 9 b / X.@.#.#.@.@.@.#.@.@.#.#.#...) N q * @ O + + + # # @ @ @ @ @ @ @ @ @ @ @ @ @ @ @ @ @ ",
"*.*.*.*.*.*.*.*.*.*.*.*.*.*.*.*.*.*.o o o o o o # 9 v U | o.+.o.o.o. . .....o.o.o.| / N p 3 * = > 2 2 2 2 2 2 2 2 2 2 2 2 2 2 2 2 2 7 2 2 2 ",
"*.*.*.*.*.*.*.*.*.*.*.*.*.*.*.*.*.*.O O o . . o $ 3 k P ( ] ] ] ' ` ' ` ' ' ] ] ' ` W B h e 6 0 s d x x x x x x x x x x x x x x x x x x x x ",
"*.*.*.*.*.*.*.*.*.*.*.*.*.*.*.*.*.*.o o o . o o @ 3 a S E Q Q Q Q Q Q Q R Q Q Q ^ W L S n j j M N P ! ~ ~ ~ ! ~ ! ~ ! ~ ! ~ ! ~ ! ! ! ! ! ! ",
"*.*.*.*.*.*.*.*.*.*.*.*.*.*.*.*.*.*.o o o o o o # , i z Y T T T T T T T F T T F Y Y D D Z Z S U ^ } ........................| .. ...........",
"*.*.*.*.*.*.*.*.*.*.*.*.*.*.*.*.*.*.o o o . o o # : i l A Y Y Y C C D D C D D C C D D D D D T ^ ' o.#.#.$.$.#.#.#.@.#.#.#.#.#.#.#.$.#.#.#.@.",
"*.*.*.*.*.*.*.*.*.*.*.*.*.*.*.*.*.*.o o o . . o @ : w l V A Y A C C C C C C C C D D D D D Y E _  .+.$.&.&.%.%.%.%.&.$.&.&.$.$.&.%.%.%.%.%.&.",
"*.*.*.*.*.*.*.*.*.*.*.*.*.*.*.*.*.*.o o o o o o @ , i g V Y Y A C C C C C C C D D D D D D D E _ ] O.$.$.%.%.%.%.$.%.%.$.$.&.$.$.%.%.%.$.$.%.",
"*.*.*.*.*.*.*.*.*.*.*.*.*.*.*.*.*.*.o O o o . o @ : i l A Y Y Y D D D D D D D D D D D D D D E Q ] O.@.%.$.$.#.#.#.#.#.#.#.#.#.#.$.#.#.#.#.$.",
"*.*.*.*.*.*.*.*.*.*.*.*.*.*.*.*.*.*.o o o X o o # , i z Y T T T F T Y T T Y D D D A V V A A E Q ` o.o.O.@.O.O.O.@.O.@.@.@.@.@.@.O.O.O.O.O.O.",
"*.*.*.*.*.*.*.*.*.*.*.*.*.*.*.*.*.*.O o o X X O # , a H R Q Q Q Q Q Q Q Q E F S m z z m V A T W _ ] | o.o. . . . . . . . . .|  . . . . . . .",
"*.*.*.*.*.*.*.*.*.*.*.*.*.*.*.*.*.*.O o o o X O $ 8 k K } ] ] } ' ` ' ' ' ( U S l g l l m D D E Q ^ ` ` _ ` ` ` _ _ ` ` _ ` _ ( ` ` ` ` ` _ ",
"*.*.*.*.*.*.*.*.*.*.*.*.*.*.*.*.*.*.o O o . X o & 8 c U  .o.o.o. .o.o.o. .| W S h a t g z A D E T W W R Q R R W W W W W R W W W W W Q E W W ",
"*.*.*.*.*.*.*.*.*.*.*.*.*.*.*.*.*.*.o O o o o o & 9 b U o.#.#.#.@.@.$.@.@. ./ H f w w t l V D Y T D T Y F D F Y D F T Y D T F Y Y Y D F Y Y ",
"*.*.*.*.*.*.*.*.*.*.*.*.*.*.*.*.*.*.o o o o . o & 9 b [ O.#.%.$.#.#.$.$.#.X./ B a w w t l A Y Y Y D Y D D D D D D D D C C D C D D D D D D D ",
"*.*.*.*.*.*.*.*.*.*.*.*.*.*.*.*.*.*.O o o . o o & 9 b [ O.$.%.$.#.#.$.%.$.o.) B a w w t l A Y Y Y Y C Y D D D D Y Y D Y Y D Y Y D Y Y D D Y ",
"*.*.*.*.*.*.*.*.*.*.*.*.*.*.*.*.*.*.O o o . o o & 9 b [ O.#.%.#.#.#.$.&.#.../ B a w w t l A Y Y Y Y Y Y Y Y Y T D T Y T Y Y Y Y T Y Y Y Y Y ",
"*.*.*.*.*.*.*.*.*.*.*.*.*.*.*.*.*.*.o o o     o & 9 b [ O.%.%.%.#.#.#.%.#.../ B a w w t l V D D D D D C D D C D D C C D C D D C A A A D D A ",
"*.*.*.*.*.*.*.*.*.*.*.*.*.*.*.*.*.*.o O o . o o & 9 G [ O.#.%.#.#.#.#.$.#.../ B a 1 1 w t l z m n n m m m n n n m m n n n n m m m m m m z m ",
"*.*.*.*.*.*.*.*.*.*.*.*.*.*.*.*.*.*.o o o o   o & 9 b [ O.#.%.#.#.#.#.$.#.../ v i : : < w a f f y y y y a a y y y y a y y y y y f f f f f f ",
"*.*.*.*.*.*.*.*.*.*.*.*.*.*.*.*.*.*.O O o o . o & 9 b [ O.#.%.#.#.#.$.$.#...~ v 6 % % % ; 4 4 4 4 4 4 4 4 4 4 4 4 4 4 4 4 4 4 4 8 1 8 < 4 4 ",
"*.*.*.*.*.*.*.*.*.*.*.*.*.*.*.*.*.*.o o o X o o & 9 b [ O.%.%.#.@.#.$.$.#...~ c 3 % @ @ @ $ $ & & $ % $ $ & $ $ $ % $ $ % $ $ % & & % $ % $ ",
"*.*.*.*.*.*.*.*.*.*.*.*.*.*.*.*.*.*.O o o X . o & 9 b [ O.#.%.#.#.#.$.%.#...! x 2 @ X X O O o + + O O + o + + + + O + + + + + + o O O o O O ",
"*.*.*.*.*.*.*.*.*.*.*.*.*.*.*.*.*.*.o o o . X o & 9 b [ O.#.%.#.#.#.$.$.#...! x 2 @ X . X X o o X o o X o X o X X o X o X X X X o o o X o o ",
"*.*.*.*.*.*.*.*.*.*.*.*.*.*.*.*.*.*.O O o X X O # 9 b [ X.#.%.%.#.$.$.%.#...! x 2 + X . X o . . X o X o X X X X o X o X X X X o o X X X X o ",
"*.*.*.*.*.*.*.*.*.*.*.*.*.*.*.*.*.*.o o o X X o & 9 b [ O.#.%.#.#.@.$.$.@...! x 2 @ X . X X o o X o o o o o o o o X o o o o X o o o o o o o ",
"*.*.*.*.*.*.*.*.*.*.*.*.*.*.*.*.*.*.o O X X X o & 9 b [ O.#.%.#.#.#.$.$.#...! x 2 @ X X o o o o o o o o o o o o o o o o o o o o o o o o o o ",
"*.*.*.*.*.*.*.*.*.*.*.*.*.*.*.*.*.*.o o o X X o & 9 b [ O.#.%.#.@.$.$.$.#...~ x 2 # X X X o o O o o o o o o o o o o O o o O o o o o o o o o ",
"*.*.*.*.*.*.*.*.*.*.*.*.*.*.*.*.*.*.o o o o X O # 9 b [ O.$.$.$.#.#.$.%.#. .I x 2 @ X . X o o o O o o O o o + o o o o O o o O o o O o o O o ",
"*.*.*.*.*.*.*.*.*.*.*.*.*.*.*.*.*.*.O o o o . o $ 9 b [ O.$.%.$.#.#.$.%.#. .I x 2 @ X X X o O o o *.*.*.*.*.*.*.*.*.*.*.*.*.*.*.*.*.*.*.*.*.",
"*.*.*.*.*.*.*.*.*.*.*.*.*.*.*.*.*.*.O o o . . o # q b [ O.#.$.$.#.#.$.$.#...~ x 2 @ X . X o O o *.*.*.*.*.*.*.*.*.*.*.*.*.*.*.*.*.*.*.*.*.*.",
"*.*.*.*.*.*.*.*.*.*.*.*.*.*.*.*.*.*.o O o   o o & 9 G [ O.#.$.$.#.#.#.$.#...! x 2 @ o . X O o O *.*.*.*.*.*.*.*.*.*.*.*.*.*.*.*.*.*.*.*.*.*.",
"*.*.*.*.*.*.*.*.*.*.*.*.*.*.*.*.*.*.o o O X . o $ 9 G [ O.#.$.#.#.#.$.&.@...I x 2 @ o . o o + o *.*.*.*.*.*.*.*.*.*.*.*.*.*.*.*.*.*.*.*.*.*.",
"*.*.*.*.*.*.*.*.*.*.*.*.*.*.*.*.*.*.O o X X . O & 9 b [ O.#.&.#.#.#.$.#.#...! x 2 @ o . o o o o *.*.*.*.*.*.*.*.*.*.*.*.*.*.*.*.*.*.*.*.*.*.",
"*.*.*.*.*.*.*.*.*.*.*.*.*.*.*.*.*.*.o O o X . O # 9 b [ O.#.&.#.#.#.#.&.#...! x 2 @ X . . o o o *.*.*.*.*.*.*.*.*.*.*.*.*.*.*.*.*.*.*.*.*.*.",
"*.*.*.*.*.*.*.*.*.*.*.*.*.*.*.*.*.*.O O o X . O $ 9 b [ O.#.$.#.@.#.#.&.@...~ x 2 @ o X o o + o *.*.*.*.*.*.*.*.*.*.*.*.*.*.*.*.*.*.*.*.*.*.",
"*.*.*.*.*.*.*.*.*.*.*.*.*.*.*.*.*.*.O o o . . O & 9 b [ o.$.%.#.#.#.#.%.#...I x 2 @ o . X O O O *.*.*.*.*.*.*.*.*.*.*.*.*.*.*.*.*.*.*.*.*.*.",
"*.*.*.*.*.*.*.*.*.*.*.*.*.*.*.*.*.*.O o o o . O & 9 b [ X.#.%.#.#.#.#.%.#...I x 2 @ o . . o o o *.*.*.*.*.*.*.*.*.*.*.*.*.*.*.*.*.*.*.*.*.*.",
"*.*.*.*.*.*.*.*.*.*.*.*.*.*.*.*.*.*.o o o .   o # 9 G [ O.#.%.#.#.#.%.%.#...I x 2 @ o . o o o O *.*.*.*.*.*.*.*.*.*.*.*.*.*.*.*.*.*.*.*.*.*.",
"*.*.*.*.*.*.*.*.*.*.*.*.*.*.*.*.*.*.o O o   o o & 9 G [ O.#.%.$.#.#.#.#.#.| I x 2 @ o . X o O o *.*.*.*.*.*.*.*.*.*.*.*.*.*.*.*.*.*.*.*.*.*.",
"*.*.*.*.*.*.*.*.*.*.*.*.*.*.*.*.*.*.o o o o o o & 9 G [ O.#.%.$.#.#.#.%.#...I x 2 @ X . o o O o *.*.*.*.*.*.*.*.*.*.*.*.*.*.*.*.*.*.*.*.*.*.",
"*.*.*.*.*.*.*.*.*.*.*.*.*.*.*.*.*.*.O o o o   o & 9 b [ O.#.%.#.#.#.#.%.#...I x 2 @ o . . o o O *.*.*.*.*.*.*.*.*.*.*.*.*.*.*.*.*.*.*.*.*.*."
};
